<svg width="167" height="30" viewBox="0 0 167 30" fill="none" xmlns="http://www.w3.org/2000/svg">
<g clip-path="url(#clip0_33_3525)">
<path d="M165.106 0.0537109H151.754V4.5061H158.525C157.843 5.4985 157.083 6.39703 156.231 7.21509C154.907 8.4757 153.399 9.50163 151.715 10.2929V15.1945C152.547 14.8727 153.36 14.5173 154.16 14.1015C157.706 12.2643 160.537 9.50834 162.655 5.83377V15.7243H167.007V0.0537109H165.113H165.106Z" fill="#FF4433"/>
<path d="M11.0446 0.885254H24.9799L36.0245 29.1083H24.4883L23.3281 26.5267H12.0803L11.0446 29.1083H0L11.0446 0.885254ZM21.2634 19.3318L17.7042 8.96527L13.9811 19.3318H21.2634Z" fill="white"/>
<path d="M46.6099 0.885254V15.3622C46.6099 20.693 48.3076 22.8119 52.6468 22.8119C56.986 22.8119 58.6443 20.6997 58.6443 15.3622V0.885254H69.1908V17.2196C69.1908 21.8732 68.2797 24.5822 66.0052 26.5737C63.4424 28.9005 59.0573 30.0001 52.6468 30.0001C45.7841 30.0001 41.3138 28.773 38.7902 26.1512C36.8435 24.1597 36.0635 21.5849 36.0635 17.2263V0.885254H46.6099Z" fill="white"/>
<path d="M86.4427 20.646C87.3931 22.2083 88.7565 22.8051 91.3652 22.8051C93.974 22.8051 95.1276 22.1681 95.1276 20.9879C95.1276 20.1833 94.7147 19.7608 93.8429 19.506C92.9711 19.2512 92.4336 19.1708 86.0232 18.5337C82.9228 18.2387 79.5275 17.5615 77.3382 16.797C73.9036 15.6974 72.042 13.2029 72.042 9.72955C72.042 3.33929 78.1248 0 89.7003 0C95.5733 0 99.9191 0.932052 102.731 2.78945C105.006 4.27135 106.041 5.88064 106.906 9.1797H93.135C92.473 7.40277 90.8999 6.59812 88.1731 6.59812C85.9838 6.59812 84.6139 7.3156 84.6139 8.46223C84.6139 9.85695 85.525 10.1118 94.0461 11.0036C98.9293 11.5132 100.332 11.8082 102.692 12.6933C106.041 14.0076 107.778 16.5422 107.778 20.0559C107.778 26.7814 101.866 30 89.4971 30C83.5848 30 79.1145 29.1953 76.3419 27.633C73.3661 25.9835 72.1666 24.1663 71.793 20.6527H86.4361L86.4427 20.646Z" fill="white"/>
<path d="M146.747 29.0277H142.198L140.788 25.9835C139.379 27.3782 138.304 28.0554 136.613 28.6522C134.05 29.5373 131.028 30.0067 127.515 30.0067C115.808 30.0067 109.273 24.6759 109.273 15.114C109.273 10.2459 111.174 6.01477 114.484 3.60753C117.709 1.24052 122.383 0.0134277 128.053 0.0134277C134.011 0.0134277 139.097 1.32769 142.237 3.65446C145.01 5.6862 146.248 7.671 146.747 10.8896H134.214C133.303 8.39519 131.317 7.20833 128.177 7.20833C123.628 7.20833 120.895 10.0447 120.895 14.8257C120.895 19.9888 123.871 22.8655 129.291 22.8655C132.851 22.8655 134.837 21.806 135.617 19.5664H130.943V13.431H146.74V29.0411L146.747 29.0277Z" fill="white"/>
</g>
<defs>
<clipPath id="clip0_33_3525">
<rect width="167" height="30" fill="white"/>
</clipPath>
</defs>
</svg>
