<svg width="2235" height="1440" viewBox="0 0 2235 1440" fill="none" xmlns="http://www.w3.org/2000/svg">
<path d="M12.6277 6.30827L6.31385 6.80629e-05L0 6.30827L6.31385 12.6165L12.6277 6.30827Z" fill="#C4D0E8"/>
<path d="M91.9981 6.30827L85.6842 6.80629e-05L79.3704 6.30827L85.6842 12.6165L91.9981 6.30827Z" fill="#C4D0E8"/>
<path d="M171.368 6.30827L165.054 6.80629e-05L158.74 6.30827L165.054 12.6165L171.368 6.30827Z" fill="#C4D0E8"/>
<path d="M250.738 6.30827L244.424 6.80629e-05L238.11 6.30827L244.424 12.6165L250.738 6.30827Z" fill="#C4D0E8"/>
<path d="M330.108 6.30827L323.795 6.80629e-05L317.481 6.30827L323.795 12.6165L330.108 6.30827Z" fill="#C4D0E8"/>
<path d="M409.478 6.30827L403.164 6.80629e-05L396.85 6.30827L403.164 12.6165L409.478 6.30827Z" fill="#C4D0E8"/>
<path d="M488.848 6.30827L482.534 6.80629e-05L476.221 6.30827L482.534 12.6165L488.848 6.30827Z" fill="#C4D0E8"/>
<path d="M568.218 6.30827L561.904 6.80629e-05L555.59 6.30827L561.904 12.6165L568.218 6.30827Z" fill="#C4D0E8"/>
<path d="M647.588 6.30827L641.274 6.80629e-05L634.961 6.30827L641.274 12.6165L647.588 6.30827Z" fill="#C4D0E8"/>
<path d="M726.959 6.30827L720.645 6.80629e-05L714.331 6.30827L720.645 12.6165L726.959 6.30827Z" fill="#C4D0E8"/>
<path d="M806.328 6.30827L800.014 6.80629e-05L793.701 6.30827L800.014 12.6165L806.328 6.30827Z" fill="#C4D0E8"/>
<path d="M885.699 6.30827L879.385 6.80629e-05L873.071 6.30827L879.385 12.6165L885.699 6.30827Z" fill="#C4D0E8"/>
<path d="M965.069 6.30827L958.755 6.80629e-05L952.441 6.30827L958.755 12.6165L965.069 6.30827Z" fill="#C4D0E8"/>
<path d="M1044.44 6.30827L1038.12 6.80629e-05L1031.81 6.30827L1038.12 12.6165L1044.44 6.30827Z" fill="#C4D0E8"/>
<path d="M1123.81 6.30827L1117.5 6.80629e-05L1111.18 6.30827L1117.5 12.6165L1123.81 6.30827Z" fill="#C4D0E8"/>
<path d="M1203.18 6.30827L1196.86 6.80629e-05L1190.55 6.30827L1196.86 12.6165L1203.18 6.30827Z" fill="#C4D0E8"/>
<path d="M1282.55 6.30827L1276.24 6.80629e-05L1269.92 6.30827L1276.24 12.6165L1282.55 6.30827Z" fill="#C4D0E8"/>
<path d="M1361.92 6.30827L1355.6 6.80629e-05L1349.29 6.30827L1355.6 12.6165L1361.92 6.30827Z" fill="#C4D0E8"/>
<path d="M1441.29 6.30827L1434.97 6.80629e-05L1428.66 6.30827L1434.97 12.6165L1441.29 6.30827Z" fill="#C4D0E8"/>
<path d="M12.6277 85.6076L6.31385 79.2994L0 85.6076L6.31385 91.9158L12.6277 85.6076Z" fill="#C4D0E8"/>
<path d="M91.9981 85.6076L85.6842 79.2994L79.3704 85.6076L85.6842 91.9158L91.9981 85.6076Z" fill="#C4D0E8"/>
<path d="M171.368 85.6076L165.054 79.2994L158.74 85.6076L165.054 91.9158L171.368 85.6076Z" fill="#C4D0E8"/>
<path d="M250.738 85.6076L244.424 79.2994L238.11 85.6076L244.424 91.9158L250.738 85.6076Z" fill="#C4D0E8"/>
<path d="M330.108 85.6076L323.795 79.2994L317.481 85.6076L323.795 91.9158L330.108 85.6076Z" fill="#C4D0E8"/>
<path d="M409.478 85.6076L403.164 79.2994L396.85 85.6076L403.164 91.9158L409.478 85.6076Z" fill="#C4D0E8"/>
<path d="M488.848 85.6076L482.534 79.2994L476.221 85.6076L482.534 91.9158L488.848 85.6076Z" fill="#C4D0E8"/>
<path d="M568.218 85.6076L561.904 79.2994L555.59 85.6076L561.904 91.9158L568.218 85.6076Z" fill="#C4D0E8"/>
<path d="M647.588 85.6076L641.274 79.2994L634.961 85.6076L641.274 91.9158L647.588 85.6076Z" fill="#C4D0E8"/>
<path d="M726.959 85.6076L720.645 79.2994L714.331 85.6076L720.645 91.9158L726.959 85.6076Z" fill="#C4D0E8"/>
<path d="M806.328 85.6076L800.014 79.2994L793.701 85.6076L800.014 91.9158L806.328 85.6076Z" fill="#C4D0E8"/>
<path d="M885.699 85.6076L879.385 79.2994L873.071 85.6076L879.385 91.9158L885.699 85.6076Z" fill="#C4D0E8"/>
<path d="M965.069 85.6076L958.755 79.2994L952.441 85.6076L958.755 91.9158L965.069 85.6076Z" fill="#C4D0E8"/>
<path d="M1044.44 85.6076L1038.12 79.2994L1031.81 85.6076L1038.12 91.9158L1044.44 85.6076Z" fill="#C4D0E8"/>
<path d="M1123.81 85.6076L1117.5 79.2994L1111.18 85.6076L1117.5 91.9158L1123.81 85.6076Z" fill="#C4D0E8"/>
<path d="M1203.18 85.6076L1196.86 79.2994L1190.55 85.6076L1196.86 91.9158L1203.18 85.6076Z" fill="#C4D0E8"/>
<path d="M1282.55 85.6076L1276.24 79.2994L1269.92 85.6076L1276.24 91.9158L1282.55 85.6076Z" fill="#C4D0E8"/>
<path d="M1361.92 85.6076L1355.6 79.2994L1349.29 85.6076L1355.6 91.9158L1361.92 85.6076Z" fill="#C4D0E8"/>
<path d="M1441.29 85.6076L1434.97 79.2994L1428.66 85.6076L1434.97 91.9158L1441.29 85.6076Z" fill="#C4D0E8"/>
<path d="M12.6277 164.907L6.31385 158.599L0 164.907L6.31385 171.215L12.6277 164.907Z" fill="#C4D0E8"/>
<path d="M91.9981 164.907L85.6842 158.599L79.3704 164.907L85.6842 171.215L91.9981 164.907Z" fill="#C4D0E8"/>
<path d="M171.368 164.907L165.054 158.599L158.74 164.907L165.054 171.215L171.368 164.907Z" fill="#C4D0E8"/>
<path d="M250.738 164.907L244.424 158.599L238.11 164.907L244.424 171.215L250.738 164.907Z" fill="#C4D0E8"/>
<path d="M330.108 164.907L323.795 158.599L317.481 164.907L323.795 171.215L330.108 164.907Z" fill="#C4D0E8"/>
<path d="M409.478 164.907L403.164 158.599L396.85 164.907L403.164 171.215L409.478 164.907Z" fill="#C4D0E8"/>
<path d="M488.848 164.907L482.534 158.599L476.221 164.907L482.534 171.215L488.848 164.907Z" fill="#C4D0E8"/>
<path d="M568.218 164.907L561.904 158.599L555.59 164.907L561.904 171.215L568.218 164.907Z" fill="#C4D0E8"/>
<path d="M647.588 164.907L641.274 158.599L634.961 164.907L641.274 171.215L647.588 164.907Z" fill="#C4D0E8"/>
<path d="M726.959 164.907L720.645 158.599L714.331 164.907L720.645 171.215L726.959 164.907Z" fill="#C4D0E8"/>
<path d="M806.328 164.907L800.014 158.599L793.701 164.907L800.014 171.215L806.328 164.907Z" fill="#C4D0E8"/>
<path d="M885.699 164.907L879.385 158.599L873.071 164.907L879.385 171.215L885.699 164.907Z" fill="#C4D0E8"/>
<path d="M965.069 164.907L958.755 158.599L952.441 164.907L958.755 171.215L965.069 164.907Z" fill="#C4D0E8"/>
<path d="M12.6277 244.206L6.31385 237.898L0 244.206L6.31385 250.514L12.6277 244.206Z" fill="#C4D0E8"/>
<path d="M91.9981 244.206L85.6842 237.898L79.3704 244.206L85.6842 250.514L91.9981 244.206Z" fill="#C4D0E8"/>
<path d="M171.368 244.206L165.054 237.898L158.74 244.206L165.054 250.514L171.368 244.206Z" fill="#C4D0E8"/>
<path d="M250.738 244.206L244.424 237.898L238.11 244.206L244.424 250.514L250.738 244.206Z" fill="#C4D0E8"/>
<path d="M330.108 244.206L323.795 237.898L317.481 244.206L323.795 250.514L330.108 244.206Z" fill="#C4D0E8"/>
<path d="M409.478 244.206L403.164 237.898L396.85 244.206L403.164 250.514L409.478 244.206Z" fill="#C4D0E8"/>
<path d="M488.848 244.206L482.534 237.898L476.221 244.206L482.534 250.514L488.848 244.206Z" fill="#C4D0E8"/>
<path d="M568.218 244.206L561.904 237.898L555.59 244.206L561.904 250.514L568.218 244.206Z" fill="#C4D0E8"/>
<path d="M647.588 244.206L641.274 237.898L634.961 244.206L641.274 250.514L647.588 244.206Z" fill="#C4D0E8"/>
<path d="M726.959 244.206L720.645 237.898L714.331 244.206L720.645 250.514L726.959 244.206Z" fill="#C4D0E8"/>
<path d="M806.328 244.206L800.014 237.898L793.701 244.206L800.014 250.514L806.328 244.206Z" fill="#C4D0E8"/>
<path d="M885.699 244.206L879.385 237.898L873.071 244.206L879.385 250.514L885.699 244.206Z" fill="#C4D0E8"/>
<path d="M965.069 244.206L958.755 237.898L952.441 244.206L958.755 250.514L965.069 244.206Z" fill="#C4D0E8"/>
<path d="M12.6277 323.505L6.31385 317.197L0 323.505L6.31385 329.813L12.6277 323.505Z" fill="#C4D0E8"/>
<path d="M91.9981 323.505L85.6842 317.197L79.3704 323.505L85.6842 329.813L91.9981 323.505Z" fill="#C4D0E8"/>
<path d="M171.368 323.505L165.054 317.197L158.74 323.505L165.054 329.813L171.368 323.505Z" fill="#C4D0E8"/>
<path d="M250.738 323.505L244.424 317.197L238.11 323.505L244.424 329.813L250.738 323.505Z" fill="#C4D0E8"/>
<path d="M330.108 323.505L323.795 317.197L317.481 323.505L323.795 329.813L330.108 323.505Z" fill="#C4D0E8"/>
<path d="M409.478 323.505L403.164 317.197L396.85 323.505L403.164 329.813L409.478 323.505Z" fill="#C4D0E8"/>
<path d="M488.848 323.505L482.534 317.197L476.221 323.505L482.534 329.813L488.848 323.505Z" fill="#C4D0E8"/>
<path d="M568.218 323.505L561.904 317.197L555.59 323.505L561.904 329.813L568.218 323.505Z" fill="#C4D0E8"/>
<path d="M647.588 323.505L641.274 317.197L634.961 323.505L641.274 329.813L647.588 323.505Z" fill="#C4D0E8"/>
<path d="M726.959 323.505L720.645 317.197L714.331 323.505L720.645 329.813L726.959 323.505Z" fill="#C4D0E8"/>
<path d="M806.328 323.505L800.014 317.197L793.701 323.505L800.014 329.813L806.328 323.505Z" fill="#C4D0E8"/>
<path d="M885.699 323.505L879.385 317.197L873.071 323.505L879.385 329.813L885.699 323.505Z" fill="#C4D0E8"/>
<path d="M965.069 323.505L958.755 317.197L952.441 323.505L958.755 329.813L965.069 323.505Z" fill="#C4D0E8"/>
<path d="M1044.44 323.505L1038.12 317.197L1031.81 323.505L1038.12 329.813L1044.44 323.505Z" fill="#C4D0E8"/>
<path d="M1123.81 323.505L1117.5 317.197L1111.18 323.505L1117.5 329.813L1123.81 323.505Z" fill="#C4D0E8"/>
<path d="M1203.18 323.505L1196.86 317.197L1190.55 323.505L1196.86 329.813L1203.18 323.505Z" fill="#C4D0E8"/>
<path d="M1282.55 323.505L1276.24 317.197L1269.92 323.505L1276.24 329.813L1282.55 323.505Z" fill="#C4D0E8"/>
<path d="M1361.92 323.505L1355.6 317.197L1349.29 323.505L1355.6 329.813L1361.92 323.505Z" fill="#C4D0E8"/>
<path d="M1441.29 323.505L1434.97 317.197L1428.66 323.505L1434.97 329.813L1441.29 323.505Z" fill="#C4D0E8"/>
<path d="M12.6277 402.804L6.31385 396.496L0 402.804L6.31385 409.112L12.6277 402.804Z" fill="#C4D0E8"/>
<path d="M91.9981 402.804L85.6842 396.496L79.3704 402.804L85.6842 409.112L91.9981 402.804Z" fill="#C4D0E8"/>
<path d="M171.368 402.804L165.054 396.496L158.74 402.804L165.054 409.112L171.368 402.804Z" fill="#C4D0E8"/>
<path d="M250.738 402.804L244.424 396.496L238.11 402.804L244.424 409.112L250.738 402.804Z" fill="#C4D0E8"/>
<path d="M330.108 402.804L323.795 396.496L317.481 402.804L323.795 409.112L330.108 402.804Z" fill="#C4D0E8"/>
<path d="M409.478 402.804L403.164 396.496L396.85 402.804L403.164 409.112L409.478 402.804Z" fill="#C4D0E8"/>
<path d="M488.848 402.804L482.534 396.496L476.221 402.804L482.534 409.112L488.848 402.804Z" fill="#C4D0E8"/>
<path d="M568.218 402.804L561.904 396.496L555.59 402.804L561.904 409.112L568.218 402.804Z" fill="#C4D0E8"/>
<path d="M647.588 402.804L641.274 396.496L634.961 402.804L641.274 409.112L647.588 402.804Z" fill="#C4D0E8"/>
<path d="M726.959 402.804L720.645 396.496L714.331 402.804L720.645 409.112L726.959 402.804Z" fill="#C4D0E8"/>
<path d="M806.328 402.804L800.014 396.496L793.701 402.804L800.014 409.112L806.328 402.804Z" fill="#C4D0E8"/>
<path d="M885.699 402.804L879.385 396.496L873.071 402.804L879.385 409.112L885.699 402.804Z" fill="#C4D0E8"/>
<path d="M965.069 402.804L958.755 396.496L952.441 402.804L958.755 409.112L965.069 402.804Z" fill="#C4D0E8"/>
<path d="M1044.44 402.804L1038.12 396.496L1031.81 402.804L1038.12 409.112L1044.44 402.804Z" fill="#C4D0E8"/>
<path d="M1123.81 402.804L1117.5 396.496L1111.18 402.804L1117.5 409.112L1123.81 402.804Z" fill="#C4D0E8"/>
<path d="M1203.18 402.804L1196.86 396.496L1190.55 402.804L1196.86 409.112L1203.18 402.804Z" fill="#C4D0E8"/>
<path d="M1282.55 402.804L1276.24 396.496L1269.92 402.804L1276.24 409.112L1282.55 402.804Z" fill="#C4D0E8"/>
<path d="M1361.92 402.804L1355.6 396.496L1349.29 402.804L1355.6 409.112L1361.92 402.804Z" fill="#C4D0E8"/>
<path d="M1441.29 402.804L1434.97 396.496L1428.66 402.804L1434.97 409.112L1441.29 402.804Z" fill="#C4D0E8"/>
<path d="M12.6277 482.103L6.31385 475.795L0 482.103L6.31385 488.412L12.6277 482.103Z" fill="#C4D0E8"/>
<path d="M91.9981 482.103L85.6842 475.795L79.3704 482.103L85.6842 488.412L91.9981 482.103Z" fill="#C4D0E8"/>
<path d="M171.368 482.103L165.054 475.795L158.74 482.103L165.054 488.412L171.368 482.103Z" fill="#C4D0E8"/>
<path d="M250.738 482.103L244.424 475.795L238.11 482.103L244.424 488.412L250.738 482.103Z" fill="#C4D0E8"/>
<path d="M330.108 482.103L323.795 475.795L317.481 482.103L323.795 488.412L330.108 482.103Z" fill="#C4D0E8"/>
<path d="M409.478 482.103L403.164 475.795L396.85 482.103L403.164 488.412L409.478 482.103Z" fill="#C4D0E8"/>
<path d="M488.848 482.103L482.534 475.795L476.221 482.103L482.534 488.412L488.848 482.103Z" fill="#C4D0E8"/>
<path d="M568.218 482.103L561.904 475.795L555.59 482.103L561.904 488.412L568.218 482.103Z" fill="#C4D0E8"/>
<path d="M647.588 482.103L641.274 475.795L634.961 482.103L641.274 488.412L647.588 482.103Z" fill="#C4D0E8"/>
<path d="M726.959 482.103L720.645 475.795L714.331 482.103L720.645 488.412L726.959 482.103Z" fill="#C4D0E8"/>
<path d="M806.328 482.103L800.014 475.795L793.701 482.103L800.014 488.412L806.328 482.103Z" fill="#C4D0E8"/>
<path d="M885.699 482.103L879.385 475.795L873.071 482.103L879.385 488.412L885.699 482.103Z" fill="#C4D0E8"/>
<path d="M965.069 482.103L958.755 475.795L952.441 482.103L958.755 488.412L965.069 482.103Z" fill="#C4D0E8"/>
<path d="M1044.44 482.103L1038.12 475.795L1031.81 482.103L1038.12 488.412L1044.44 482.103Z" fill="#C4D0E8"/>
<path d="M1123.81 482.103L1117.5 475.795L1111.18 482.103L1117.5 488.412L1123.81 482.103Z" fill="#C4D0E8"/>
<path d="M1203.18 482.103L1196.86 475.795L1190.55 482.103L1196.86 488.412L1203.18 482.103Z" fill="#C4D0E8"/>
<path d="M1282.55 482.103L1276.24 475.795L1269.92 482.103L1276.24 488.412L1282.55 482.103Z" fill="#C4D0E8"/>
<path d="M1361.92 482.103L1355.6 475.795L1349.29 482.103L1355.6 488.412L1361.92 482.103Z" fill="#C4D0E8"/>
<path d="M1441.29 482.103L1434.97 475.795L1428.66 482.103L1434.97 488.412L1441.29 482.103Z" fill="#C4D0E8"/>
<path d="M12.6277 561.401L6.31385 555.093L0 561.401L6.31385 567.709L12.6277 561.401Z" fill="#C4D0E8"/>
<path d="M91.9981 561.401L85.6842 555.093L79.3704 561.401L85.6842 567.709L91.9981 561.401Z" fill="#C4D0E8"/>
<path d="M171.368 561.401L165.054 555.093L158.74 561.401L165.054 567.709L171.368 561.401Z" fill="#C4D0E8"/>
<path d="M250.738 561.401L244.424 555.093L238.11 561.401L244.424 567.709L250.738 561.401Z" fill="#C4D0E8"/>
<path d="M330.108 561.401L323.795 555.093L317.481 561.401L323.795 567.709L330.108 561.401Z" fill="#C4D0E8"/>
<path d="M409.478 561.401L403.164 555.093L396.85 561.401L403.164 567.709L409.478 561.401Z" fill="#C4D0E8"/>
<path d="M488.848 561.401L482.534 555.093L476.221 561.401L482.534 567.709L488.848 561.401Z" fill="#C4D0E8"/>
<path d="M568.218 561.401L561.904 555.093L555.59 561.401L561.904 567.709L568.218 561.401Z" fill="#C4D0E8"/>
<path d="M647.588 561.401L641.274 555.093L634.961 561.401L641.274 567.709L647.588 561.401Z" fill="#C4D0E8"/>
<path d="M726.959 561.401L720.645 555.093L714.331 561.401L720.645 567.709L726.959 561.401Z" fill="#C4D0E8"/>
<path d="M806.328 561.401L800.014 555.093L793.701 561.401L800.014 567.709L806.328 561.401Z" fill="#C4D0E8"/>
<path d="M885.699 561.401L879.385 555.093L873.071 561.401L879.385 567.709L885.699 561.401Z" fill="#C4D0E8"/>
<path d="M965.069 561.401L958.755 555.093L952.441 561.401L958.755 567.709L965.069 561.401Z" fill="#C4D0E8"/>
<path d="M1044.44 561.401L1038.12 555.093L1031.81 561.401L1038.12 567.709L1044.44 561.401Z" fill="#C4D0E8"/>
<path d="M1123.81 561.401L1117.5 555.093L1111.18 561.401L1117.5 567.709L1123.81 561.401Z" fill="#C4D0E8"/>
<path d="M1203.18 561.401L1196.86 555.093L1190.55 561.401L1196.86 567.709L1203.18 561.401Z" fill="#C4D0E8"/>
<path d="M1282.55 561.401L1276.24 555.093L1269.92 561.401L1276.24 567.709L1282.55 561.401Z" fill="#C4D0E8"/>
<path d="M1361.92 561.401L1355.6 555.093L1349.29 561.401L1355.6 567.709L1361.92 561.401Z" fill="#C4D0E8"/>
<path d="M1441.29 561.401L1434.97 555.093L1428.66 561.401L1434.97 567.709L1441.29 561.401Z" fill="#C4D0E8"/>
<path d="M12.6277 640.701L6.31385 634.393L0 640.701L6.31385 647.009L12.6277 640.701Z" fill="#C4D0E8"/>
<path d="M91.9981 640.701L85.6842 634.393L79.3704 640.701L85.6842 647.009L91.9981 640.701Z" fill="#C4D0E8"/>
<path d="M171.368 640.701L165.054 634.393L158.74 640.701L165.054 647.009L171.368 640.701Z" fill="#C4D0E8"/>
<path d="M250.738 640.701L244.424 634.393L238.11 640.701L244.424 647.009L250.738 640.701Z" fill="#C4D0E8"/>
<path d="M330.108 640.701L323.795 634.393L317.481 640.701L323.795 647.009L330.108 640.701Z" fill="#C4D0E8"/>
<path d="M409.478 640.701L403.164 634.393L396.85 640.701L403.164 647.009L409.478 640.701Z" fill="#C4D0E8"/>
<path d="M488.848 640.701L482.534 634.393L476.221 640.701L482.534 647.009L488.848 640.701Z" fill="#C4D0E8"/>
<path d="M568.218 640.701L561.904 634.393L555.59 640.701L561.904 647.009L568.218 640.701Z" fill="#C4D0E8"/>
<path d="M647.588 640.701L641.274 634.393L634.961 640.701L641.274 647.009L647.588 640.701Z" fill="#C4D0E8"/>
<path d="M726.959 640.701L720.645 634.393L714.331 640.701L720.645 647.009L726.959 640.701Z" fill="#C4D0E8"/>
<path d="M806.328 640.701L800.014 634.393L793.701 640.701L800.014 647.009L806.328 640.701Z" fill="#C4D0E8"/>
<path d="M885.699 640.701L879.385 634.393L873.071 640.701L879.385 647.009L885.699 640.701Z" fill="#C4D0E8"/>
<path d="M965.069 640.701L958.755 634.393L952.441 640.701L958.755 647.009L965.069 640.701Z" fill="#C4D0E8"/>
<path d="M1044.44 640.701L1038.12 634.393L1031.81 640.701L1038.12 647.009L1044.44 640.701Z" fill="#C4D0E8"/>
<path d="M1123.81 640.701L1117.5 634.393L1111.18 640.701L1117.5 647.009L1123.81 640.701Z" fill="#C4D0E8"/>
<path d="M1203.18 640.701L1196.86 634.393L1190.55 640.701L1196.86 647.009L1203.18 640.701Z" fill="#C4D0E8"/>
<path d="M1282.55 640.701L1276.24 634.393L1269.92 640.701L1276.24 647.009L1282.55 640.701Z" fill="#C4D0E8"/>
<path d="M1361.92 640.701L1355.6 634.393L1349.29 640.701L1355.6 647.009L1361.92 640.701Z" fill="#C4D0E8"/>
<path d="M1441.29 640.701L1434.97 634.393L1428.66 640.701L1434.97 647.009L1441.29 640.701Z" fill="#C4D0E8"/>
<path d="M12.6277 720.001L6.31385 713.692L0 720.001L6.31385 726.309L12.6277 720.001Z" fill="#C4D0E8"/>
<path d="M91.9981 720.001L85.6842 713.692L79.3704 720.001L85.6842 726.309L91.9981 720.001Z" fill="#C4D0E8"/>
<path d="M171.368 720.001L165.054 713.692L158.74 720.001L165.054 726.309L171.368 720.001Z" fill="#C4D0E8"/>
<path d="M250.738 720.001L244.424 713.692L238.11 720.001L244.424 726.309L250.738 720.001Z" fill="#C4D0E8"/>
<path d="M330.108 720.001L323.795 713.692L317.481 720.001L323.795 726.309L330.108 720.001Z" fill="#C4D0E8"/>
<path d="M409.478 720.001L403.164 713.692L396.85 720.001L403.164 726.309L409.478 720.001Z" fill="#C4D0E8"/>
<path d="M488.848 720.001L482.534 713.692L476.221 720.001L482.534 726.309L488.848 720.001Z" fill="#C4D0E8"/>
<path d="M568.218 720.001L561.904 713.692L555.59 720.001L561.904 726.309L568.218 720.001Z" fill="#C4D0E8"/>
<path d="M647.588 720.001L641.274 713.692L634.961 720.001L641.274 726.309L647.588 720.001Z" fill="#C4D0E8"/>
<path d="M726.959 720.001L720.645 713.692L714.331 720.001L720.645 726.309L726.959 720.001Z" fill="#C4D0E8"/>
<path d="M806.328 720.001L800.014 713.692L793.701 720.001L800.014 726.309L806.328 720.001Z" fill="#C4D0E8"/>
<path d="M885.699 720.001L879.385 713.692L873.071 720.001L879.385 726.309L885.699 720.001Z" fill="#C4D0E8"/>
<path d="M965.069 720.001L958.755 713.692L952.441 720.001L958.755 726.309L965.069 720.001Z" fill="#C4D0E8"/>
<path d="M1044.44 720.001L1038.12 713.692L1031.81 720.001L1038.12 726.309L1044.44 720.001Z" fill="#C4D0E8"/>
<path d="M1123.81 720.001L1117.5 713.692L1111.18 720.001L1117.5 726.309L1123.81 720.001Z" fill="#C4D0E8"/>
<path d="M1203.18 720.001L1196.86 713.692L1190.55 720.001L1196.86 726.309L1203.18 720.001Z" fill="#C4D0E8"/>
<path d="M1282.55 720.001L1276.24 713.692L1269.92 720.001L1276.24 726.309L1282.55 720.001Z" fill="#C4D0E8"/>
<path d="M1361.92 720.001L1355.6 713.692L1349.29 720.001L1355.6 726.309L1361.92 720.001Z" fill="#C4D0E8"/>
<path d="M1441.29 720.001L1434.97 713.692L1428.66 720.001L1434.97 726.309L1441.29 720.001Z" fill="#C4D0E8"/>
<path d="M12.6277 799.299L6.31385 792.991L0 799.299L6.31385 805.607L12.6277 799.299Z" fill="#C4D0E8"/>
<path d="M91.9981 799.299L85.6842 792.991L79.3704 799.299L85.6842 805.607L91.9981 799.299Z" fill="#C4D0E8"/>
<path d="M171.368 799.299L165.054 792.991L158.74 799.299L165.054 805.607L171.368 799.299Z" fill="#C4D0E8"/>
<path d="M250.738 799.299L244.424 792.991L238.11 799.299L244.424 805.607L250.738 799.299Z" fill="#C4D0E8"/>
<path d="M330.108 799.299L323.795 792.991L317.481 799.299L323.795 805.607L330.108 799.299Z" fill="#C4D0E8"/>
<path d="M409.478 799.299L403.164 792.991L396.85 799.299L403.164 805.607L409.478 799.299Z" fill="#C4D0E8"/>
<path d="M488.848 799.299L482.534 792.991L476.221 799.299L482.534 805.607L488.848 799.299Z" fill="#C4D0E8"/>
<path d="M568.218 799.299L561.904 792.991L555.59 799.299L561.904 805.607L568.218 799.299Z" fill="#C4D0E8"/>
<path d="M647.588 799.299L641.274 792.991L634.961 799.299L641.274 805.607L647.588 799.299Z" fill="#C4D0E8"/>
<path d="M726.959 799.299L720.645 792.991L714.331 799.299L720.645 805.607L726.959 799.299Z" fill="#C4D0E8"/>
<path d="M806.328 799.299L800.014 792.991L793.701 799.299L800.014 805.607L806.328 799.299Z" fill="#C4D0E8"/>
<path d="M885.699 799.299L879.385 792.991L873.071 799.299L879.385 805.607L885.699 799.299Z" fill="#C4D0E8"/>
<path d="M965.069 799.299L958.755 792.991L952.441 799.299L958.755 805.607L965.069 799.299Z" fill="#C4D0E8"/>
<path d="M1044.44 799.299L1038.12 792.991L1031.81 799.299L1038.12 805.607L1044.44 799.299Z" fill="#C4D0E8"/>
<path d="M1123.81 799.299L1117.5 792.991L1111.18 799.299L1117.5 805.607L1123.81 799.299Z" fill="#C4D0E8"/>
<path d="M1203.18 799.299L1196.86 792.991L1190.55 799.299L1196.86 805.607L1203.18 799.299Z" fill="#C4D0E8"/>
<path d="M1282.55 799.299L1276.24 792.991L1269.92 799.299L1276.24 805.607L1282.55 799.299Z" fill="#C4D0E8"/>
<path d="M1361.92 799.299L1355.6 792.991L1349.29 799.299L1355.6 805.607L1361.92 799.299Z" fill="#C4D0E8"/>
<path d="M1441.29 799.299L1434.97 792.991L1428.66 799.299L1434.97 805.607L1441.29 799.299Z" fill="#C4D0E8"/>
<path d="M12.6277 878.597L6.31385 872.289L0 878.597L6.31385 884.906L12.6277 878.597Z" fill="#C4D0E8"/>
<path d="M91.9981 878.597L85.6842 872.289L79.3704 878.597L85.6842 884.906L91.9981 878.597Z" fill="#C4D0E8"/>
<path d="M171.368 878.597L165.054 872.289L158.74 878.597L165.054 884.906L171.368 878.597Z" fill="#C4D0E8"/>
<path d="M250.738 878.597L244.424 872.289L238.11 878.597L244.424 884.906L250.738 878.597Z" fill="#C4D0E8"/>
<path d="M330.108 878.597L323.795 872.289L317.481 878.597L323.795 884.906L330.108 878.597Z" fill="#C4D0E8"/>
<path d="M409.478 878.597L403.164 872.289L396.85 878.597L403.164 884.906L409.478 878.597Z" fill="#C4D0E8"/>
<path d="M488.848 878.597L482.534 872.289L476.221 878.597L482.534 884.906L488.848 878.597Z" fill="#C4D0E8"/>
<path d="M568.218 878.597L561.904 872.289L555.59 878.597L561.904 884.906L568.218 878.597Z" fill="#C4D0E8"/>
<path d="M647.588 878.597L641.274 872.289L634.961 878.597L641.274 884.906L647.588 878.597Z" fill="#C4D0E8"/>
<path d="M726.959 878.597L720.645 872.289L714.331 878.597L720.645 884.906L726.959 878.597Z" fill="#C4D0E8"/>
<path d="M806.328 878.597L800.014 872.289L793.701 878.597L800.014 884.906L806.328 878.597Z" fill="#C4D0E8"/>
<path d="M885.699 878.597L879.385 872.289L873.071 878.597L879.385 884.906L885.699 878.597Z" fill="#C4D0E8"/>
<path d="M965.069 878.597L958.755 872.289L952.441 878.597L958.755 884.906L965.069 878.597Z" fill="#C4D0E8"/>
<path d="M1044.44 878.597L1038.12 872.289L1031.81 878.597L1038.12 884.906L1044.44 878.597Z" fill="#C4D0E8"/>
<path d="M1123.81 878.597L1117.5 872.289L1111.18 878.597L1117.5 884.906L1123.81 878.597Z" fill="#C4D0E8"/>
<path d="M1203.18 878.597L1196.86 872.289L1190.55 878.597L1196.86 884.906L1203.18 878.597Z" fill="#C4D0E8"/>
<path d="M1282.55 878.597L1276.24 872.289L1269.92 878.597L1276.24 884.906L1282.55 878.597Z" fill="#C4D0E8"/>
<path d="M1361.92 878.597L1355.6 872.289L1349.29 878.597L1355.6 884.906L1361.92 878.597Z" fill="#C4D0E8"/>
<path d="M1441.29 878.597L1434.97 872.289L1428.66 878.597L1434.97 884.906L1441.29 878.597Z" fill="#C4D0E8"/>
<path d="M12.6277 957.898L6.31385 951.59L0 957.898L6.31385 964.206L12.6277 957.898Z" fill="#C4D0E8"/>
<path d="M91.9981 957.898L85.6842 951.59L79.3704 957.898L85.6842 964.206L91.9981 957.898Z" fill="#C4D0E8"/>
<path d="M171.368 957.898L165.054 951.59L158.74 957.898L165.054 964.206L171.368 957.898Z" fill="#C4D0E8"/>
<path d="M250.738 957.898L244.424 951.59L238.11 957.898L244.424 964.206L250.738 957.898Z" fill="#C4D0E8"/>
<path d="M330.108 957.898L323.795 951.59L317.481 957.898L323.795 964.206L330.108 957.898Z" fill="#C4D0E8"/>
<path d="M409.478 957.898L403.164 951.59L396.85 957.898L403.164 964.206L409.478 957.898Z" fill="#C4D0E8"/>
<path d="M488.848 957.898L482.534 951.59L476.221 957.898L482.534 964.206L488.848 957.898Z" fill="#C4D0E8"/>
<path d="M568.218 957.898L561.904 951.59L555.59 957.898L561.904 964.206L568.218 957.898Z" fill="#C4D0E8"/>
<path d="M647.588 957.898L641.274 951.59L634.961 957.898L641.274 964.206L647.588 957.898Z" fill="#C4D0E8"/>
<path d="M726.959 957.898L720.645 951.59L714.331 957.898L720.645 964.206L726.959 957.898Z" fill="#C4D0E8"/>
<path d="M806.328 957.898L800.014 951.59L793.701 957.898L800.014 964.206L806.328 957.898Z" fill="#C4D0E8"/>
<path d="M885.699 957.898L879.385 951.59L873.071 957.898L879.385 964.206L885.699 957.898Z" fill="#C4D0E8"/>
<path d="M965.069 957.898L958.755 951.59L952.441 957.898L958.755 964.206L965.069 957.898Z" fill="#C4D0E8"/>
<path d="M1044.44 957.898L1038.12 951.59L1031.81 957.898L1038.12 964.206L1044.44 957.898Z" fill="#C4D0E8"/>
<path d="M1123.81 957.898L1117.5 951.59L1111.18 957.898L1117.5 964.206L1123.81 957.898Z" fill="#C4D0E8"/>
<path d="M1203.18 957.898L1196.86 951.59L1190.55 957.898L1196.86 964.206L1203.18 957.898Z" fill="#C4D0E8"/>
<path d="M1282.55 957.898L1276.24 951.59L1269.92 957.898L1276.24 964.206L1282.55 957.898Z" fill="#C4D0E8"/>
<path d="M1361.92 957.898L1355.6 951.59L1349.29 957.898L1355.6 964.206L1361.92 957.898Z" fill="#C4D0E8"/>
<path d="M1441.29 957.898L1434.97 951.59L1428.66 957.898L1434.97 964.206L1441.29 957.898Z" fill="#C4D0E8"/>
<path d="M12.6277 1037.2L6.31385 1030.89L0 1037.2L6.31385 1043.5L12.6277 1037.2Z" fill="#C4D0E8"/>
<path d="M91.9981 1037.2L85.6842 1030.89L79.3704 1037.2L85.6842 1043.5L91.9981 1037.2Z" fill="#C4D0E8"/>
<path d="M171.368 1037.2L165.054 1030.89L158.74 1037.2L165.054 1043.5L171.368 1037.2Z" fill="#C4D0E8"/>
<path d="M250.738 1037.2L244.424 1030.89L238.11 1037.2L244.424 1043.5L250.738 1037.2Z" fill="#C4D0E8"/>
<path d="M330.108 1037.2L323.795 1030.89L317.481 1037.2L323.795 1043.5L330.108 1037.2Z" fill="#C4D0E8"/>
<path d="M409.478 1037.2L403.164 1030.89L396.85 1037.2L403.164 1043.5L409.478 1037.2Z" fill="#C4D0E8"/>
<path d="M488.848 1037.2L482.534 1030.89L476.221 1037.2L482.534 1043.5L488.848 1037.2Z" fill="#C4D0E8"/>
<path d="M568.218 1037.2L561.904 1030.89L555.59 1037.2L561.904 1043.5L568.218 1037.2Z" fill="#C4D0E8"/>
<path d="M647.588 1037.2L641.274 1030.89L634.961 1037.2L641.274 1043.5L647.588 1037.2Z" fill="#C4D0E8"/>
<path d="M726.959 1037.2L720.645 1030.89L714.331 1037.2L720.645 1043.5L726.959 1037.2Z" fill="#C4D0E8"/>
<path d="M806.328 1037.2L800.014 1030.89L793.701 1037.2L800.014 1043.5L806.328 1037.2Z" fill="#C4D0E8"/>
<path d="M885.699 1037.2L879.385 1030.89L873.071 1037.2L879.385 1043.5L885.699 1037.2Z" fill="#C4D0E8"/>
<path d="M965.069 1037.2L958.755 1030.89L952.441 1037.2L958.755 1043.5L965.069 1037.2Z" fill="#C4D0E8"/>
<path d="M1044.44 1037.2L1038.12 1030.89L1031.81 1037.2L1038.12 1043.5L1044.44 1037.2Z" fill="#C4D0E8"/>
<path d="M1123.81 1037.2L1117.5 1030.89L1111.18 1037.2L1117.5 1043.5L1123.81 1037.2Z" fill="#C4D0E8"/>
<path d="M1203.18 1037.2L1196.86 1030.89L1190.55 1037.2L1196.86 1043.5L1203.18 1037.2Z" fill="#C4D0E8"/>
<path d="M1282.55 1037.2L1276.24 1030.89L1269.92 1037.2L1276.24 1043.5L1282.55 1037.2Z" fill="#C4D0E8"/>
<path d="M1361.92 1037.2L1355.6 1030.89L1349.29 1037.2L1355.6 1043.5L1361.92 1037.2Z" fill="#C4D0E8"/>
<path d="M1441.29 1037.2L1434.97 1030.89L1428.66 1037.2L1434.97 1043.5L1441.29 1037.2Z" fill="#C4D0E8"/>
<path d="M12.6277 1116.49L6.31385 1110.19L0 1116.49L6.31385 1122.8L12.6277 1116.49Z" fill="#C4D0E8"/>
<path d="M91.9981 1116.49L85.6842 1110.19L79.3704 1116.49L85.6842 1122.8L91.9981 1116.49Z" fill="#C4D0E8"/>
<path d="M171.368 1116.49L165.054 1110.19L158.74 1116.49L165.054 1122.8L171.368 1116.49Z" fill="#C4D0E8"/>
<path d="M250.738 1116.49L244.424 1110.19L238.11 1116.49L244.424 1122.8L250.738 1116.49Z" fill="#C4D0E8"/>
<path d="M330.108 1116.49L323.795 1110.19L317.481 1116.49L323.795 1122.8L330.108 1116.49Z" fill="#C4D0E8"/>
<path d="M409.478 1116.49L403.164 1110.19L396.85 1116.49L403.164 1122.8L409.478 1116.49Z" fill="#C4D0E8"/>
<path d="M488.848 1116.49L482.534 1110.19L476.221 1116.49L482.534 1122.8L488.848 1116.49Z" fill="#C4D0E8"/>
<path d="M568.218 1116.49L561.904 1110.19L555.59 1116.49L561.904 1122.8L568.218 1116.49Z" fill="#C4D0E8"/>
<path d="M647.588 1116.49L641.274 1110.19L634.961 1116.49L641.274 1122.8L647.588 1116.49Z" fill="#C4D0E8"/>
<path d="M726.959 1116.49L720.645 1110.19L714.331 1116.49L720.645 1122.8L726.959 1116.49Z" fill="#C4D0E8"/>
<path d="M806.328 1116.49L800.014 1110.19L793.701 1116.49L800.014 1122.8L806.328 1116.49Z" fill="#C4D0E8"/>
<path d="M885.699 1116.49L879.385 1110.19L873.071 1116.49L879.385 1122.8L885.699 1116.49Z" fill="#C4D0E8"/>
<path d="M965.069 1116.49L958.755 1110.19L952.441 1116.49L958.755 1122.8L965.069 1116.49Z" fill="#C4D0E8"/>
<path d="M1044.44 1116.49L1038.12 1110.19L1031.81 1116.49L1038.12 1122.8L1044.44 1116.49Z" fill="#C4D0E8"/>
<path d="M1123.81 1116.49L1117.5 1110.19L1111.18 1116.49L1117.5 1122.8L1123.81 1116.49Z" fill="#C4D0E8"/>
<path d="M1203.18 1116.49L1196.86 1110.19L1190.55 1116.49L1196.86 1122.8L1203.18 1116.49Z" fill="#C4D0E8"/>
<path d="M1282.55 1116.49L1276.24 1110.19L1269.92 1116.49L1276.24 1122.8L1282.55 1116.49Z" fill="#C4D0E8"/>
<path d="M1361.92 1116.49L1355.6 1110.19L1349.29 1116.49L1355.6 1122.8L1361.92 1116.49Z" fill="#C4D0E8"/>
<path d="M1441.29 1116.49L1434.97 1110.19L1428.66 1116.49L1434.97 1122.8L1441.29 1116.49Z" fill="#C4D0E8"/>
<path d="M12.6277 1195.79L6.31385 1189.49L0 1195.79L6.31385 1202.1L12.6277 1195.79Z" fill="#C4D0E8"/>
<path d="M91.9981 1195.79L85.6842 1189.49L79.3704 1195.79L85.6842 1202.1L91.9981 1195.79Z" fill="#C4D0E8"/>
<path d="M171.368 1195.79L165.054 1189.49L158.74 1195.79L165.054 1202.1L171.368 1195.79Z" fill="#C4D0E8"/>
<path d="M250.738 1195.79L244.424 1189.49L238.11 1195.79L244.424 1202.1L250.738 1195.79Z" fill="#C4D0E8"/>
<path d="M330.108 1195.79L323.795 1189.49L317.481 1195.79L323.795 1202.1L330.108 1195.79Z" fill="#C4D0E8"/>
<path d="M409.478 1195.79L403.164 1189.49L396.85 1195.79L403.164 1202.1L409.478 1195.79Z" fill="#C4D0E8"/>
<path d="M488.848 1195.79L482.534 1189.49L476.221 1195.79L482.534 1202.1L488.848 1195.79Z" fill="#C4D0E8"/>
<path d="M568.218 1195.79L561.904 1189.49L555.59 1195.79L561.904 1202.1L568.218 1195.79Z" fill="#C4D0E8"/>
<path d="M647.588 1195.79L641.274 1189.49L634.961 1195.79L641.274 1202.1L647.588 1195.79Z" fill="#C4D0E8"/>
<path d="M726.959 1195.79L720.645 1189.49L714.331 1195.79L720.645 1202.1L726.959 1195.79Z" fill="#C4D0E8"/>
<path d="M806.328 1195.79L800.014 1189.49L793.701 1195.79L800.014 1202.1L806.328 1195.79Z" fill="#C4D0E8"/>
<path d="M885.699 1195.79L879.385 1189.49L873.071 1195.79L879.385 1202.1L885.699 1195.79Z" fill="#C4D0E8"/>
<path d="M965.069 1195.79L958.755 1189.49L952.441 1195.79L958.755 1202.1L965.069 1195.79Z" fill="#C4D0E8"/>
<path d="M1044.44 1195.79L1038.12 1189.49L1031.81 1195.79L1038.12 1202.1L1044.44 1195.79Z" fill="#C4D0E8"/>
<path d="M1123.81 1195.79L1117.5 1189.49L1111.18 1195.79L1117.5 1202.1L1123.81 1195.79Z" fill="#C4D0E8"/>
<path d="M1203.18 1195.79L1196.86 1189.49L1190.55 1195.79L1196.86 1202.1L1203.18 1195.79Z" fill="#C4D0E8"/>
<path d="M1282.55 1195.79L1276.24 1189.49L1269.92 1195.79L1276.24 1202.1L1282.55 1195.79Z" fill="#C4D0E8"/>
<path d="M1361.92 1195.79L1355.6 1189.49L1349.29 1195.79L1355.6 1202.1L1361.92 1195.79Z" fill="#C4D0E8"/>
<path d="M1441.29 1195.79L1434.97 1189.49L1428.66 1195.79L1434.97 1202.1L1441.29 1195.79Z" fill="#C4D0E8"/>
<path d="M12.6277 1275.09L6.31385 1268.78L0 1275.09L6.31385 1281.4L12.6277 1275.09Z" fill="#C4D0E8"/>
<path d="M91.9981 1275.09L85.6842 1268.78L79.3704 1275.09L85.6842 1281.4L91.9981 1275.09Z" fill="#C4D0E8"/>
<path d="M171.368 1275.09L165.054 1268.78L158.74 1275.09L165.054 1281.4L171.368 1275.09Z" fill="#C4D0E8"/>
<path d="M250.738 1275.09L244.424 1268.78L238.11 1275.09L244.424 1281.4L250.738 1275.09Z" fill="#C4D0E8"/>
<path d="M330.108 1275.09L323.795 1268.78L317.481 1275.09L323.795 1281.4L330.108 1275.09Z" fill="#C4D0E8"/>
<path d="M409.478 1275.09L403.164 1268.78L396.85 1275.09L403.164 1281.4L409.478 1275.09Z" fill="#C4D0E8"/>
<path d="M488.848 1275.09L482.534 1268.78L476.221 1275.09L482.534 1281.4L488.848 1275.09Z" fill="#C4D0E8"/>
<path d="M568.218 1275.09L561.904 1268.78L555.59 1275.09L561.904 1281.4L568.218 1275.09Z" fill="#C4D0E8"/>
<path d="M647.588 1275.09L641.274 1268.78L634.961 1275.09L641.274 1281.4L647.588 1275.09Z" fill="#C4D0E8"/>
<path d="M726.959 1275.09L720.645 1268.78L714.331 1275.09L720.645 1281.4L726.959 1275.09Z" fill="#C4D0E8"/>
<path d="M806.328 1275.09L800.014 1268.78L793.701 1275.09L800.014 1281.4L806.328 1275.09Z" fill="#C4D0E8"/>
<path d="M885.699 1275.09L879.385 1268.78L873.071 1275.09L879.385 1281.4L885.699 1275.09Z" fill="#C4D0E8"/>
<path d="M965.069 1275.09L958.755 1268.78L952.441 1275.09L958.755 1281.4L965.069 1275.09Z" fill="#C4D0E8"/>
<path d="M1044.44 1275.09L1038.12 1268.78L1031.81 1275.09L1038.12 1281.4L1044.44 1275.09Z" fill="#C4D0E8"/>
<path d="M1123.81 1275.09L1117.5 1268.78L1111.18 1275.09L1117.5 1281.4L1123.81 1275.09Z" fill="#C4D0E8"/>
<path d="M1203.18 1275.09L1196.86 1268.78L1190.55 1275.09L1196.86 1281.4L1203.18 1275.09Z" fill="#C4D0E8"/>
<path d="M1282.55 1275.09L1276.24 1268.78L1269.92 1275.09L1276.24 1281.4L1282.55 1275.09Z" fill="#C4D0E8"/>
<path d="M1361.92 1275.09L1355.6 1268.78L1349.29 1275.09L1355.6 1281.4L1361.92 1275.09Z" fill="#C4D0E8"/>
<path d="M1441.29 1275.09L1434.97 1268.78L1428.66 1275.09L1434.97 1281.4L1441.29 1275.09Z" fill="#C4D0E8"/>
<path d="M12.6277 1354.39L6.31385 1348.08L0 1354.39L6.31385 1360.7L12.6277 1354.39Z" fill="#C4D0E8"/>
<path d="M91.9981 1354.39L85.6842 1348.08L79.3704 1354.39L85.6842 1360.7L91.9981 1354.39Z" fill="#C4D0E8"/>
<path d="M171.368 1354.39L165.054 1348.08L158.74 1354.39L165.054 1360.7L171.368 1354.39Z" fill="#C4D0E8"/>
<path d="M250.738 1354.39L244.424 1348.08L238.11 1354.39L244.424 1360.7L250.738 1354.39Z" fill="#C4D0E8"/>
<path d="M330.108 1354.39L323.795 1348.08L317.481 1354.39L323.795 1360.7L330.108 1354.39Z" fill="#C4D0E8"/>
<path d="M409.478 1354.39L403.164 1348.08L396.85 1354.39L403.164 1360.7L409.478 1354.39Z" fill="#C4D0E8"/>
<path d="M488.848 1354.39L482.534 1348.08L476.221 1354.39L482.534 1360.7L488.848 1354.39Z" fill="#C4D0E8"/>
<path d="M568.218 1354.39L561.904 1348.08L555.59 1354.39L561.904 1360.7L568.218 1354.39Z" fill="#C4D0E8"/>
<path d="M647.588 1354.39L641.274 1348.08L634.961 1354.39L641.274 1360.7L647.588 1354.39Z" fill="#C4D0E8"/>
<path d="M726.959 1354.39L720.645 1348.08L714.331 1354.39L720.645 1360.7L726.959 1354.39Z" fill="#C4D0E8"/>
<path d="M806.328 1354.39L800.014 1348.08L793.701 1354.39L800.014 1360.7L806.328 1354.39Z" fill="#C4D0E8"/>
<path d="M885.699 1354.39L879.385 1348.08L873.071 1354.39L879.385 1360.7L885.699 1354.39Z" fill="#C4D0E8"/>
<path d="M965.069 1354.39L958.755 1348.08L952.441 1354.39L958.755 1360.7L965.069 1354.39Z" fill="#C4D0E8"/>
<path d="M1044.44 1354.39L1038.12 1348.08L1031.81 1354.39L1038.12 1360.7L1044.44 1354.39Z" fill="#C4D0E8"/>
<path d="M1123.81 1354.39L1117.5 1348.08L1111.18 1354.39L1117.5 1360.7L1123.81 1354.39Z" fill="#C4D0E8"/>
<path d="M1203.18 1354.39L1196.86 1348.08L1190.55 1354.39L1196.86 1360.7L1203.18 1354.39Z" fill="#C4D0E8"/>
<path d="M1282.55 1354.39L1276.24 1348.08L1269.92 1354.39L1276.24 1360.7L1282.55 1354.39Z" fill="#C4D0E8"/>
<path d="M1361.92 1354.39L1355.6 1348.08L1349.29 1354.39L1355.6 1360.7L1361.92 1354.39Z" fill="#C4D0E8"/>
<path d="M1441.29 1354.39L1434.97 1348.08L1428.66 1354.39L1434.97 1360.7L1441.29 1354.39Z" fill="#C4D0E8"/>
<path d="M12.6277 1433.69L6.31385 1427.38L0 1433.69L6.31385 1440L12.6277 1433.69Z" fill="#C4D0E8"/>
<path d="M91.9981 1433.69L85.6842 1427.38L79.3704 1433.69L85.6842 1440L91.9981 1433.69Z" fill="#C4D0E8"/>
<path d="M171.368 1433.69L165.054 1427.38L158.74 1433.69L165.054 1440L171.368 1433.69Z" fill="#C4D0E8"/>
<path d="M250.738 1433.69L244.424 1427.38L238.11 1433.69L244.424 1440L250.738 1433.69Z" fill="#C4D0E8"/>
<path d="M330.108 1433.69L323.795 1427.38L317.481 1433.69L323.795 1440L330.108 1433.69Z" fill="#C4D0E8"/>
<path d="M409.478 1433.69L403.164 1427.38L396.85 1433.69L403.164 1440L409.478 1433.69Z" fill="#C4D0E8"/>
<path d="M488.848 1433.69L482.534 1427.38L476.221 1433.69L482.534 1440L488.848 1433.69Z" fill="#C4D0E8"/>
<path d="M568.218 1433.69L561.904 1427.38L555.59 1433.69L561.904 1440L568.218 1433.69Z" fill="#C4D0E8"/>
<path d="M647.588 1433.69L641.274 1427.38L634.961 1433.69L641.274 1440L647.588 1433.69Z" fill="#C4D0E8"/>
<path d="M726.959 1433.69L720.645 1427.38L714.331 1433.69L720.645 1440L726.959 1433.69Z" fill="#C4D0E8"/>
<path d="M806.328 1433.69L800.014 1427.38L793.701 1433.69L800.014 1440L806.328 1433.69Z" fill="#C4D0E8"/>
<path d="M885.699 1433.69L879.385 1427.38L873.071 1433.69L879.385 1440L885.699 1433.69Z" fill="#C4D0E8"/>
<path d="M965.069 1433.69L958.755 1427.38L952.441 1433.69L958.755 1440L965.069 1433.69Z" fill="#C4D0E8"/>
<path d="M1044.44 1433.69L1038.12 1427.38L1031.81 1433.69L1038.12 1440L1044.44 1433.69Z" fill="#C4D0E8"/>
<path d="M1123.81 1433.69L1117.5 1427.38L1111.18 1433.69L1117.5 1440L1123.81 1433.69Z" fill="#C4D0E8"/>
<path d="M1203.18 1433.69L1196.86 1427.38L1190.55 1433.69L1196.86 1440L1203.18 1433.69Z" fill="#C4D0E8"/>
<path d="M1282.55 1433.69L1276.24 1427.38L1269.92 1433.69L1276.24 1440L1282.55 1433.69Z" fill="#C4D0E8"/>
<path d="M1361.92 1433.69L1355.6 1427.38L1349.29 1433.69L1355.6 1440L1361.92 1433.69Z" fill="#C4D0E8"/>
<path d="M1441.29 1433.69L1434.97 1427.38L1428.66 1433.69L1434.97 1440L1441.29 1433.69Z" fill="#C4D0E8"/>
<path d="M806.339 6.3082L800.025 0L793.711 6.3082L800.025 12.6164L806.339 6.3082Z" fill="#C4D0E8"/>
<path d="M885.709 6.3082L879.396 0L873.082 6.3082L879.396 12.6164L885.709 6.3082Z" fill="#C4D0E8"/>
<path d="M965.079 6.3082L958.765 0L952.451 6.3082L958.765 12.6164L965.079 6.3082Z" fill="#C4D0E8"/>
<path d="M1044.45 6.3082L1038.14 0L1031.82 6.3082L1038.14 12.6164L1044.45 6.3082Z" fill="#C4D0E8"/>
<path d="M1123.82 6.3082L1117.51 0L1111.19 6.3082L1117.51 12.6164L1123.82 6.3082Z" fill="#C4D0E8"/>
<path d="M1203.19 6.3082L1196.88 0L1190.56 6.3082L1196.88 12.6164L1203.19 6.3082Z" fill="#C4D0E8"/>
<path d="M1282.56 6.3082L1276.25 0L1269.93 6.3082L1276.25 12.6164L1282.56 6.3082Z" fill="#C4D0E8"/>
<path d="M1361.93 6.3082L1355.62 0L1349.3 6.3082L1355.62 12.6164L1361.93 6.3082Z" fill="#C4D0E8"/>
<path d="M1441.3 6.3082L1434.99 0L1428.67 6.3082L1434.99 12.6164L1441.3 6.3082Z" fill="#C4D0E8"/>
<path d="M1520.67 6.3082L1514.36 0L1508.04 6.3082L1514.36 12.6164L1520.67 6.3082Z" fill="#C4D0E8"/>
<path d="M1600.04 6.3082L1593.73 0L1587.41 6.3082L1593.73 12.6164L1600.04 6.3082Z" fill="#C4D0E8"/>
<path d="M1679.41 6.3082L1673.1 0L1666.78 6.3082L1673.1 12.6164L1679.41 6.3082Z" fill="#C4D0E8"/>
<path d="M1758.78 6.3082L1752.47 0L1746.15 6.3082L1752.47 12.6164L1758.78 6.3082Z" fill="#C4D0E8"/>
<path d="M1838.15 6.3082L1831.84 0L1825.52 6.3082L1831.84 12.6164L1838.15 6.3082Z" fill="#C4D0E8"/>
<path d="M1917.52 6.3082L1911.21 0L1904.89 6.3082L1911.21 12.6164L1917.52 6.3082Z" fill="#C4D0E8"/>
<path d="M1996.89 6.3082L1990.58 0L1984.26 6.3082L1990.58 12.6164L1996.89 6.3082Z" fill="#C4D0E8"/>
<path d="M2076.26 6.3082L2069.95 0L2063.63 6.3082L2069.95 12.6164L2076.26 6.3082Z" fill="#C4D0E8"/>
<path d="M2155.63 6.3082L2149.32 0L2143 6.3082L2149.32 12.6164L2155.63 6.3082Z" fill="#C4D0E8"/>
<path d="M2235 6.3082L2228.69 0L2222.37 6.3082L2228.69 12.6164L2235 6.3082Z" fill="#C4D0E8"/>
<path d="M806.339 85.6075L800.025 79.2993L793.711 85.6075L800.025 91.9157L806.339 85.6075Z" fill="#C4D0E8"/>
<path d="M885.709 85.6075L879.396 79.2993L873.082 85.6075L879.396 91.9157L885.709 85.6075Z" fill="#C4D0E8"/>
<path d="M965.079 85.6075L958.765 79.2993L952.451 85.6075L958.765 91.9157L965.079 85.6075Z" fill="#C4D0E8"/>
<path d="M1044.45 85.6075L1038.14 79.2993L1031.82 85.6075L1038.14 91.9157L1044.45 85.6075Z" fill="#C4D0E8"/>
<path d="M1123.82 85.6075L1117.51 79.2993L1111.19 85.6075L1117.51 91.9157L1123.82 85.6075Z" fill="#C4D0E8"/>
<path d="M1203.19 85.6075L1196.88 79.2993L1190.56 85.6075L1196.88 91.9157L1203.19 85.6075Z" fill="#C4D0E8"/>
<path d="M1282.56 85.6075L1276.25 79.2993L1269.93 85.6075L1276.25 91.9157L1282.56 85.6075Z" fill="#C4D0E8"/>
<path d="M1361.93 85.6075L1355.62 79.2993L1349.3 85.6075L1355.62 91.9157L1361.93 85.6075Z" fill="#C4D0E8"/>
<path d="M1441.3 85.6075L1434.99 79.2993L1428.67 85.6075L1434.99 91.9157L1441.3 85.6075Z" fill="#C4D0E8"/>
<path d="M1520.67 85.6075L1514.36 79.2993L1508.04 85.6075L1514.36 91.9157L1520.67 85.6075Z" fill="#C4D0E8"/>
<path d="M1600.04 85.6075L1593.73 79.2993L1587.41 85.6075L1593.73 91.9157L1600.04 85.6075Z" fill="#C4D0E8"/>
<path d="M1679.41 85.6075L1673.1 79.2993L1666.78 85.6075L1673.1 91.9157L1679.41 85.6075Z" fill="#C4D0E8"/>
<path d="M1758.78 85.6075L1752.47 79.2993L1746.15 85.6075L1752.47 91.9157L1758.78 85.6075Z" fill="#C4D0E8"/>
<path d="M1838.15 85.6075L1831.84 79.2993L1825.52 85.6075L1831.84 91.9157L1838.15 85.6075Z" fill="#C4D0E8"/>
<path d="M1917.52 85.6075L1911.21 79.2993L1904.89 85.6075L1911.21 91.9157L1917.52 85.6075Z" fill="#C4D0E8"/>
<path d="M1996.89 85.6075L1990.58 79.2993L1984.26 85.6075L1990.58 91.9157L1996.89 85.6075Z" fill="#C4D0E8"/>
<path d="M2076.26 85.6075L2069.95 79.2993L2063.63 85.6075L2069.95 91.9157L2076.26 85.6075Z" fill="#C4D0E8"/>
<path d="M2155.63 85.6075L2149.32 79.2993L2143 85.6075L2149.32 91.9157L2155.63 85.6075Z" fill="#C4D0E8"/>
<path d="M2235 85.6075L2228.69 79.2993L2222.37 85.6075L2228.69 91.9157L2235 85.6075Z" fill="#C4D0E8"/>
<path d="M806.339 164.907L800.025 158.599L793.711 164.907L800.025 171.215L806.339 164.907Z" fill="#C4D0E8"/>
<path d="M885.709 164.907L879.396 158.599L873.082 164.907L879.396 171.215L885.709 164.907Z" fill="#C4D0E8"/>
<path d="M965.079 164.907L958.765 158.599L952.451 164.907L958.765 171.215L965.079 164.907Z" fill="#C4D0E8"/>
<path d="M1520.67 164.907L1514.36 158.599L1508.04 164.907L1514.36 171.215L1520.67 164.907Z" fill="#C4D0E8"/>
<path d="M1600.04 164.907L1593.73 158.599L1587.41 164.907L1593.73 171.215L1600.04 164.907Z" fill="#C4D0E8"/>
<path d="M1679.41 164.907L1673.1 158.599L1666.78 164.907L1673.1 171.215L1679.41 164.907Z" fill="#C4D0E8"/>
<path d="M1758.78 164.907L1752.47 158.599L1746.15 164.907L1752.47 171.215L1758.78 164.907Z" fill="#C4D0E8"/>
<path d="M1838.15 164.907L1831.84 158.599L1825.52 164.907L1831.84 171.215L1838.15 164.907Z" fill="#C4D0E8"/>
<path d="M1917.52 164.907L1911.21 158.599L1904.89 164.907L1911.21 171.215L1917.52 164.907Z" fill="#C4D0E8"/>
<path d="M1996.89 164.907L1990.58 158.599L1984.26 164.907L1990.58 171.215L1996.89 164.907Z" fill="#C4D0E8"/>
<path d="M2076.26 164.907L2069.95 158.599L2063.63 164.907L2069.95 171.215L2076.26 164.907Z" fill="#C4D0E8"/>
<path d="M2155.63 164.907L2149.32 158.599L2143 164.907L2149.32 171.215L2155.63 164.907Z" fill="#C4D0E8"/>
<path d="M2235 164.907L2228.69 158.599L2222.37 164.907L2228.69 171.215L2235 164.907Z" fill="#C4D0E8"/>
<path d="M806.339 244.206L800.025 237.898L793.711 244.206L800.025 250.514L806.339 244.206Z" fill="#C4D0E8"/>
<path d="M885.709 244.206L879.396 237.898L873.082 244.206L879.396 250.514L885.709 244.206Z" fill="#C4D0E8"/>
<path d="M965.079 244.206L958.765 237.898L952.451 244.206L958.765 250.514L965.079 244.206Z" fill="#C4D0E8"/>
<path d="M1520.67 244.206L1514.36 237.898L1508.04 244.206L1514.36 250.514L1520.67 244.206Z" fill="#C4D0E8"/>
<path d="M1600.04 244.206L1593.73 237.898L1587.41 244.206L1593.73 250.514L1600.04 244.206Z" fill="#C4D0E8"/>
<path d="M1679.41 244.206L1673.1 237.898L1666.78 244.206L1673.1 250.514L1679.41 244.206Z" fill="#C4D0E8"/>
<path d="M1758.78 244.206L1752.47 237.898L1746.15 244.206L1752.47 250.514L1758.78 244.206Z" fill="#C4D0E8"/>
<path d="M1838.15 244.206L1831.84 237.898L1825.52 244.206L1831.84 250.514L1838.15 244.206Z" fill="#C4D0E8"/>
<path d="M1917.52 244.206L1911.21 237.898L1904.89 244.206L1911.21 250.514L1917.52 244.206Z" fill="#C4D0E8"/>
<path d="M1996.89 244.206L1990.58 237.898L1984.26 244.206L1990.58 250.514L1996.89 244.206Z" fill="#C4D0E8"/>
<path d="M2076.26 244.206L2069.95 237.898L2063.63 244.206L2069.95 250.514L2076.26 244.206Z" fill="#C4D0E8"/>
<path d="M2155.63 244.206L2149.32 237.898L2143 244.206L2149.32 250.514L2155.63 244.206Z" fill="#C4D0E8"/>
<path d="M2235 244.206L2228.69 237.898L2222.37 244.206L2228.69 250.514L2235 244.206Z" fill="#C4D0E8"/>
<path d="M806.339 323.505L800.025 317.196L793.711 323.505L800.025 329.813L806.339 323.505Z" fill="#C4D0E8"/>
<path d="M885.709 323.505L879.396 317.196L873.082 323.505L879.396 329.813L885.709 323.505Z" fill="#C4D0E8"/>
<path d="M965.079 323.505L958.765 317.196L952.451 323.505L958.765 329.813L965.079 323.505Z" fill="#C4D0E8"/>
<path d="M1044.45 323.505L1038.14 317.196L1031.82 323.505L1038.14 329.813L1044.45 323.505Z" fill="#C4D0E8"/>
<path d="M1123.82 323.505L1117.51 317.196L1111.19 323.505L1117.51 329.813L1123.82 323.505Z" fill="#C4D0E8"/>
<path d="M1203.19 323.505L1196.88 317.196L1190.56 323.505L1196.88 329.813L1203.19 323.505Z" fill="#C4D0E8"/>
<path d="M1282.56 323.505L1276.25 317.196L1269.93 323.505L1276.25 329.813L1282.56 323.505Z" fill="#C4D0E8"/>
<path d="M1361.93 323.505L1355.62 317.196L1349.3 323.505L1355.62 329.813L1361.93 323.505Z" fill="#C4D0E8"/>
<path d="M1441.3 323.505L1434.99 317.196L1428.67 323.505L1434.99 329.813L1441.3 323.505Z" fill="#C4D0E8"/>
<path d="M1520.67 323.505L1514.36 317.196L1508.04 323.505L1514.36 329.813L1520.67 323.505Z" fill="#C4D0E8"/>
<path d="M1600.04 323.505L1593.73 317.196L1587.41 323.505L1593.73 329.813L1600.04 323.505Z" fill="#C4D0E8"/>
<path d="M1679.41 323.505L1673.1 317.196L1666.78 323.505L1673.1 329.813L1679.41 323.505Z" fill="#C4D0E8"/>
<path d="M1758.78 323.505L1752.47 317.196L1746.15 323.505L1752.47 329.813L1758.78 323.505Z" fill="#C4D0E8"/>
<path d="M1838.15 323.505L1831.84 317.196L1825.52 323.505L1831.84 329.813L1838.15 323.505Z" fill="#C4D0E8"/>
<path d="M1917.52 323.505L1911.21 317.196L1904.89 323.505L1911.21 329.813L1917.52 323.505Z" fill="#C4D0E8"/>
<path d="M1996.89 323.505L1990.58 317.196L1984.26 323.505L1990.58 329.813L1996.89 323.505Z" fill="#C4D0E8"/>
<path d="M2076.26 323.505L2069.95 317.196L2063.63 323.505L2069.95 329.813L2076.26 323.505Z" fill="#C4D0E8"/>
<path d="M2155.63 323.505L2149.32 317.196L2143 323.505L2149.32 329.813L2155.63 323.505Z" fill="#C4D0E8"/>
<path d="M2235 323.505L2228.69 317.196L2222.37 323.505L2228.69 329.813L2235 323.505Z" fill="#C4D0E8"/>
<path d="M806.339 402.804L800.025 396.496L793.711 402.804L800.025 409.112L806.339 402.804Z" fill="#C4D0E8"/>
<path d="M885.709 402.804L879.396 396.496L873.082 402.804L879.396 409.112L885.709 402.804Z" fill="#C4D0E8"/>
<path d="M965.079 402.804L958.765 396.496L952.451 402.804L958.765 409.112L965.079 402.804Z" fill="#C4D0E8"/>
<path d="M1044.45 402.804L1038.14 396.496L1031.82 402.804L1038.14 409.112L1044.45 402.804Z" fill="#C4D0E8"/>
<path d="M1123.82 402.804L1117.51 396.496L1111.19 402.804L1117.51 409.112L1123.82 402.804Z" fill="#C4D0E8"/>
<path d="M1203.19 402.804L1196.88 396.496L1190.56 402.804L1196.88 409.112L1203.19 402.804Z" fill="#C4D0E8"/>
<path d="M1282.56 402.804L1276.25 396.496L1269.93 402.804L1276.25 409.112L1282.56 402.804Z" fill="#C4D0E8"/>
<path d="M1361.93 402.804L1355.62 396.496L1349.3 402.804L1355.62 409.112L1361.93 402.804Z" fill="#C4D0E8"/>
<path d="M1441.3 402.804L1434.99 396.496L1428.67 402.804L1434.99 409.112L1441.3 402.804Z" fill="#C4D0E8"/>
<path d="M1520.67 402.804L1514.36 396.496L1508.04 402.804L1514.36 409.112L1520.67 402.804Z" fill="#C4D0E8"/>
<path d="M1600.04 402.804L1593.73 396.496L1587.41 402.804L1593.73 409.112L1600.04 402.804Z" fill="#C4D0E8"/>
<path d="M1679.41 402.804L1673.1 396.496L1666.78 402.804L1673.1 409.112L1679.41 402.804Z" fill="#C4D0E8"/>
<path d="M1758.78 402.804L1752.47 396.496L1746.15 402.804L1752.47 409.112L1758.78 402.804Z" fill="#C4D0E8"/>
<path d="M1838.15 402.804L1831.84 396.496L1825.52 402.804L1831.84 409.112L1838.15 402.804Z" fill="#C4D0E8"/>
<path d="M1917.52 402.804L1911.21 396.496L1904.89 402.804L1911.21 409.112L1917.52 402.804Z" fill="#C4D0E8"/>
<path d="M1996.89 402.804L1990.58 396.496L1984.26 402.804L1990.58 409.112L1996.89 402.804Z" fill="#C4D0E8"/>
<path d="M2076.26 402.804L2069.95 396.496L2063.63 402.804L2069.95 409.112L2076.26 402.804Z" fill="#C4D0E8"/>
<path d="M2155.63 402.804L2149.32 396.496L2143 402.804L2149.32 409.112L2155.63 402.804Z" fill="#C4D0E8"/>
<path d="M2235 402.804L2228.69 396.496L2222.37 402.804L2228.69 409.112L2235 402.804Z" fill="#C4D0E8"/>
<path d="M806.339 482.103L800.025 475.795L793.711 482.103L800.025 488.412L806.339 482.103Z" fill="#C4D0E8"/>
<path d="M885.709 482.103L879.396 475.795L873.082 482.103L879.396 488.412L885.709 482.103Z" fill="#C4D0E8"/>
<path d="M965.079 482.103L958.765 475.795L952.451 482.103L958.765 488.412L965.079 482.103Z" fill="#C4D0E8"/>
<path d="M1044.45 482.103L1038.14 475.795L1031.82 482.103L1038.14 488.412L1044.45 482.103Z" fill="#C4D0E8"/>
<path d="M1123.82 482.103L1117.51 475.795L1111.19 482.103L1117.51 488.412L1123.82 482.103Z" fill="#C4D0E8"/>
<path d="M1203.19 482.103L1196.88 475.795L1190.56 482.103L1196.88 488.412L1203.19 482.103Z" fill="#C4D0E8"/>
<path d="M1282.56 482.103L1276.25 475.795L1269.93 482.103L1276.25 488.412L1282.56 482.103Z" fill="#C4D0E8"/>
<path d="M1361.93 482.103L1355.62 475.795L1349.3 482.103L1355.62 488.412L1361.93 482.103Z" fill="#C4D0E8"/>
<path d="M1441.3 482.103L1434.99 475.795L1428.67 482.103L1434.99 488.412L1441.3 482.103Z" fill="#C4D0E8"/>
<path d="M1520.67 482.103L1514.36 475.795L1508.04 482.103L1514.36 488.412L1520.67 482.103Z" fill="#C4D0E8"/>
<path d="M1600.04 482.103L1593.73 475.795L1587.41 482.103L1593.73 488.412L1600.04 482.103Z" fill="#C4D0E8"/>
<path d="M1679.41 482.103L1673.1 475.795L1666.78 482.103L1673.1 488.412L1679.41 482.103Z" fill="#C4D0E8"/>
<path d="M1758.78 482.103L1752.47 475.795L1746.15 482.103L1752.47 488.412L1758.78 482.103Z" fill="#C4D0E8"/>
<path d="M1838.15 482.103L1831.84 475.795L1825.52 482.103L1831.84 488.412L1838.15 482.103Z" fill="#C4D0E8"/>
<path d="M1917.52 482.103L1911.21 475.795L1904.89 482.103L1911.21 488.412L1917.52 482.103Z" fill="#C4D0E8"/>
<path d="M1996.89 482.103L1990.58 475.795L1984.26 482.103L1990.58 488.412L1996.89 482.103Z" fill="#C4D0E8"/>
<path d="M2076.26 482.103L2069.95 475.795L2063.63 482.103L2069.95 488.412L2076.26 482.103Z" fill="#C4D0E8"/>
<path d="M2155.63 482.103L2149.32 475.795L2143 482.103L2149.32 488.412L2155.63 482.103Z" fill="#C4D0E8"/>
<path d="M2235 482.103L2228.69 475.795L2222.37 482.103L2228.69 488.412L2235 482.103Z" fill="#C4D0E8"/>
<path d="M806.339 561.401L800.025 555.093L793.711 561.401L800.025 567.709L806.339 561.401Z" fill="#C4D0E8"/>
<path d="M885.709 561.401L879.396 555.093L873.082 561.401L879.396 567.709L885.709 561.401Z" fill="#C4D0E8"/>
<path d="M965.079 561.401L958.765 555.093L952.451 561.401L958.765 567.709L965.079 561.401Z" fill="#C4D0E8"/>
<path d="M1044.45 561.401L1038.14 555.093L1031.82 561.401L1038.14 567.709L1044.45 561.401Z" fill="#C4D0E8"/>
<path d="M1123.82 561.401L1117.51 555.093L1111.19 561.401L1117.51 567.709L1123.82 561.401Z" fill="#C4D0E8"/>
<path d="M1203.19 561.401L1196.88 555.093L1190.56 561.401L1196.88 567.709L1203.19 561.401Z" fill="#C4D0E8"/>
<path d="M1282.56 561.401L1276.25 555.093L1269.93 561.401L1276.25 567.709L1282.56 561.401Z" fill="#C4D0E8"/>
<path d="M1361.93 561.401L1355.62 555.093L1349.3 561.401L1355.62 567.709L1361.93 561.401Z" fill="#C4D0E8"/>
<path d="M1441.3 561.401L1434.99 555.093L1428.67 561.401L1434.99 567.709L1441.3 561.401Z" fill="#C4D0E8"/>
<path d="M1520.67 561.401L1514.36 555.093L1508.04 561.401L1514.36 567.709L1520.67 561.401Z" fill="#C4D0E8"/>
<path d="M1600.04 561.401L1593.73 555.093L1587.41 561.401L1593.73 567.709L1600.04 561.401Z" fill="#C4D0E8"/>
<path d="M1679.41 561.401L1673.1 555.093L1666.78 561.401L1673.1 567.709L1679.41 561.401Z" fill="#C4D0E8"/>
<path d="M1758.78 561.401L1752.47 555.093L1746.15 561.401L1752.47 567.709L1758.78 561.401Z" fill="#C4D0E8"/>
<path d="M1838.15 561.401L1831.84 555.093L1825.52 561.401L1831.84 567.709L1838.15 561.401Z" fill="#C4D0E8"/>
<path d="M1917.52 561.401L1911.21 555.093L1904.89 561.401L1911.21 567.709L1917.52 561.401Z" fill="#C4D0E8"/>
<path d="M1996.89 561.401L1990.58 555.093L1984.26 561.401L1990.58 567.709L1996.89 561.401Z" fill="#C4D0E8"/>
<path d="M2076.26 561.401L2069.95 555.093L2063.63 561.401L2069.95 567.709L2076.26 561.401Z" fill="#C4D0E8"/>
<path d="M2155.63 561.401L2149.32 555.093L2143 561.401L2149.32 567.709L2155.63 561.401Z" fill="#C4D0E8"/>
<path d="M2235 561.401L2228.69 555.093L2222.37 561.401L2228.69 567.709L2235 561.401Z" fill="#C4D0E8"/>
<path d="M806.339 640.701L800.025 634.393L793.711 640.701L800.025 647.009L806.339 640.701Z" fill="#C4D0E8"/>
<path d="M885.709 640.701L879.396 634.393L873.082 640.701L879.396 647.009L885.709 640.701Z" fill="#C4D0E8"/>
<path d="M965.079 640.701L958.765 634.393L952.451 640.701L958.765 647.009L965.079 640.701Z" fill="#C4D0E8"/>
<path d="M1044.45 640.701L1038.14 634.393L1031.82 640.701L1038.14 647.009L1044.45 640.701Z" fill="#C4D0E8"/>
<path d="M1123.82 640.701L1117.51 634.393L1111.19 640.701L1117.51 647.009L1123.82 640.701Z" fill="#C4D0E8"/>
<path d="M1203.19 640.701L1196.88 634.393L1190.56 640.701L1196.88 647.009L1203.19 640.701Z" fill="#C4D0E8"/>
<path d="M1282.56 640.701L1276.25 634.393L1269.93 640.701L1276.25 647.009L1282.56 640.701Z" fill="#C4D0E8"/>
<path d="M1361.93 640.701L1355.62 634.393L1349.3 640.701L1355.62 647.009L1361.93 640.701Z" fill="#C4D0E8"/>
<path d="M1441.3 640.701L1434.99 634.393L1428.67 640.701L1434.99 647.009L1441.3 640.701Z" fill="#C4D0E8"/>
<path d="M1520.67 640.701L1514.36 634.393L1508.04 640.701L1514.36 647.009L1520.67 640.701Z" fill="#C4D0E8"/>
<path d="M1600.04 640.701L1593.73 634.393L1587.41 640.701L1593.73 647.009L1600.04 640.701Z" fill="#C4D0E8"/>
<path d="M1679.41 640.701L1673.1 634.393L1666.78 640.701L1673.1 647.009L1679.41 640.701Z" fill="#C4D0E8"/>
<path d="M1758.78 640.701L1752.47 634.393L1746.15 640.701L1752.47 647.009L1758.78 640.701Z" fill="#C4D0E8"/>
<path d="M1838.15 640.701L1831.84 634.393L1825.52 640.701L1831.84 647.009L1838.15 640.701Z" fill="#C4D0E8"/>
<path d="M1917.52 640.701L1911.21 634.393L1904.89 640.701L1911.21 647.009L1917.52 640.701Z" fill="#C4D0E8"/>
<path d="M1996.89 640.701L1990.58 634.393L1984.26 640.701L1990.58 647.009L1996.89 640.701Z" fill="#C4D0E8"/>
<path d="M2076.26 640.701L2069.95 634.393L2063.63 640.701L2069.95 647.009L2076.26 640.701Z" fill="#C4D0E8"/>
<path d="M2155.63 640.701L2149.32 634.393L2143 640.701L2149.32 647.009L2155.63 640.701Z" fill="#C4D0E8"/>
<path d="M2235 640.701L2228.69 634.393L2222.37 640.701L2228.69 647.009L2235 640.701Z" fill="#C4D0E8"/>
<path d="M806.339 720.001L800.025 713.692L793.711 720.001L800.025 726.309L806.339 720.001Z" fill="#C4D0E8"/>
<path d="M885.709 720.001L879.396 713.692L873.082 720.001L879.396 726.309L885.709 720.001Z" fill="#C4D0E8"/>
<path d="M965.079 720.001L958.765 713.692L952.451 720.001L958.765 726.309L965.079 720.001Z" fill="#C4D0E8"/>
<path d="M1044.45 720.001L1038.14 713.692L1031.82 720.001L1038.14 726.309L1044.45 720.001Z" fill="#C4D0E8"/>
<path d="M1123.82 720.001L1117.51 713.692L1111.19 720.001L1117.51 726.309L1123.82 720.001Z" fill="#C4D0E8"/>
<path d="M1203.19 720.001L1196.88 713.692L1190.56 720.001L1196.88 726.309L1203.19 720.001Z" fill="#C4D0E8"/>
<path d="M1282.56 720.001L1276.25 713.692L1269.93 720.001L1276.25 726.309L1282.56 720.001Z" fill="#C4D0E8"/>
<path d="M1361.93 720.001L1355.62 713.692L1349.3 720.001L1355.62 726.309L1361.93 720.001Z" fill="#C4D0E8"/>
<path d="M1441.3 720.001L1434.99 713.692L1428.67 720.001L1434.99 726.309L1441.3 720.001Z" fill="#C4D0E8"/>
<path d="M1520.67 720.001L1514.36 713.692L1508.04 720.001L1514.36 726.309L1520.67 720.001Z" fill="#C4D0E8"/>
<path d="M1600.04 720.001L1593.73 713.692L1587.41 720.001L1593.73 726.309L1600.04 720.001Z" fill="#C4D0E8"/>
<path d="M1679.41 720.001L1673.1 713.692L1666.78 720.001L1673.1 726.309L1679.41 720.001Z" fill="#C4D0E8"/>
<path d="M1758.78 720.001L1752.47 713.692L1746.15 720.001L1752.47 726.309L1758.78 720.001Z" fill="#C4D0E8"/>
<path d="M1838.15 720.001L1831.84 713.692L1825.52 720.001L1831.84 726.309L1838.15 720.001Z" fill="#C4D0E8"/>
<path d="M1917.52 720.001L1911.21 713.692L1904.89 720.001L1911.21 726.309L1917.52 720.001Z" fill="#C4D0E8"/>
<path d="M1996.89 720.001L1990.58 713.692L1984.26 720.001L1990.58 726.309L1996.89 720.001Z" fill="#C4D0E8"/>
<path d="M2076.26 720.001L2069.95 713.692L2063.63 720.001L2069.95 726.309L2076.26 720.001Z" fill="#C4D0E8"/>
<path d="M2155.63 720.001L2149.32 713.692L2143 720.001L2149.32 726.309L2155.63 720.001Z" fill="#C4D0E8"/>
<path d="M2235 720.001L2228.69 713.692L2222.37 720.001L2228.69 726.309L2235 720.001Z" fill="#C4D0E8"/>
<path d="M806.339 799.299L800.025 792.991L793.711 799.299L800.025 805.607L806.339 799.299Z" fill="#C4D0E8"/>
<path d="M885.709 799.299L879.396 792.991L873.082 799.299L879.396 805.607L885.709 799.299Z" fill="#C4D0E8"/>
<path d="M965.079 799.299L958.765 792.991L952.451 799.299L958.765 805.607L965.079 799.299Z" fill="#C4D0E8"/>
<path d="M1044.45 799.299L1038.14 792.991L1031.82 799.299L1038.14 805.607L1044.45 799.299Z" fill="#C4D0E8"/>
<path d="M1123.82 799.299L1117.51 792.991L1111.19 799.299L1117.51 805.607L1123.82 799.299Z" fill="#C4D0E8"/>
<path d="M1203.19 799.299L1196.88 792.991L1190.56 799.299L1196.88 805.607L1203.19 799.299Z" fill="#C4D0E8"/>
<path d="M1282.56 799.299L1276.25 792.991L1269.93 799.299L1276.25 805.607L1282.56 799.299Z" fill="#C4D0E8"/>
<path d="M1361.93 799.299L1355.62 792.991L1349.3 799.299L1355.62 805.607L1361.93 799.299Z" fill="#C4D0E8"/>
<path d="M1441.3 799.299L1434.99 792.991L1428.67 799.299L1434.99 805.607L1441.3 799.299Z" fill="#C4D0E8"/>
<path d="M1520.67 799.299L1514.36 792.991L1508.04 799.299L1514.36 805.607L1520.67 799.299Z" fill="#C4D0E8"/>
<path d="M1600.04 799.299L1593.73 792.991L1587.41 799.299L1593.73 805.607L1600.04 799.299Z" fill="#C4D0E8"/>
<path d="M1679.41 799.299L1673.1 792.991L1666.78 799.299L1673.1 805.607L1679.41 799.299Z" fill="#C4D0E8"/>
<path d="M1758.78 799.299L1752.47 792.991L1746.15 799.299L1752.47 805.607L1758.78 799.299Z" fill="#C4D0E8"/>
<path d="M1838.15 799.299L1831.84 792.991L1825.52 799.299L1831.84 805.607L1838.15 799.299Z" fill="#C4D0E8"/>
<path d="M1917.52 799.299L1911.21 792.991L1904.89 799.299L1911.21 805.607L1917.52 799.299Z" fill="#C4D0E8"/>
<path d="M1996.89 799.299L1990.58 792.991L1984.26 799.299L1990.58 805.607L1996.89 799.299Z" fill="#C4D0E8"/>
<path d="M2076.26 799.299L2069.95 792.991L2063.63 799.299L2069.95 805.607L2076.26 799.299Z" fill="#C4D0E8"/>
<path d="M2155.63 799.299L2149.32 792.991L2143 799.299L2149.32 805.607L2155.63 799.299Z" fill="#C4D0E8"/>
<path d="M2235 799.299L2228.69 792.991L2222.37 799.299L2228.69 805.607L2235 799.299Z" fill="#C4D0E8"/>
<path d="M806.339 878.597L800.025 872.289L793.711 878.597L800.025 884.905L806.339 878.597Z" fill="#C4D0E8"/>
<path d="M885.709 878.597L879.396 872.289L873.082 878.597L879.396 884.905L885.709 878.597Z" fill="#C4D0E8"/>
<path d="M965.079 878.597L958.765 872.289L952.451 878.597L958.765 884.905L965.079 878.597Z" fill="#C4D0E8"/>
<path d="M1044.45 878.597L1038.14 872.289L1031.82 878.597L1038.14 884.905L1044.45 878.597Z" fill="#C4D0E8"/>
<path d="M1123.82 878.597L1117.51 872.289L1111.19 878.597L1117.51 884.905L1123.82 878.597Z" fill="#C4D0E8"/>
<path d="M1203.19 878.597L1196.88 872.289L1190.56 878.597L1196.88 884.905L1203.19 878.597Z" fill="#C4D0E8"/>
<path d="M1282.56 878.597L1276.25 872.289L1269.93 878.597L1276.25 884.905L1282.56 878.597Z" fill="#C4D0E8"/>
<path d="M1361.93 878.597L1355.62 872.289L1349.3 878.597L1355.62 884.905L1361.93 878.597Z" fill="#C4D0E8"/>
<path d="M1441.3 878.597L1434.99 872.289L1428.67 878.597L1434.99 884.905L1441.3 878.597Z" fill="#C4D0E8"/>
<path d="M1520.67 878.597L1514.36 872.289L1508.04 878.597L1514.36 884.905L1520.67 878.597Z" fill="#C4D0E8"/>
<path d="M1600.04 878.597L1593.73 872.289L1587.41 878.597L1593.73 884.905L1600.04 878.597Z" fill="#C4D0E8"/>
<path d="M1679.41 878.597L1673.1 872.289L1666.78 878.597L1673.1 884.905L1679.41 878.597Z" fill="#C4D0E8"/>
<path d="M1758.78 878.597L1752.47 872.289L1746.15 878.597L1752.47 884.905L1758.78 878.597Z" fill="#C4D0E8"/>
<path d="M1838.15 878.597L1831.84 872.289L1825.52 878.597L1831.84 884.905L1838.15 878.597Z" fill="#C4D0E8"/>
<path d="M1917.52 878.597L1911.21 872.289L1904.89 878.597L1911.21 884.905L1917.52 878.597Z" fill="#C4D0E8"/>
<path d="M1996.89 878.597L1990.58 872.289L1984.26 878.597L1990.58 884.905L1996.89 878.597Z" fill="#C4D0E8"/>
<path d="M2076.26 878.597L2069.95 872.289L2063.63 878.597L2069.95 884.905L2076.26 878.597Z" fill="#C4D0E8"/>
<path d="M2155.63 878.597L2149.32 872.289L2143 878.597L2149.32 884.905L2155.63 878.597Z" fill="#C4D0E8"/>
<path d="M2235 878.597L2228.69 872.289L2222.37 878.597L2228.69 884.905L2235 878.597Z" fill="#C4D0E8"/>
<path d="M806.339 957.898L800.025 951.589L793.711 957.898L800.025 964.206L806.339 957.898Z" fill="#C4D0E8"/>
<path d="M885.709 957.898L879.396 951.589L873.082 957.898L879.396 964.206L885.709 957.898Z" fill="#C4D0E8"/>
<path d="M965.079 957.898L958.765 951.589L952.451 957.898L958.765 964.206L965.079 957.898Z" fill="#C4D0E8"/>
<path d="M1044.45 957.898L1038.14 951.589L1031.82 957.898L1038.14 964.206L1044.45 957.898Z" fill="#C4D0E8"/>
<path d="M1123.82 957.898L1117.51 951.589L1111.19 957.898L1117.51 964.206L1123.82 957.898Z" fill="#C4D0E8"/>
<path d="M1203.19 957.898L1196.88 951.589L1190.56 957.898L1196.88 964.206L1203.19 957.898Z" fill="#C4D0E8"/>
<path d="M1282.56 957.898L1276.25 951.589L1269.93 957.898L1276.25 964.206L1282.56 957.898Z" fill="#C4D0E8"/>
<path d="M1361.93 957.898L1355.62 951.589L1349.3 957.898L1355.62 964.206L1361.93 957.898Z" fill="#C4D0E8"/>
<path d="M1441.3 957.898L1434.99 951.589L1428.67 957.898L1434.99 964.206L1441.3 957.898Z" fill="#C4D0E8"/>
<path d="M1520.67 957.898L1514.36 951.589L1508.04 957.898L1514.36 964.206L1520.67 957.898Z" fill="#C4D0E8"/>
<path d="M1600.04 957.898L1593.73 951.589L1587.41 957.898L1593.73 964.206L1600.04 957.898Z" fill="#C4D0E8"/>
<path d="M1679.41 957.898L1673.1 951.589L1666.78 957.898L1673.1 964.206L1679.41 957.898Z" fill="#C4D0E8"/>
<path d="M1758.78 957.898L1752.47 951.589L1746.15 957.898L1752.47 964.206L1758.78 957.898Z" fill="#C4D0E8"/>
<path d="M1838.15 957.898L1831.84 951.589L1825.52 957.898L1831.84 964.206L1838.15 957.898Z" fill="#C4D0E8"/>
<path d="M1917.52 957.898L1911.21 951.589L1904.89 957.898L1911.21 964.206L1917.52 957.898Z" fill="#C4D0E8"/>
<path d="M1996.89 957.898L1990.58 951.589L1984.26 957.898L1990.58 964.206L1996.89 957.898Z" fill="#C4D0E8"/>
<path d="M2076.26 957.898L2069.95 951.589L2063.63 957.898L2069.95 964.206L2076.26 957.898Z" fill="#C4D0E8"/>
<path d="M2155.63 957.898L2149.32 951.589L2143 957.898L2149.32 964.206L2155.63 957.898Z" fill="#C4D0E8"/>
<path d="M2235 957.898L2228.69 951.589L2222.37 957.898L2228.69 964.206L2235 957.898Z" fill="#C4D0E8"/>
<path d="M806.339 1037.2L800.025 1030.89L793.711 1037.2L800.025 1043.5L806.339 1037.2Z" fill="#C4D0E8"/>
<path d="M885.709 1037.2L879.396 1030.89L873.082 1037.2L879.396 1043.5L885.709 1037.2Z" fill="#C4D0E8"/>
<path d="M965.079 1037.2L958.765 1030.89L952.451 1037.2L958.765 1043.5L965.079 1037.2Z" fill="#C4D0E8"/>
<path d="M1044.45 1037.2L1038.14 1030.89L1031.82 1037.2L1038.14 1043.5L1044.45 1037.2Z" fill="#C4D0E8"/>
<path d="M1123.82 1037.2L1117.51 1030.89L1111.19 1037.2L1117.51 1043.5L1123.82 1037.2Z" fill="#C4D0E8"/>
<path d="M1203.19 1037.2L1196.88 1030.89L1190.56 1037.2L1196.88 1043.5L1203.19 1037.2Z" fill="#C4D0E8"/>
<path d="M1282.56 1037.2L1276.25 1030.89L1269.93 1037.2L1276.25 1043.5L1282.56 1037.2Z" fill="#C4D0E8"/>
<path d="M1361.93 1037.2L1355.62 1030.89L1349.3 1037.2L1355.62 1043.5L1361.93 1037.2Z" fill="#C4D0E8"/>
<path d="M1441.3 1037.2L1434.99 1030.89L1428.67 1037.2L1434.99 1043.5L1441.3 1037.2Z" fill="#C4D0E8"/>
<path d="M1520.67 1037.2L1514.36 1030.89L1508.04 1037.2L1514.36 1043.5L1520.67 1037.2Z" fill="#C4D0E8"/>
<path d="M1600.04 1037.2L1593.73 1030.89L1587.41 1037.2L1593.73 1043.5L1600.04 1037.2Z" fill="#C4D0E8"/>
<path d="M1679.41 1037.2L1673.1 1030.89L1666.78 1037.2L1673.1 1043.5L1679.41 1037.2Z" fill="#C4D0E8"/>
<path d="M1758.78 1037.2L1752.47 1030.89L1746.15 1037.2L1752.47 1043.5L1758.78 1037.2Z" fill="#C4D0E8"/>
<path d="M1838.15 1037.2L1831.84 1030.89L1825.52 1037.2L1831.84 1043.5L1838.15 1037.2Z" fill="#C4D0E8"/>
<path d="M1917.52 1037.2L1911.21 1030.89L1904.89 1037.2L1911.21 1043.5L1917.52 1037.2Z" fill="#C4D0E8"/>
<path d="M1996.89 1037.2L1990.58 1030.89L1984.26 1037.2L1990.58 1043.5L1996.89 1037.2Z" fill="#C4D0E8"/>
<path d="M2076.26 1037.2L2069.95 1030.89L2063.63 1037.2L2069.95 1043.5L2076.26 1037.2Z" fill="#C4D0E8"/>
<path d="M2155.63 1037.2L2149.32 1030.89L2143 1037.2L2149.32 1043.5L2155.63 1037.2Z" fill="#C4D0E8"/>
<path d="M2235 1037.2L2228.69 1030.89L2222.37 1037.2L2228.69 1043.5L2235 1037.2Z" fill="#C4D0E8"/>
<path d="M806.339 1116.49L800.025 1110.19L793.711 1116.49L800.025 1122.8L806.339 1116.49Z" fill="#C4D0E8"/>
<path d="M885.709 1116.49L879.396 1110.19L873.082 1116.49L879.396 1122.8L885.709 1116.49Z" fill="#C4D0E8"/>
<path d="M965.079 1116.49L958.765 1110.19L952.451 1116.49L958.765 1122.8L965.079 1116.49Z" fill="#C4D0E8"/>
<path d="M1044.45 1116.49L1038.14 1110.19L1031.82 1116.49L1038.14 1122.8L1044.45 1116.49Z" fill="#C4D0E8"/>
<path d="M1123.82 1116.49L1117.51 1110.19L1111.19 1116.49L1117.51 1122.8L1123.82 1116.49Z" fill="#C4D0E8"/>
<path d="M1203.19 1116.49L1196.88 1110.19L1190.56 1116.49L1196.88 1122.8L1203.19 1116.49Z" fill="#C4D0E8"/>
<path d="M1282.56 1116.49L1276.25 1110.19L1269.93 1116.49L1276.25 1122.8L1282.56 1116.49Z" fill="#C4D0E8"/>
<path d="M1361.93 1116.49L1355.62 1110.19L1349.3 1116.49L1355.62 1122.8L1361.93 1116.49Z" fill="#C4D0E8"/>
<path d="M1441.3 1116.49L1434.99 1110.19L1428.67 1116.49L1434.99 1122.8L1441.3 1116.49Z" fill="#C4D0E8"/>
<path d="M1520.67 1116.49L1514.36 1110.19L1508.04 1116.49L1514.36 1122.8L1520.67 1116.49Z" fill="#C4D0E8"/>
<path d="M1600.04 1116.49L1593.73 1110.19L1587.41 1116.49L1593.73 1122.8L1600.04 1116.49Z" fill="#C4D0E8"/>
<path d="M1679.41 1116.49L1673.1 1110.19L1666.78 1116.49L1673.1 1122.8L1679.41 1116.49Z" fill="#C4D0E8"/>
<path d="M1758.78 1116.49L1752.47 1110.19L1746.15 1116.49L1752.47 1122.8L1758.78 1116.49Z" fill="#C4D0E8"/>
<path d="M1838.15 1116.49L1831.84 1110.19L1825.52 1116.49L1831.84 1122.8L1838.15 1116.49Z" fill="#C4D0E8"/>
<path d="M1917.52 1116.49L1911.21 1110.19L1904.89 1116.49L1911.21 1122.8L1917.52 1116.49Z" fill="#C4D0E8"/>
<path d="M1996.89 1116.49L1990.58 1110.19L1984.26 1116.49L1990.58 1122.8L1996.89 1116.49Z" fill="#C4D0E8"/>
<path d="M2076.26 1116.49L2069.95 1110.19L2063.63 1116.49L2069.95 1122.8L2076.26 1116.49Z" fill="#C4D0E8"/>
<path d="M2155.63 1116.49L2149.32 1110.19L2143 1116.49L2149.32 1122.8L2155.63 1116.49Z" fill="#C4D0E8"/>
<path d="M2235 1116.49L2228.69 1110.19L2222.37 1116.49L2228.69 1122.8L2235 1116.49Z" fill="#C4D0E8"/>
<path d="M806.339 1195.79L800.025 1189.49L793.711 1195.79L800.025 1202.1L806.339 1195.79Z" fill="#C4D0E8"/>
<path d="M885.709 1195.79L879.396 1189.49L873.082 1195.79L879.396 1202.1L885.709 1195.79Z" fill="#C4D0E8"/>
<path d="M965.079 1195.79L958.765 1189.49L952.451 1195.79L958.765 1202.1L965.079 1195.79Z" fill="#C4D0E8"/>
<path d="M1044.45 1195.79L1038.14 1189.49L1031.82 1195.79L1038.14 1202.1L1044.45 1195.79Z" fill="#C4D0E8"/>
<path d="M1123.82 1195.79L1117.51 1189.49L1111.19 1195.79L1117.51 1202.1L1123.82 1195.79Z" fill="#C4D0E8"/>
<path d="M1203.19 1195.79L1196.88 1189.49L1190.56 1195.79L1196.88 1202.1L1203.19 1195.79Z" fill="#C4D0E8"/>
<path d="M1282.56 1195.79L1276.25 1189.49L1269.93 1195.79L1276.25 1202.1L1282.56 1195.79Z" fill="#C4D0E8"/>
<path d="M1361.93 1195.79L1355.62 1189.49L1349.3 1195.79L1355.62 1202.1L1361.93 1195.79Z" fill="#C4D0E8"/>
<path d="M1441.3 1195.79L1434.99 1189.49L1428.67 1195.79L1434.99 1202.1L1441.3 1195.79Z" fill="#C4D0E8"/>
<path d="M1520.67 1195.79L1514.36 1189.49L1508.04 1195.79L1514.36 1202.1L1520.67 1195.79Z" fill="#C4D0E8"/>
<path d="M1600.04 1195.79L1593.73 1189.49L1587.41 1195.79L1593.73 1202.1L1600.04 1195.79Z" fill="#C4D0E8"/>
<path d="M1679.41 1195.79L1673.1 1189.49L1666.78 1195.79L1673.1 1202.1L1679.41 1195.79Z" fill="#C4D0E8"/>
<path d="M1758.78 1195.79L1752.47 1189.49L1746.15 1195.79L1752.47 1202.1L1758.78 1195.79Z" fill="#C4D0E8"/>
<path d="M1838.15 1195.79L1831.84 1189.49L1825.52 1195.79L1831.84 1202.1L1838.15 1195.79Z" fill="#C4D0E8"/>
<path d="M1917.52 1195.79L1911.21 1189.49L1904.89 1195.79L1911.21 1202.1L1917.52 1195.79Z" fill="#C4D0E8"/>
<path d="M1996.89 1195.79L1990.58 1189.49L1984.26 1195.79L1990.58 1202.1L1996.89 1195.79Z" fill="#C4D0E8"/>
<path d="M2076.26 1195.79L2069.95 1189.49L2063.63 1195.79L2069.95 1202.1L2076.26 1195.79Z" fill="#C4D0E8"/>
<path d="M2155.63 1195.79L2149.32 1189.49L2143 1195.79L2149.32 1202.1L2155.63 1195.79Z" fill="#C4D0E8"/>
<path d="M2235 1195.79L2228.69 1189.49L2222.37 1195.79L2228.69 1202.1L2235 1195.79Z" fill="#C4D0E8"/>
<path d="M806.339 1275.09L800.025 1268.78L793.711 1275.09L800.025 1281.4L806.339 1275.09Z" fill="#C4D0E8"/>
<path d="M885.709 1275.09L879.396 1268.78L873.082 1275.09L879.396 1281.4L885.709 1275.09Z" fill="#C4D0E8"/>
<path d="M965.079 1275.09L958.765 1268.78L952.451 1275.09L958.765 1281.4L965.079 1275.09Z" fill="#C4D0E8"/>
<path d="M1044.45 1275.09L1038.14 1268.78L1031.82 1275.09L1038.14 1281.4L1044.45 1275.09Z" fill="#C4D0E8"/>
<path d="M1123.82 1275.09L1117.51 1268.78L1111.19 1275.09L1117.51 1281.4L1123.82 1275.09Z" fill="#C4D0E8"/>
<path d="M1203.19 1275.09L1196.88 1268.78L1190.56 1275.09L1196.88 1281.4L1203.19 1275.09Z" fill="#C4D0E8"/>
<path d="M1282.56 1275.09L1276.25 1268.78L1269.93 1275.09L1276.25 1281.4L1282.56 1275.09Z" fill="#C4D0E8"/>
<path d="M1361.93 1275.09L1355.62 1268.78L1349.3 1275.09L1355.62 1281.4L1361.93 1275.09Z" fill="#C4D0E8"/>
<path d="M1441.3 1275.09L1434.99 1268.78L1428.67 1275.09L1434.99 1281.4L1441.3 1275.09Z" fill="#C4D0E8"/>
<path d="M1520.67 1275.09L1514.36 1268.78L1508.04 1275.09L1514.36 1281.4L1520.67 1275.09Z" fill="#C4D0E8"/>
<path d="M1600.04 1275.09L1593.73 1268.78L1587.41 1275.09L1593.73 1281.4L1600.04 1275.09Z" fill="#C4D0E8"/>
<path d="M1679.41 1275.09L1673.1 1268.78L1666.78 1275.09L1673.1 1281.4L1679.41 1275.09Z" fill="#C4D0E8"/>
<path d="M1758.78 1275.09L1752.47 1268.78L1746.15 1275.09L1752.47 1281.4L1758.78 1275.09Z" fill="#C4D0E8"/>
<path d="M1838.15 1275.09L1831.84 1268.78L1825.52 1275.09L1831.84 1281.4L1838.15 1275.09Z" fill="#C4D0E8"/>
<path d="M1917.52 1275.09L1911.21 1268.78L1904.89 1275.09L1911.21 1281.4L1917.52 1275.09Z" fill="#C4D0E8"/>
<path d="M1996.89 1275.09L1990.58 1268.78L1984.26 1275.09L1990.58 1281.4L1996.89 1275.09Z" fill="#C4D0E8"/>
<path d="M2076.26 1275.09L2069.95 1268.78L2063.63 1275.09L2069.95 1281.4L2076.26 1275.09Z" fill="#C4D0E8"/>
<path d="M2155.63 1275.09L2149.32 1268.78L2143 1275.09L2149.32 1281.4L2155.63 1275.09Z" fill="#C4D0E8"/>
<path d="M2235 1275.09L2228.69 1268.78L2222.37 1275.09L2228.69 1281.4L2235 1275.09Z" fill="#C4D0E8"/>
<path d="M806.339 1354.39L800.025 1348.08L793.711 1354.39L800.025 1360.7L806.339 1354.39Z" fill="#C4D0E8"/>
<path d="M885.709 1354.39L879.396 1348.08L873.082 1354.39L879.396 1360.7L885.709 1354.39Z" fill="#C4D0E8"/>
<path d="M965.079 1354.39L958.765 1348.08L952.451 1354.39L958.765 1360.7L965.079 1354.39Z" fill="#C4D0E8"/>
<path d="M1044.45 1354.39L1038.14 1348.08L1031.82 1354.39L1038.14 1360.7L1044.45 1354.39Z" fill="#C4D0E8"/>
<path d="M1123.82 1354.39L1117.51 1348.08L1111.19 1354.39L1117.51 1360.7L1123.82 1354.39Z" fill="#C4D0E8"/>
<path d="M1203.19 1354.39L1196.88 1348.08L1190.56 1354.39L1196.88 1360.7L1203.19 1354.39Z" fill="#C4D0E8"/>
<path d="M1282.56 1354.39L1276.25 1348.08L1269.93 1354.39L1276.25 1360.7L1282.56 1354.39Z" fill="#C4D0E8"/>
<path d="M1361.93 1354.39L1355.62 1348.08L1349.3 1354.39L1355.62 1360.7L1361.93 1354.39Z" fill="#C4D0E8"/>
<path d="M1441.3 1354.39L1434.99 1348.08L1428.67 1354.39L1434.99 1360.7L1441.3 1354.39Z" fill="#C4D0E8"/>
<path d="M1520.67 1354.39L1514.36 1348.08L1508.04 1354.39L1514.36 1360.7L1520.67 1354.39Z" fill="#C4D0E8"/>
<path d="M1600.04 1354.39L1593.73 1348.08L1587.41 1354.39L1593.73 1360.7L1600.04 1354.39Z" fill="#C4D0E8"/>
<path d="M1679.41 1354.39L1673.1 1348.08L1666.78 1354.39L1673.1 1360.7L1679.41 1354.39Z" fill="#C4D0E8"/>
<path d="M1758.78 1354.39L1752.47 1348.08L1746.15 1354.39L1752.47 1360.7L1758.78 1354.39Z" fill="#C4D0E8"/>
<path d="M1838.15 1354.39L1831.84 1348.08L1825.52 1354.39L1831.84 1360.7L1838.15 1354.39Z" fill="#C4D0E8"/>
<path d="M1917.52 1354.39L1911.21 1348.08L1904.89 1354.39L1911.21 1360.7L1917.52 1354.39Z" fill="#C4D0E8"/>
<path d="M1996.89 1354.39L1990.58 1348.08L1984.26 1354.39L1990.58 1360.7L1996.89 1354.39Z" fill="#C4D0E8"/>
<path d="M2076.26 1354.39L2069.95 1348.08L2063.63 1354.39L2069.95 1360.7L2076.26 1354.39Z" fill="#C4D0E8"/>
<path d="M2155.63 1354.39L2149.32 1348.08L2143 1354.39L2149.32 1360.7L2155.63 1354.39Z" fill="#C4D0E8"/>
<path d="M2235 1354.39L2228.69 1348.08L2222.37 1354.39L2228.69 1360.7L2235 1354.39Z" fill="#C4D0E8"/>
<path d="M806.339 1433.69L800.025 1427.38L793.711 1433.69L800.025 1440L806.339 1433.69Z" fill="#C4D0E8"/>
<path d="M885.709 1433.69L879.396 1427.38L873.082 1433.69L879.396 1440L885.709 1433.69Z" fill="#C4D0E8"/>
<path d="M965.079 1433.69L958.765 1427.38L952.451 1433.69L958.765 1440L965.079 1433.69Z" fill="#C4D0E8"/>
<path d="M1044.45 1433.69L1038.14 1427.38L1031.82 1433.69L1038.14 1440L1044.45 1433.69Z" fill="#C4D0E8"/>
<path d="M1123.82 1433.69L1117.51 1427.38L1111.19 1433.69L1117.51 1440L1123.82 1433.69Z" fill="#C4D0E8"/>
<path d="M1203.19 1433.69L1196.88 1427.38L1190.56 1433.69L1196.88 1440L1203.19 1433.69Z" fill="#C4D0E8"/>
<path d="M1282.56 1433.69L1276.25 1427.38L1269.93 1433.69L1276.25 1440L1282.56 1433.69Z" fill="#C4D0E8"/>
<path d="M1361.93 1433.69L1355.62 1427.38L1349.3 1433.69L1355.62 1440L1361.93 1433.69Z" fill="#C4D0E8"/>
<path d="M1441.3 1433.69L1434.99 1427.38L1428.67 1433.69L1434.99 1440L1441.3 1433.69Z" fill="#C4D0E8"/>
<path d="M1520.67 1433.69L1514.36 1427.38L1508.04 1433.69L1514.36 1440L1520.67 1433.69Z" fill="#C4D0E8"/>
<path d="M1600.04 1433.69L1593.73 1427.38L1587.41 1433.69L1593.73 1440L1600.04 1433.69Z" fill="#C4D0E8"/>
<path d="M1679.41 1433.69L1673.1 1427.38L1666.78 1433.69L1673.1 1440L1679.41 1433.69Z" fill="#C4D0E8"/>
<path d="M1758.78 1433.69L1752.47 1427.38L1746.15 1433.69L1752.47 1440L1758.78 1433.69Z" fill="#C4D0E8"/>
<path d="M1838.15 1433.69L1831.84 1427.38L1825.52 1433.69L1831.84 1440L1838.15 1433.69Z" fill="#C4D0E8"/>
<path d="M1917.52 1433.69L1911.21 1427.38L1904.89 1433.69L1911.21 1440L1917.52 1433.69Z" fill="#C4D0E8"/>
<path d="M1996.89 1433.69L1990.58 1427.38L1984.26 1433.69L1990.58 1440L1996.89 1433.69Z" fill="#C4D0E8"/>
<path d="M2076.26 1433.69L2069.95 1427.38L2063.63 1433.69L2069.95 1440L2076.26 1433.69Z" fill="#C4D0E8"/>
<path d="M2155.63 1433.69L2149.32 1427.38L2143 1433.69L2149.32 1440L2155.63 1433.69Z" fill="#C4D0E8"/>
<path d="M2235 1433.69L2228.69 1427.38L2222.37 1433.69L2228.69 1440L2235 1433.69Z" fill="#C4D0E8"/>
<path d="M1044.45 164.907L1038.14 158.599L1031.82 164.907L1038.14 171.215L1044.45 164.907Z" fill="#C4D0E8"/>
<path d="M1044.44 244.206L1038.12 237.898L1031.81 244.206L1038.12 250.514L1044.44 244.206Z" fill="#C4D0E8"/>
<path d="M1123.81 244.206L1117.5 237.898L1111.18 244.206L1117.5 250.515L1123.81 244.206Z" fill="#C4D0E8"/>
<path d="M1123.81 164.907L1117.5 158.599L1111.18 164.907L1117.5 171.215L1123.81 164.907Z" fill="#C4D0E8"/>
<path d="M1203.19 164.907L1196.88 158.599L1190.56 164.907L1196.88 171.215L1203.19 164.907Z" fill="#C4D0E8"/>
<path d="M1203.19 244.206L1196.88 237.898L1190.56 244.206L1196.88 250.514L1203.19 244.206Z" fill="#C4D0E8"/>
<path d="M1282.56 244.206L1276.25 237.898L1269.93 244.206L1276.25 250.515L1282.56 244.206Z" fill="#C4D0E8"/>
<path d="M1282.56 164.907L1276.25 158.599L1269.93 164.907L1276.25 171.215L1282.56 164.907Z" fill="#C4D0E8"/>
<path d="M1361.93 244.206L1355.62 237.898L1349.3 244.206L1355.62 250.515L1361.93 244.206Z" fill="#C4D0E8"/>
<path d="M1361.93 164.907L1355.62 158.599L1349.3 164.907L1355.62 171.215L1361.93 164.907Z" fill="#C4D0E8"/>
<path d="M1441.3 244.206L1434.99 237.898L1428.67 244.206L1434.99 250.515L1441.3 244.206Z" fill="#C4D0E8"/>
<path d="M1441.3 164.907L1434.99 158.599L1428.67 164.907L1434.99 171.215L1441.3 164.907Z" fill="#C4D0E8"/>
</svg>
