<svg width="1920" height="1321" viewBox="0 0 1920 1321" fill="none" xmlns="http://www.w3.org/2000/svg">
<path d="M2140.4 1115.24L2138.51 1115.07L2135.64 1116.59L2137.97 1113.46L2134.15 1115.82L2133.7 1115.17L2135.68 1112.35L2135.51 1111.43L2136.86 1109.18L2134.74 1110.02L2134.28 1109.38L2132.67 1109.76L2130.35 1110.79L2133.07 1107.31L2130.74 1108.35L2133.26 1105.04L2131.4 1105.66L2131.68 1104.36L2128.03 1106.57L2132.48 1101.54L2128.57 1103.98L2129.14 1102.43L2126.93 1103.34L2126.92 1102.3L2129.87 1098.61L2128.3 1098.96L2126.96 1099.09L2124.56 1100.18L2123.7 1099.91L2128.23 1094.8L2125.74 1095.97L2123.07 1097.31L2122.73 1096.56L2125.49 1093.03L2122.08 1095.02L2124.42 1091.87L2120.74 1094.11L2121.41 1092.45L2119.94 1092.71L2121.58 1090.19L2121.17 1089.5L2118 1091.27L2122.16 1086.49L2119.92 1087.45L2121.83 1084.69L2120.89 1084.48L2116.54 1087.31L2117.88 1085.05L2116.59 1085.16L2115.55 1085.03L2113.85 1085.48L2115.45 1083L2118.07 1079.6L2116.89 1079.61L2115.44 1079.83L2112.71 1081.21L2115.57 1077.59L2111.57 1080.11L2113.34 1077.46L2112.75 1076.93L2113.3 1075.38L2112.75 1074.81L2109.29 1076.83L2113.02 1072.43L2109.65 1075.56L2109.77 1075.82L2108.99 1074.73L2108.15 1072.29L2107.47 1073.16L2106.83 1074.71L2105.92 1070.95L2105.33 1073.38L2104.73 1075.87L2103.88 1073.18L2103.23 1074.57L2102.63 1076.93L2101.73 1073.58L2101.16 1076.44L2100.44 1076.54L2099.49 1071.89L2098.75 1071.56L2098.2 1074.87L2097.66 1078.5L2096.77 1075.14L2096.06 1075.35L2095.32 1074.84L2094.64 1075.74L2094.05 1078.17L2093.26 1076.86L2092.35 1073.08L2091.68 1074.05L2091.12 1077.47L2090.34 1076.16L2089.61 1075.89L2088.74 1072.88L2088.17 1075.9L2087.31 1073.1L2086.77 1076.4L2086.18 1079.07L2085.22 1074.16L2084.75 1079.11L2083.83 1075.26L2083.12 1075.31L2082.43 1075.87L2081.69 1075.41L2080.88 1073.74L2080.46 1079.55L2079.61 1077.23L2079.02 1079.76L2078.15 1076.82L2077.38 1075.8L2076.5 1072.67L2075.76 1072.27L2075.19 1075.24L2074.32 1072.32L2073.97 1079.72L2073.17 1078.14L2072.34 1075.95L2071.6 1075.7L2071.01 1078.3L2070.28 1078.02L2069.56 1078.14L2068.77 1076.86L2068 1075.78L2067.28 1075.79L2066.76 1080.02L2065.9 1077.33L2064.96 1072.88L2064.31 1074.4L2063.76 1077.76L2062.96 1076.09L2062.33 1077.88L2061.4 1073.77L2060.87 1077.73L2060.12 1077.19L2059.55 1080.24L2058.87 1081.09L2057.86 1075.32L2057.28 1078.2L2056.38 1074.92L2055.9 1079.74L2055.07 1077.58L2054.28 1076.26L2053.77 1080.63L2052.77 1075.2L2052.03 1074.94L2052.6 1075.72L2053.16 1076.17L2052.52 1075.54L2049.67 1075.83L2052.63 1073.69L2048.32 1074.57L2048.55 1073.58L2050.32 1071.95L2051.78 1070.44L2051.37 1069.72L2050.65 1069.12L2045.87 1070.21L2047.93 1068.46L2051.45 1066.1L2048.65 1066.37L2047.19 1066.07L2047.36 1065.11L2045.61 1064.93L2045.82 1063.94L2044.26 1063.69L2047.33 1061.52L2046.68 1060.89L2047.2 1059.77L2047.72 1058.65L2044.32 1059.16L2048.56 1056.5L2047.5 1056.04L2041.91 1057.46L2046.19 1054.79L2046.56 1053.73L2045.59 1053.23L2041.78 1053.9L2042.69 1052.63L2045.3 1050.64L2045.24 1049.76L2043.28 1049.67L2040.77 1049.82L2042.16 1048.33L2043.47 1046.89L2039.93 1047.45L2041.76 1045.78L2041.57 1044.96L2043.28 1043.35L2043.85 1042.21L2040.91 1042.53L2042.77 1040.87L2040.8 1040.78L2038.77 1040.71L2042.69 1038.18L2037.02 1039.64L2036.37 1039L2041.78 1035.84L2036.71 1037.05L2040.78 1034.46L2038.99 1034.28L2040.38 1032.8L2037.39 1033.13L2039.59 1031.32L2036.31 1031.77L2039.28 1029.62L2035.44 1030.3L2036.86 1028.74L2034.98 1029.64L2035.13 1028.29L2034.68 1027.62L2035.8 1025.17L2032.51 1027.77L2032.25 1026.9L2031.7 1026.35L2033.32 1023.29L2031.1 1024.68L2031.6 1022.93L2029.14 1024.57L2032.58 1019.44L2030.26 1020.94L2030.84 1019.1L2026.92 1022.42L2026.69 1021.51L2027.81 1019.05L2029.29 1016.17L2026.39 1018.34L2026.73 1016.76L2026.95 1015.34L2026.05 1015.21L2027.28 1012.61L2023.03 1016.32L2022.49 1015.76L2025.02 1011.67L2022.91 1012.93L2024.05 1010.43L2023.2 1010.23L2019.43 1013.4L2020.09 1011.44L2022.16 1007.88L2018.73 1010.66L2018.19 1010.09L2020.47 1006.3L2020.88 1004.65L2016.63 1008.36L2018.63 1004.89L2018.88 1003.44L2016.66 1004.82L2013.83 1006.91L2017.02 1002.06L2014.06 1004.29L2016.26 1000.59L2013.42 1002.69L2015.17 999.506L2014.29 999.352L2012.12 1000.68L2009.97 1001.99L2012.26 998.184L2013.32 995.782L2011.16 997.115L2009.91 997.379L2007.95 998.448L2007.52 997.776L2010.33 993.358L2010.32 992.201L2006.58 995.319L2004.84 996.134L2004.69 995.132L2007.85 990.317L2004.21 993.336L2004.02 992.366L2003.97 991.231L2004.61 989.325L2001.87 991.286L2001.8 990.195L2002.1 988.675L1999.88 990.041L2002.9 985.402L2001.83 985.457L2002.53 983.463L1998.2 987.265L1998.05 986.262L2000.13 982.703L1999.9 981.788L1998.04 982.736L1999.25 980.158L1998.62 979.706L1996.39 981.083L1996.41 979.871L1993.68 981.832L1992.63 981.865L1992.47 980.863L1993.49 978.505L1991.23 979.915L1993.36 976.29L1991.28 977.502L1993.22 974.086L1993.4 972.687L1992.35 972.709L1990.39 973.778L1988.91 974.296L1987.88 974.296L1987.43 973.624L1990.78 968.588L1988.66 969.844L1987.82 969.624L1986.97 969.426L1986.66 968.599L1986.23 967.916L1985.23 967.883L1985.03 966.936L1985.57 965.129L1986.09 963.344L1984.13 964.401L1985.25 961.933L1983.51 962.738L1983.52 961.548L1983.12 960.809L1983.18 959.553L1978.57 963.663L1978.93 962.054L1979.83 959.829L1979.94 958.517L1977.03 960.666L1976.24 960.38L1979.5 955.421L1976.37 958.705L1975.66 954.793L1975.23 957.03L1974.09 954.033L1974.13 959.718L1973.45 960.049L1972.72 960.093L1972.14 961.14L1971.1 958.925L1970.32 958.562L1969.31 956.479L1968.68 957.173L1968.42 960.655L1967.47 959.068L1966.99 960.853L1966.39 961.79L1964.93 956.501L1965.13 963.299L1964.31 962.638L1962.71 956.215L1962.35 958.892L1961.96 961.459L1960.54 956.391L1960.65 962.627L1959.8 961.724L1959.13 962.165L1957.88 958.297L1957.82 963.288L1957.02 962.749L1955.56 957.46L1955.65 963.421L1955.2 965.481L1954.42 965.084L1953.58 964.269L1952.36 960.699L1951.56 960.126L1951.59 965.768L1950.6 963.828L1949.41 960.512L1948.81 961.437L1947.8 959.443L1947.11 959.685L1946.65 961.691L1946.02 962.374L1945.7 965.338L1944.21 959.73L1943.96 963.288L1943.05 961.922L1942.47 963.002L1941.42 960.71L1941.12 963.839L1940.15 962.032L1940.01 966.451L1938.69 962.054L1938.51 966.142L1937.42 963.509L1936.79 964.225L1936.68 968.842L1935.06 962.242L1934.29 962.021L1933.65 962.627L1933 963.244L1932.37 963.994L1931.78 965.073L1930.72 962.649L1929.97 962.561L1929.81 966.748L1929.27 968.17L1928.17 965.437L1927.93 969.04L1926.94 967.145L1926.08 966.263L1924.93 963.266L1925.02 969.227L1924.37 969.844L1923.7 970.34L1922.07 963.663L1922.2 969.988L1921.42 969.701L1920.84 970.847L1920.23 971.773L1918.96 967.806L1918.66 970.935L1917.52 968.026L1917.15 970.638L1915.68 965.25L1915.1 966.374L1915.03 971.332L1913.74 967.244L1913.46 970.583L1912.64 969.977L1911.81 969.327L1911.11 969.58L1911.14 967.993L1909.71 969.271L1909.7 968.324L1909.06 967.784L1911.22 965.481L1909.13 965.834L1908.08 965.547L1908.03 964.633L1910.67 962.021L1909 962.121L1904.98 963.685L1906.29 961.922L1907.26 960.358L1905.44 960.545L1902.99 961.129L1903.2 960.06L1902.71 959.432L1902.89 958.374L1906.59 955.113L1906.98 953.923L1902.26 955.928L1902.4 954.903L1903.85 953.052L1900.53 954.176L1900.21 953.427L1900.79 952.116L1900.34 951.455L1900.67 950.287L1900.82 949.24L1901.96 947.576L1901.65 946.816L1899.18 947.422L1899.9 946.023L1896.41 947.257L1900.99 943.444L1899.95 943.136L1900.03 942.144L1900.76 940.745L1894.88 943.477L1894.96 942.486L1896.49 940.58L1898.76 938.2L1899.17 936.988L1896.54 937.693L1894.98 937.704L1896.33 935.908L1897.72 934.09L1893.26 935.93L1892.28 935.588L1895.74 932.47L1894.98 931.996L1894.88 931.115L1892.61 931.577L1892.85 930.476L1890.44 931.027L1891.22 929.583L1891.16 928.669L1889.74 928.603L1891.67 926.443L1890.97 925.936L1891.56 924.603L1887.85 925.98L1886.57 925.815L1889.07 923.303L1888.5 922.697L1889.98 920.824L1885.53 922.664L1886.37 921.187L1888.5 918.906L1888.47 917.97L1887.71 917.485L1888.89 915.799L1887.82 915.513L1886.11 915.623L1888.18 913.364L1883.5 915.347L1886.7 912.383L1884.6 912.736L1882.8 912.901L1886.41 909.684L1883.11 910.797L1881.35 910.929L1884.81 907.8L1880.15 909.761L1882.47 906.995L1881.33 907.315L1880.13 908.747L1879.71 907.623L1879.06 907.238L1879.56 903.15L1877.62 906.962L1877.93 903.47L1876.57 905.431L1875.75 905.607L1875.83 902.841L1875.45 901.596L1873.48 905.497L1873.52 902.897L1873.67 899.9L1870.82 906.665L1871.26 902.72L1869.71 905.266L1870.28 900.924L1868.56 904.02L1869.5 898.478L1867.62 902.081L1866.74 902.467L1866.58 900.484L1865.38 901.894L1865.55 898.831L1863.91 901.651L1864.01 898.842L1863.26 898.776L1861.91 900.649L1862.07 897.63L1860.48 900.296L1859.79 900.032L1858.75 900.924L1859.37 896.396L1858.24 897.586L1856.9 899.448L1856.08 899.602L1857.08 893.839L1856.64 892.782L1854.2 898.236L1853.8 897.035L1852.63 898.335L1852.92 894.886L1852.43 893.972L1851.23 895.371L1851.35 892.495L1850.22 893.641L1849.44 893.652L1849.47 891.019L1847.98 893.377L1847.4 892.738L1846.46 893.289L1846.62 890.225L1845.87 890.148L1844.14 893.255L1843.9 891.515L1842.51 893.476L1841.62 893.806L1842.6 888.077L1842.04 887.35L1840.9 888.529L1838.7 893.09L1840.06 886.127L1837.6 891.537L1837.85 888.176L1836.15 891.008L1835.2 891.426L1835.83 886.722L1835.11 886.38L1832.33 884L1833.23 888.154L1833.91 888.969L1836.56 892.297L1833.72 892.363L1832.64 890.424L1831.98 890.831L1831.12 890.181L1829.98 887.934L1829.47 889.146L1828.58 888.286L1828.37 891.206L1828.19 894.324L1827.56 894.941L1826.57 893.553L1825.37 890.931L1825.33 894.82L1823.95 891.294L1822.84 889.201L1823.15 895.018L1821.71 891.118L1820.6 888.98L1821.04 895.624L1819.63 891.856L1819.68 896.275L1818.82 895.558L1818.37 897.156L1817.4 895.845L1816.67 895.933L1815.72 894.699L1815.47 897.398L1813.8 892.209L1813.13 892.561L1812.72 894.423L1812.79 898.908L1811.1 893.575L1810.26 893.013L1809.94 895.382L1809.48 896.947L1809.03 898.533L1808.44 899.371L1806.61 893.255L1806.02 894.082L1806.29 899.69L1804.94 896.297L1804.84 899.844L1804.13 900.01L1802.72 896.219L1801.82 895.283L1802.04 900.649L1801.13 899.723L1800.71 901.464L1798.89 895.437L1798.65 898.203L1797.46 895.646L1797.61 900.572L1796.7 899.624L1795.4 896.462L1794.77 897.035L1794.17 897.839L1793.97 900.781L1792.54 896.881L1792.27 899.503L1791.43 898.919L1790.59 898.357L1790.62 902.632L1789.52 900.638L1788.11 896.936L1787.79 899.227L1787.15 899.789L1786.47 900.12L1786.36 903.679L1785.03 900.318L1783.9 898.126L1783.39 899.415L1782.58 899.007L1782.22 901.123L1782.38 906.169L1781.26 904.042L1780.56 904.263L1779.84 904.351L1778.27 899.69L1778.33 904.219L1777.51 903.734L1777.15 905.861L1775.63 901.508L1776 907.69L1775.02 906.367L1773.6 902.566L1772.8 902.213L1772.8 906.345L1771.46 902.985L1770.86 903.811L1770.23 904.439L1769.65 905.266L1769.65 909.453L1768 904.362L1767.66 906.577L1766.39 903.679L1766.03 905.783L1765.42 906.544L1764.35 904.726L1764.47 909.519L1763.58 908.725L1763.11 910.268L1762.14 909.045L1761.39 908.141L1761.71 909.386L1762.43 911.315L1757.17 906.775L1758.22 909.056L1757.07 908.968L1756.83 909.849L1756.83 910.995L1758.72 914.179L1757.84 914.389L1757.13 914.763L1757.23 916.031L1756.21 916.064L1757.07 918.146L1755.2 917.276L1752.61 915.634L1752.44 916.603L1753.17 918.521L1753.31 919.821L1749.86 917.243L1752.89 921.65L1751.26 921.033L1749.09 919.832L1749.96 921.914L1747.3 920.184L1749.35 923.534L1748.19 923.413L1747.42 923.732L1748.43 925.947L1745.99 924.46L1747.65 927.39L1745.28 925.969L1747.21 929.198L1743.12 925.925L1745.96 930.134L1745.54 930.817L1742.76 928.966L1745.59 933.153L1743.06 931.566L1742.99 932.635L1740.78 931.401L1741.05 932.845L1740.85 933.781L1742.53 936.745L1737.65 932.624L1737.28 933.385L1737.83 935.125L1737.47 935.886L1740.09 939.863L1734.83 935.335L1738.38 940.315L1734.24 936.999L1736.75 940.855L1737.25 942.53L1735.03 941.285L1735.91 943.378L1732.09 940.403L1732.36 941.836L1734.66 945.472L1734.66 946.618L1733.78 946.838L1731.36 945.384L1731.58 946.761L1731.34 947.653L1728.58 945.835L1729.11 947.554L1728.73 948.292L1726.62 947.169L1728.93 950.805L1727.48 950.397L1724.78 948.645L1726.78 951.962L1723.98 950.088L1725.51 952.898L1723.3 951.664L1724.09 953.669L1723.3 953.978L1722.76 954.54L1722.05 954.937L1724.75 959.002L1721.45 956.589L1719.73 955.873L1723.35 960.931L1719.12 957.504L1721.61 961.36L1721.93 962.848L1718.53 960.347L1717.31 960.181L1716.98 960.986L1716.11 961.195L1717.82 964.203L1714.96 962.275L1717.66 966.352L1715.85 965.558L1713 963.641L1717.06 969.183L1711.71 964.578L1714.24 968.467L1714.79 970.23L1714.76 971.376L1712.83 971.629L1711.57 968.886L1710.69 970.836L1710.37 965.724L1709.07 972.963L1708.76 967.729L1707.89 969.558L1706.95 972.279L1706.75 965.668L1706.06 965.184L1705.1 968.181L1704.6 965.382L1703.77 966.682L1703.06 966.572L1702.19 968.401L1701.58 967.024L1700.94 965.999L1700.27 965.316L1699.26 968.941L1698.86 964.798L1698.06 965.801L1697.07 969.26L1696.24 970.627L1695.87 966.142L1695.19 965.746L1694.03 971.288L1693.82 964.743L1692.55 971.662L1692.3 965.757L1691.54 966.219L1690.52 969.944L1689.69 971.31L1689.43 965.437L1688.48 968.324L1687.54 971.089L1687.08 967.85L1686.38 967.486L1685.94 963.917L1684.81 969.051L1684.49 963.872L1683.73 964.335L1682.66 968.809L1682.4 962.87L1681.54 964.545L1680.93 963.134L1680.01 965.47L1678.97 969.503L1678.64 964.467L1677.91 964.589L1676.8 969.459L1676.31 966.539L1675.89 962.627L1674.85 966.649L1674.01 968.148L1673.4 966.66L1672.73 966.01L1672.13 964.412L1671.34 965.239L1670.58 965.79L1670.15 961.944L1669.47 961.514L1668.71 961.911L1667.7 965.569L1667.14 963.388L1666.35 964.192L1665.61 964.445L1664.94 963.795L1664.24 963.575L1663.37 965.338L1663 960.897L1662.19 961.878L1660.96 968.159L1660.75 961.702L1659.79 964.721L1659.22 962.627L1658.3 965.106L1657.7 963.564L1656.94 964.005L1655.92 967.696L1655.76 960.545L1655.07 960.192L1654.19 962.121L1653.34 963.729L1652.52 964.941L1652.18 960.082L1651.12 964.423L1650.52 962.649L1649.86 961.933L1648.84 965.58L1648.47 961.063L1647.41 965.272L1647.14 959.564L1646.31 960.897L1645.64 960.126L1644.8 961.559L1643.82 964.897L1643.11 964.677L1642.63 961.459L1641.66 964.556L1640.84 965.757L1640.35 962.815L1639.42 965.404L1639.16 959.564L1638.41 959.895L1637.33 964.192L1636.73 962.671L1635.79 965.448L1635.18 964.038L1634.53 963.068L1634.09 959.487L1633.19 961.856L1632.37 962.969L1631.64 963.024L1631.12 960.589L1630.53 958.804L1629.49 962.782L1629.15 958L1627.96 963.928L1627.32 962.738L1627.07 956.699L1625.97 961.349L1625.23 961.625L1624.33 963.762L1623.93 959.597L1622.97 962.616L1622.35 961.25L1621.62 961.404L1621.01 959.763L1620.37 958.782L1619.72 957.79L1618.63 962.308L1618.12 959.564L1617.08 963.454L1616.75 958.429L1615.99 958.925L1615.02 961.944L1614.65 957.548L1613.83 958.639L1613.1 958.573L1612.07 962.517L1611.85 956.027L1611.17 955.443L1610.07 960.082L1609.69 955.785L1609.05 954.661L1607.86 960.435L1607.54 955.278L1606.49 959.399L1606.07 955.565L1605.4 954.771L1604.54 956.391L1603.42 961.327L1603.19 955.014L1602.37 956.071L1601.4 959.101L1600.49 961.382L1600.13 956.688L1599.45 955.961L1598.88 953.868L1597.62 956.082L1597.38 958.077L1595.27 955.554L1596.89 960.424L1595.95 960.214L1593.48 956.997L1595.12 961.9L1594.04 961.404L1593.23 961.47L1591.4 959.52L1592.65 963.652L1591.85 963.74L1591.1 963.917L1591.37 966.109L1588.02 961.118L1588.35 963.443L1587.5 963.421L1588.94 967.916L1588.21 968.148L1585.19 963.828L1584.78 964.677L1584.58 965.933L1584.04 966.506L1584.75 969.58L1582.81 967.398L1581.36 966.153L1580.16 965.448L1580.72 968.214L1579.33 967.112L1580.39 970.869L1580.17 972.103L1577.74 968.93L1577.7 970.494L1575.98 968.765L1576.19 970.836L1576.13 972.357L1576.08 973.921L1574.12 971.684L1573.73 972.566L1574.47 975.706L1572.95 974.34L1573.13 976.367L1572.62 976.995L1571.5 976.433L1569.84 974.825L1569.09 974.99L1569.48 977.425L1567.75 975.662L1568.09 977.987L1566.14 975.783L1565.24 975.684L1565.94 978.725L1564.72 977.954L1563.82 977.855L1563 977.899L1563.4 980.345L1561.7 978.626L1561.04 978.99L1560.77 980.125L1560.01 980.279L1558.96 979.838L1558.85 981.304L1559.16 983.562L1557.61 982.163L1559.15 986.857L1556.65 983.584L1557.16 986.251L1556.74 987.055L1554.69 984.653L1555.29 987.507L1552.7 984.036L1554.71 989.678L1552.9 987.76L1551.1 985.854L1552.34 989.964L1550.84 988.664L1550.58 989.81L1548.5 987.364L1551.14 994.272L1548.81 991.308L1548.55 992.443L1547.12 991.275L1546.4 991.518L1544.66 989.744L1545.5 993.071L1545.04 993.809L1545.9 997.192L1542.6 992.3L1542.52 993.787L1542.17 994.768L1540.81 993.754L1541.84 997.434L1539.09 993.666L1539.81 996.74L1539.45 997.699L1540.22 1000.89L1538.51 999.164L1538.03 999.848L1537.93 1001.31L1536.06 999.253L1536.19 1001.17L1533.77 998.018L1534.67 1001.46L1535.55 1004.87L1533.09 1001.64L1531.74 1000.63L1530.56 999.947L1530.02 1000.55L1530.83 1003.83L1529.38 1002.61L1528.09 1001.71L1530.34 1007.86L1529.36 1007.57L1526.07 1002.71L1526.76 1005.74L1525.15 1004.21L1525.59 1006.75L1524.9 1007.02L1524.57 1008.05L1523.47 1007.51L1523.61 1009.46L1521.43 1006.81L1523.01 1011.58L1520.5 1008.29L1519.94 1008.84L1521.11 1012.82L1520.94 1014.15L1519.39 1012.77L1519.8 1015.25L1516.68 1010.74L1515.76 1010.58L1517.21 1015.11L1516.4 1015.17L1516.41 1016.85L1514.46 1014.68L1514.82 1017.05L1513.53 1016.18L1512.36 1015.5L1513.85 1020.14L1511.37 1016.89L1509.87 1015.59L1511.05 1019.59L1508.39 1016L1508.09 1017.06L1507.51 1017.61L1508.9 1022.03L1505.72 1017.39L1506.33 1020.26L1505.11 1019.5L1506.51 1023.94L1503.83 1020.29L1504 1022.31L1503.25 1022.5L1503.77 1025.2L1500.41 1020.22L1502.88 1026.79L1499.87 1022.51L1500.1 1024.63L1499.09 1024.33L1499.8 1027.39L1500 1029.48L1497.49 1026.18L1495.75 1024.41L1495.04 1024.69L1496.38 1029.02L1495.74 1029.44L1492.53 1026.4L1494.78 1029.99L1495.56 1031.53L1491.74 1029.77L1493.59 1032.08L1494.5 1033.71L1494.81 1034.91L1490.03 1032.47L1490.61 1033.87L1490.94 1035.08L1488.8 1034.54L1492.75 1038.36L1490.32 1037.6L1489.01 1037.65L1489.83 1039.23L1490 1040.33L1488.23 1040.05L1486.43 1039.75L1488.03 1041.87L1485.81 1041.27L1485.6 1042.1L1485.81 1043.23L1483.82 1042.79L1487.29 1046.25L1485.14 1045.7L1486.77 1047.84L1487.49 1049.34L1482.38 1046.68L1484.32 1049.06L1485.24 1050.7L1483.24 1050.26L1482.04 1050.39L1482.48 1051.69L1480.81 1051.48L1480.53 1052.27L1482.9 1054.94L1480 1053.86L1478.54 1053.8L1480.44 1056.15L1478.36 1055.66L1479.89 1057.73L1480.16 1058.92L1480.06 1059.83L1479.91 1060.71L1476.06 1058.94L1480.32 1062.98L1477.18 1061.73L1477.53 1062.97L1479.43 1065.31L1474.54 1062.81L1475.16 1064.23L1476.43 1066.11L1472.63 1064.39L1476.95 1068.46L1473.94 1067.3L1474.79 1068.9L1472.95 1068.58L1472.62 1069.33L1470.4 1068.75L1472.82 1071.46L1471.75 1071.69L1472.15 1072.97L1471.5 1073.49L1471.48 1074.48L1470.84 1075L1470.53 1075.79L1467.44 1074.57L1469.17 1076.81L1470.45 1080.62L1468.52 1074.18L1467.73 1076.67L1467 1077.1L1466.27 1077.41L1465.64 1074.5L1464.91 1074.87L1464.16 1076.13L1463.38 1078.43L1462.61 1080.09L1461.95 1078.18L1461.31 1075.48L1460.5 1078.68L1459.82 1077.15L1459.07 1078.42L1458.32 1079.62L1457.69 1076.4L1456.95 1077.09L1456.24 1076.89L1455.58 1074.73L1454.83 1075.82L1454.08 1076.89L1453.32 1078.09L1452.67 1075.68L1451.99 1074.29L1451.3 1073.43L1450.42 1078.68L1449.63 1080.9L1448.94 1080.23L1448.31 1076.87L1447.62 1075.98L1446.94 1074.46L1446.17 1076.19L1445.33 1080.2L1444.72 1076.3L1444.06 1074.72L1443.26 1077.44L1442.62 1074.64L1441.77 1079.11L1441.01 1080.49L1440.3 1079.98L1439.71 1075.63L1439.05 1073.68L1438.32 1074.28L1437.64 1072.65L1436.91 1073.04L1435.98 1080.14L1435.34 1077.79L1434.69 1075.28L1433.87 1078.64L1433.12 1079.24L1432.54 1074.65L1431.86 1073.23L1430.93 1080.13L1430.24 1079.25L1429.61 1076.14L1428.93 1074.57L1428.2 1075.1L1427.44 1076.05L1426.83 1072.57L1426.12 1072.24L1425.35 1073.99L1424.6 1074.82L1423.91 1074.14L1423.21 1073.19L1422.36 1077.37L1421.76 1073.3L1421.08 1072.06L1420.33 1073.02L1419.49 1076.8L1418.7 1079.32L1418.09 1075.44L1417.41 1074.31L1416.62 1076.59L1415.84 1078.41L1415.1 1079.16L1414.51 1074.66L1413.82 1073.56L1413.15 1071.99L1412.25 1077.84L1411.61 1075.07L1410.98 1072.16L1410.08 1078.39L1409.38 1077.45L1408.74 1074.55L1408.09 1072.16L1407.35 1072.69L1406.55 1075.43L1405.77 1077.53L1405.15 1074.16L1404.31 1078.11L1403.75 1072.87L1403.06 1071.95L1402.34 1072.18L1401.6 1072.65L1400.85 1073.84L1400.04 1076.73L1399.27 1078.66L1398.64 1075.62L1398.05 1071.24L1397.29 1072.45L1396.37 1078.85L1395.67 1078.23L1394.94 1078.3L1394.36 1073.74L1393.68 1072.22L1392.78 1078.34L1392.09 1077.01L1391.36 1077.56L1390.75 1073.88L1389.97 1075.78L1389.39 1070.84L1388.58 1073.63L1387.87 1073.26L1387.17 1072.41L1386.44 1072.84L1385.64 1075.21L1385.03 1071.5L1384.13 1077.32L1383.55 1072.46L1382.71 1076.57L1382.05 1074.5L1381.36 1073L1380.54 1076.33L1379.97 1071.3L1379.13 1075.24L1378.52 1071.39L1377.71 1074.23L1376.88 1077.84L1376.38 1070.28L1375.62 1071.46L1374.83 1073.59L1374.09 1074.24L1373.43 1071.9L1372.73 1070.84L1371.81 1077.54L1371.11 1076.82L1370.5 1073.05L1369.8 1071.76L1369.12 1070L1368.32 1072.43L1366.71 1070.57L1366.9 1074.1L1367.17 1075.9L1364.52 1073.21L1363.82 1073.49L1363.73 1074.74L1364.28 1076.97L1365.29 1079.91L1363.21 1078.07L1361.8 1077.27L1363.91 1081.89L1362.35 1080.87L1362.77 1082.89L1362.13 1083.28L1361.39 1083.51L1360.74 1083.87L1357.95 1080.95L1357.94 1082.31L1356.38 1081.27L1355.02 1080.57L1357.55 1085.85L1353.69 1081.26L1354.39 1083.74L1355.63 1087.03L1353.6 1085.28L1355.14 1089.04L1352.79 1086.82L1354.02 1090.1L1350.62 1086.24L1349.2 1085.45L1351.95 1091.07L1349.87 1089.24L1347.37 1086.79L1348.21 1089.46L1348 1090.53L1346.19 1089.12L1348.21 1093.6L1347.64 1094.11L1348.03 1096.09L1344.78 1092.47L1346.77 1096.91L1342.32 1091.45L1343.18 1094.15L1342.86 1095.06L1342.79 1096.35L1341.29 1095.42L1342.84 1099.2L1342.78 1100.5L1338.76 1095.7L1339.87 1098.78L1339.1 1098.98L1338.42 1099.32L1339.75 1102.77L1338.26 1101.86L1337.55 1102.15L1335.34 1100.15L1336.57 1103.43L1336.3 1104.41L1336.34 1105.86L1335.78 1106.38L1332.76 1103.11L1331.53 1102.63L1331.48 1103.94L1332.66 1107.14L1329.24 1103.27L1328.8 1103.98L1329.59 1106.58L1330.81 1109.83L1327.22 1105.71L1326.58 1106.11L1326.11 1106.79L1327.79 1110.75L1325.16 1108.11L1325.45 1109.93L1325.37 1111.22L1326.31 1114.06L1325.02 1113.48L1323.84 1113.05L1323.3 1113.61L1323.21 1114.88L1323.5 1116.73L1321.8 1115.51L1320.84 1115.43L1321.74 1118.23L1320.14 1116.84L1318.35 1116.77L1318.19 1117.59L1317.09 1118.03L1318.6 1119.54L1316.28 1119.47L1315.24 1119.94L1318.23 1122.06L1320.75 1124L1314.58 1122.35L1316.73 1124.12L1315.94 1124.7L1314.85 1125.14L1316.56 1126.74L1313.63 1126.42L1313.65 1127.32L1317.46 1129.79L1313.21 1128.91L1313.66 1130L1314.47 1131.22L1312.18 1131.16L1316.88 1134L1316.51 1134.73L1313.01 1134.18L1313.81 1135.41L1311.91 1135.51L1316.48 1138.3L1310.68 1136.78L1314.13 1139.11L1309.81 1138.22L1309.38 1138.93L1310.76 1140.4L1313.38 1142.37L1312.24 1142.79L1309.34 1142.47L1311.48 1144.24L1309.49 1144.31L1311.17 1145.9L1307.43 1145.25L1311.61 1147.86L1307.32 1146.98L1310.15 1149.05L1306.8 1148.55L1308.03 1149.95L1310.2 1151.75L1308.98 1152.13L1308.02 1152.62L1306.21 1152.76L1310.97 1155.63L1306.66 1154.72L1308.41 1156.34L1310.09 1157.93L1309.28 1158.48L1310.08 1159.7L1305.32 1158.62L1305.98 1159.79L1307.73 1161.41L1306.54 1161.81L1308.87 1163.68L1303.71 1162.44L1307.39 1164.85L1303.69 1164.21L1302.6 1164.65L1307.61 1167.62L1306.64 1168.11L1304.77 1168.23L1305.91 1169.6L1306.49 1170.73L1304.7 1170.89L1303.14 1171.14L1302.6 1171.81L1303.55 1173.09L1300.8 1172.85L1299.72 1173.3L1299.08 1173.93L1301.07 1175.65L1303.23 1177.44L1298.13 1176.23L1302.09 1178.76L1299.78 1178.7L1300.71 1179.97L1300.59 1180.81L1299.28 1181.17L1298.45 1181.72L1300.3 1183.38L1298.08 1183.36L1296.76 1183.71L1295.69 1184.16L1300.76 1187.17L1297.04 1186.52L1296.93 1187.38L1298.91 1189.1L1298.96 1190.03L1298.92 1190.9L1296.68 1190.87L1297.02 1191.92L1294.92 1191.95L1294 1194.36L1298.58 1191.18L1299.37 1191.34L1298.74 1193.9L1298.97 1195.01L1298.8 1196.79L1301.36 1193.88L1301.52 1195.1L1302.03 1195.7L1300.16 1200.38L1301.3 1199.91L1301.04 1201.85L1305.31 1196.02L1304.56 1198.78L1304.32 1200.69L1303.69 1203.26L1305.32 1201.97L1306.92 1200.7L1306.87 1202.3L1309.14 1199.91L1307.93 1203.48L1307.38 1205.92L1308.51 1205.5L1311.58 1201.73L1311.11 1204.04L1311.82 1204.33L1313.43 1203.05L1314 1203.58L1314.43 1204.34L1314.69 1205.37L1315.24 1205.94L1315.62 1206.78L1315.02 1209.29L1317.8 1206.03L1318.01 1207.17L1315.51 1212.94L1317.01 1211.87L1316.92 1213.53L1317.68 1213.74L1319.53 1212.06L1321.68 1209.88L1321.93 1210.97L1320.04 1215.71L1320.19 1216.94L1321.91 1215.49L1322.74 1215.58L1323.02 1216.59L1325.53 1213.79L1325.83 1214.77L1324.71 1218.21L1324.44 1220.18L1325.52 1219.83L1328.91 1215.53L1327.25 1219.86L1328.82 1218.68L1329.7 1218.7L1329.02 1221.36L1330.51 1220.31L1329.85 1222.94L1330.16 1223.91L1330.79 1224.33L1332.87 1222.24L1334.6 1220.79L1335.14 1221.36L1333.35 1225.95L1334.71 1225.12L1336.58 1223.41L1334.81 1227.97L1336.42 1226.71L1337.82 1225.85L1338.55 1226.09L1336.89 1230.44L1339.82 1226.94L1340.65 1227.04L1339.72 1230.14L1341.71 1228.25L1340.25 1232.27L1342.41 1230.1L1342.35 1231.86L1343.7 1230.82L1343.31 1233.54L1344.07 1233.65L1345.72 1231.74L1345.29 1234.54L1346.52 1233.61L1346.7 1235.04L1348.62 1232.5L1348.62 1234.37L1349.9 1233.28L1349.9 1235.13L1350.96 1234.58L1350.66 1237.08L1350.75 1238.72L1352.4 1236.79L1352.02 1239.49L1354.56 1235.53L1355.45 1235.32L1355.17 1237.8L1355.38 1239.17L1355.02 1241.84L1356.77 1239.69L1359.01 1236.45L1358.48 1239.49L1359.22 1239.66L1359.62 1240.6L1359.24 1243.3L1361.06 1241.01L1362.46 1239.65L1361.7 1243.23L1364.17 1239.43L1361.9 1246.47L1364.97 1241.28L1365.86 1241.13L1364.68 1245.64L1365.12 1246.49L1367.87 1242.07L1367.63 1244.48L1369.09 1242.97L1368.75 1245.61L1368.95 1246.99L1369.96 1246.56L1371.46 1244.99L1372.29 1244.94L1371.52 1248.54L1371.92 1249.49L1373.58 1247.54L1373.19 1250.3L1373.73 1250.91L1373.74 1252.73L1375.89 1249.67L1376.21 1250.84L1376.57 1251.85L1376.42 1254.05L1379.19 1249.58L1379.26 1251.27L1378.08 1255.82L1380.54 1252.07L1381.18 1252.46L1381.94 1252.58L1382.44 1253.29L1381.54 1257.22L1381.87 1258.31L1382.99 1257.6L1385.37 1254.01L1384.68 1257.44L1384.65 1259.36L1385.13 1260.12L1386.34 1259.24L1386.94 1259.73L1388.44 1258.14L1389.14 1258.42L1388.89 1260.84L1389.69 1260.9L1392.2 1257.04L1392.12 1259.09L1392.99 1258.97L1392.65 1261.6L1394.44 1259.38L1394.12 1262.01L1394.36 1265.67L1395.69 1262.38L1396.17 1259.93L1397.13 1262.28L1397.61 1259.95L1398.7 1263.55L1399.38 1263.18L1399.69 1259.13L1400.25 1257.52L1401.24 1260.06L1402.23 1262.8L1403.09 1264.05L1403.57 1261.69L1404.16 1260.41L1404.87 1260.3L1405.23 1256.82L1406.55 1262.68L1406.88 1258.81L1407.93 1262.04L1408.18 1257.38L1409.25 1260.82L1409.52 1256.4L1410.32 1257.14L1411.67 1263.21L1412.25 1261.84L1412.52 1257.48L1413.19 1256.94L1414.37 1261.38L1414.88 1259.3L1415.28 1256.16L1416.16 1257.73L1416.86 1257.49L1418.08 1262.36L1418.26 1257.12L1418.74 1254.73L1419.94 1259.32L1420.35 1256.37L1421.3 1258.56L1421.8 1256.39L1422.99 1260.97L1423.42 1258.1L1424 1256.73L1425.04 1259.9L1425.86 1260.81L1426.25 1257.54L1426.8 1255.97L1427.57 1256.46L1428.2 1255.51L1428.95 1255.83L1429.69 1256L1430.69 1258.71L1431.49 1259.49L1431.73 1254.85L1432.61 1256.3L1433.73 1260.21L1434.44 1260.07L1434.85 1256.97L1435.57 1257L1436.02 1254.27L1436.65 1253.37L1437.82 1257.76L1438.4 1256.43L1438.86 1253.8L1439.72 1255.1L1440.75 1258.19L1441.35 1256.88L1442.08 1256.96L1442.74 1256.3L1443.38 1255.46L1443.98 1254.3L1445.17 1258.78L1445.72 1257.08L1446.22 1254.89L1447.03 1255.67L1447.57 1253.97L1448.17 1252.62L1449 1253.78L1449.56 1252.15L1450.21 1251.4L1451.49 1256.87L1452.12 1255.87L1452.75 1254.92L1453.3 1253.35L1454.13 1254.32L1454.56 1251.39L1455.22 1250.74L1456.08 1251.97L1456.85 1252.43L1457.63 1252.94L1458.61 1255.42L1458.95 1251.6L1459.9 1253.8L1460.33 1250.81L1461.03 1250.62L1462.45 1250.19L1464.26 1249.97L1464.56 1250.98L1463.03 1255.4L1464.59 1254.1L1463.62 1257.47L1467.18 1252.44L1466.08 1256.06L1466.57 1256.74L1468.52 1254.69L1467.95 1257.34L1467.02 1260.63L1468.43 1259.58L1471.03 1256.35L1469.91 1259.99L1472.81 1256.21L1470.69 1261.72L1471.21 1262.33L1473.97 1258.8L1473.98 1260.36L1473.77 1262.33L1475.6 1260.53L1474.1 1264.9L1476.56 1261.92L1477.29 1262.14L1475.84 1266.4L1479.13 1261.88L1478.88 1263.94L1479.1 1265.09L1479.94 1265.13L1481.03 1264.67L1481.09 1266.15L1479.69 1270.33L1483.57 1264.71L1481.8 1269.57L1481.73 1271.29L1483.81 1269.03L1483.23 1271.66L1484.57 1270.75L1487.07 1267.67L1486.58 1270.14L1488.28 1268.58L1487.82 1270.98L1487.78 1272.64L1487.5 1274.73L1490.96 1269.9L1490.66 1272.04L1490.55 1273.79L1489.7 1276.96L1490.28 1277.46L1493.02 1273.97L1493.51 1274.65L1491.84 1279.32L1492.44 1279.79L1495.46 1275.77L1496.67 1275.13L1495.81 1278.28L1495.88 1279.74L1496.91 1279.41L1498.53 1277.97L1497 1282.41L1500.65 1277.21L1498.43 1282.9L1500.6 1280.45L1502.57 1278.39L1502.67 1279.79L1500.72 1284.97L1503.52 1281.38L1504.3 1281.53L1505.07 1281.68L1503.29 1286.57L1506.01 1283.12L1505.96 1284.79L1507.47 1283.58L1507.56 1284.98L1508.48 1284.87L1506.53 1290.07L1508.89 1287.3L1510.15 1286.54L1510.54 1287.38L1509.88 1290.19L1510.77 1290.15L1510.22 1292.75L1511.51 1291.96L1513.29 1290.23L1515.54 1287.66L1513.68 1292.69L1514.14 1293.43L1516.26 1291.09L1514.55 1295.83L1517.91 1291.2L1518.96 1290.82L1516.62 1296.74L1519.36 1293.26L1518.13 1297.12L1520.17 1294.95L1520.91 1295.16L1520.44 1297.63L1523.05 1294.37L1523.26 1295.58L1524.65 1294.6L1522.31 1300.53L1525.45 1296.31L1526.29 1296.35L1526.5 1297.56L1524.71 1302.48L1525.31 1302.97L1528.52 1298.63L1527.93 1301.04L1528.15 1299.78L1529.18 1300.63L1529.61 1299.55L1529.53 1296.82L1530.63 1297.92L1531.63 1298.68L1532.2 1298.03L1532.16 1295.39L1534.82 1301.59L1535.38 1300.89L1534.45 1295.41L1535.77 1297.21L1536.34 1296.57L1537.72 1298.58L1538.21 1297.68L1539.37 1299.01L1538.37 1293.21L1540.94 1299.15L1541.06 1297.03L1541.64 1296.46L1542.4 1296.45L1542.52 1294.35L1543.93 1296.44L1543.92 1293.93L1545.7 1297.28L1546.24 1296.56L1546.44 1294.71L1547.47 1295.59L1546.77 1290.81L1548.92 1295.35L1549.8 1295.71L1549.97 1293.81L1550.41 1292.74L1550.65 1291.06L1550.75 1288.87L1551.65 1289.35L1553.03 1291.36L1552.66 1287.65L1553.34 1287.39L1555.34 1291.42L1555.05 1287.99L1556.05 1288.77L1556.66 1288.27L1556.97 1286.8L1558.02 1287.7L1560.12 1292.03L1558.92 1285.67L1559.33 1284.5L1560.96 1287.32L1561.95 1288.06L1561.73 1284.85L1563.92 1289.48L1564.48 1288.79L1565.36 1289.19L1564.05 1282.4L1566.89 1289.2L1566.88 1286.68L1566.07 1281.52L1568.77 1287.85L1569.42 1287.49L1568.05 1280.51L1569.7 1283.42L1570.86 1284.7L1570.51 1281.07L1572.01 1283.52L1572.76 1283.42L1572.95 1281.57L1573.55 1281.02L1574.07 1280.24L1574.36 1278.66L1576.56 1283.35L1576.92 1282.07L1576.49 1278.15L1576.88 1276.92L1578.67 1280.27L1579.99 1282.08L1579.35 1277.49L1580.89 1280.01L1581.96 1280.99L1581.52 1277.04L1583.74 1281.82L1583.15 1277.41L1583.65 1276.52L1583.59 1273.84L1585.98 1279.14L1585.62 1275.46L1585.9 1273.9L1587.38 1276.2L1588.81 1278.39L1589.42 1277.89L1590.57 1279.15L1591.09 1278.35L1591.83 1278.26L1591.04 1273.16L1593.3 1278.05L1593.11 1274.94L1594.14 1275.78L1593.92 1272.59L1595.35 1274.77L1596.57 1276.24L1596.9 1274.82L1597.33 1273.74L1597.38 1271.44L1597.49 1269.28L1599.5 1273.36L1598.77 1268.44L1600.4 1271.3L1601.57 1272.59L1602.42 1272.87L1601.7 1268.04L1603.4 1271.08L1602.76 1266.5L1603.4 1266.14L1605.07 1269.08L1604.67 1265.29L1606.13 1267.54L1607.38 1269.16L1607.73 1267.8L1607.88 1265.78L1609.48 1268.52L1610.93 1270.75L1611.25 1269.29L1611.76 1268.43L1612.23 1267.47L1611.78 1263.5L1612.65 1263.85L1614.91 1268.71L1614.73 1265.62L1616.03 1267.35L1616.8 1267.37L1616.95 1265.36L1616.46 1261.29L1617.03 1260.61L1618.36 1262.45L1619.41 1263.4L1620.13 1263.2L1620.35 1261.42L1622.28 1265.23L1621.77 1261.04L1622.17 1259.84L1624.06 1263.51L1625.04 1264.2L1625.1 1261.88L1624.82 1258.47L1626.52 1261.5L1625.63 1256.14L1627.34 1259.22L1629.22 1262.82L1628.61 1258.35L1630.14 1260.81L1629.56 1256.41L1630.75 1257.79L1631.02 1256.14L1633.21 1260.77L1632.26 1255.18L1634.08 1258.58L1634.91 1258.77L1635.24 1257.31L1634.71 1253.07L1637.31 1259.04L1637.65 1257.62L1636.92 1252.7L1638.35 1257.67L1638.25 1257.58L1640.83 1252.38L1641.11 1253.81L1641.74 1254.22L1642.22 1255.06L1641.95 1258.02L1643.06 1257.06L1642.41 1261.16L1645.24 1255.25L1645.04 1258.03L1646.63 1255.68L1647.6 1255.11L1646.84 1259.53L1646.93 1261.48L1647.48 1262.13L1648.75 1260.69L1650.07 1259.12L1649.69 1262.45L1650.25 1263.08L1652.15 1259.79L1651.44 1264.04L1652.07 1264.47L1653.5 1262.53L1654.91 1260.72L1655.95 1259.94L1655.84 1262.46L1655.14 1266.68L1657.16 1263.11L1657.53 1264.27L1657.79 1265.74L1660.11 1261.3L1658.93 1266.9L1660.89 1263.51L1661.75 1263.25L1661.67 1265.7L1661.12 1269.5L1661.86 1269.6L1663.72 1266.44L1663.46 1269.42L1665.54 1265.66L1664.76 1270.1L1664.96 1271.75L1666.61 1269.23L1667.62 1268.52L1666.92 1272.8L1668.49 1270.5L1668.88 1271.61L1670.27 1269.84L1670.46 1271.54L1670.22 1274.43L1672.21 1270.96L1673.64 1269.03L1672.53 1274.46L1675.07 1269.38L1675.99 1268.96L1674.86 1274.45L1676.02 1273.32L1676.8 1273.36L1678.41 1270.93L1678.53 1272.83L1679.2 1273.12L1678.39 1277.65L1680.89 1272.72L1679.81 1278.08L1681.65 1275.01L1681.73 1276.98L1682.14 1278.06L1683.19 1277.25L1682.86 1280.41L1684.2 1278.8L1685.18 1278.22L1684.86 1281.37L1687.64 1275.61L1688.63 1275L1688.31 1278.14L1689.57 1276.75L1689.33 1279.67L1689.55 1281.28L1691.12 1279.01L1692.62 1276.95L1691.71 1281.79L1693.41 1279.16L1694.25 1278.98L1695.23 1278.43L1694.16 1283.76L1694.52 1284.53L1695.6 1283.63L1696.63 1283.22L1697.96 1282.16L1698.85 1282.02L1698.49 1284.44L1697.93 1287.26L1699.87 1284.98L1701.86 1282.61L1702 1284.02L1700.91 1287.92L1700.85 1289.71L1702.98 1287.02L1704.86 1284.89L1703.47 1289.39L1705.46 1287.02L1704.28 1291.1L1705.78 1289.74L1708.06 1286.77L1706 1292.63L1708.85 1288.51L1709.91 1288.05L1707.72 1294.17L1710.19 1290.82L1709.57 1293.77L1712.05 1290.4L1712.24 1291.68L1711.42 1295.02L1713.27 1292.94L1713.15 1294.85L1713.54 1295.74L1713.82 1296.84L1714.41 1297.33L1716.29 1295.2L1716.77 1295.88L1717.88 1295.31L1717.93 1296.89L1717.69 1299.07L1719.48 1297.1L1721.04 1295.63L1718.67 1302.14L1721.01 1299.06L1720.88 1301.02L1720.9 1302.67L1723.43 1299.21L1722.22 1303.38L1725.17 1298.45L1724.41 1302.69L1726.09 1299.56L1726.88 1299.46L1727.19 1301.01L1728.46 1299.31L1727.69 1304.51L1729.13 1302.2L1728.99 1305.24L1729.84 1304.96L1730.7 1304.64L1731.57 1304.23L1732.99 1301.97L1732.23 1307.16L1732.81 1307.76L1733.9 1306.63L1735.96 1302.2L1736.22 1303.92L1737.31 1302.82L1737.69 1304.13L1738.23 1304.84L1737.37 1310.4L1738.45 1309.32L1739.33 1308.91L1739.91 1309.56L1741.19 1307.76L1741.5 1309.29L1743.17 1306.23L1743.81 1306.63L1742.67 1313.11L1744.39 1309.86L1744.83 1310.96L1746.57 1307.64L1745.61 1313.54L1747.16 1310.85L1747.6 1311.95L1748.72 1310.74L1749.31 1311.34L1750.06 1311.36L1750.9 1311.13L1751.88 1310.41L1751.54 1314.17L1752.98 1311.88L1753.56 1312.44L1754.17 1313.01L1754.97 1312.89L1754.49 1317.11L1755.54 1316.12L1756.08 1316.92L1757.19 1315.71L1757.1 1318.64L1758.31 1317.1L1759.1 1317.05L1760.64 1314.42L1761.04 1315.66L1761.15 1317.89L1762.83 1314.83L1762.12 1319.83L1764.27 1315.15L1764.59 1316.68L1764.87 1318.36L1765.56 1319.38L1766.28 1316.21L1767.13 1318.16L1767.96 1319.89L1768.37 1314.92L1769.4 1319.72L1769.84 1315.35L1770.56 1315.29L1771.44 1317.74L1771.95 1314.49L1772.92 1318.53L1773.61 1317.87L1774.51 1320.86L1775 1317.07L1775.96 1320.89L1776.23 1313.67L1777.25 1318.36L1777.93 1317.62L1778.63 1317.44L1779.11 1313.5L1780.04 1316.83L1780.55 1313.41L1781.55 1317.78L1782.21 1316.73L1782.71 1313.1L1783.66 1316.63L1784.33 1316L1785.23 1318.69L1785.98 1319.08L1786.41 1314.43L1787.01 1312.55L1787.8 1313.65L1788.82 1318.28L1789.32 1314.73L1790.29 1318.7L1790.65 1312.95L1791.5 1314.95L1792.52 1319.65L1793.18 1318.52L1793.63 1314.16L1794.25 1312.53L1794.96 1312.34L1796.1 1319L1796.45 1313L1797.49 1318.07L1798.02 1314.86L1799 1318.97L1799.64 1317.71L1800.11 1313.59L1800.92 1315.01L1801.45 1311.95L1802.28 1313.61L1803.07 1314.78L1803.6 1311.62L1804.42 1313.14L1805.18 1313.74L1805.94 1314.21L1806.8 1316.41L1807.61 1317.77L1808.16 1315.19L1809.03 1317.43L1809.51 1313.72L1810.46 1317.34L1810.91 1312.88L1811.89 1316.98L1812.31 1312.3L1813.04 1312.44L1813.65 1310.62L1814.75 1316.8L1815.35 1314.6L1815.98 1313.1L1816.7 1313.14L1817.61 1316.14L1818.18 1313.48L1818.89 1313.27L1819.47 1310.88L1820.59 1317.34L1820.85 1309.93L1821.59 1310.2L1822.51 1313.18L1823.3 1314.49L1823.74 1309.78L1824.83 1315.54L1825.45 1313.83L1826.03 1311.59L1827.1 1316.95L1827.81 1316.79L1828.52 1316.48L1828.91 1311.13L1829.76 1313.02L1830.42 1312.07L1831.14 1311.9L1831.96 1313.5L1832.66 1313.05L1833.35 1312.53L1833.95 1310.61L1834.55 1308.41L1835.44 1311.02L1836.46 1315.8L1837.12 1314.83L1837.85 1314.74L1838.22 1309.16L1839.16 1312.56L1839.7 1309.39L1840.7 1313.72L1841.1 1308.44L1842.14 1313.43L1842.98 1315.35L1843.27 1308.14L1844.13 1310.26L1845.15 1314.73L1846.48 1313.99L1846.77 1311.72L1846.66 1310.1L1846.78 1308.89L1847.4 1308.44L1850 1311.18L1851.07 1311.48L1851.08 1310.06L1851.86 1309.88L1849.12 1304.08L1850.03 1304.11L1852.86 1307.22L1852.59 1305.34L1854.47 1306.93L1855.21 1306.68L1853.97 1303.26L1854.15 1302.12L1857.51 1306.07L1856.37 1302.81L1855.54 1300.08L1855.81 1299.09L1858.72 1302.29L1858.26 1300.13L1860.64 1302.51L1858.53 1297.72L1860.83 1299.97L1860.65 1298.25L1861.66 1298.44L1862.12 1297.76L1864.05 1299.43L1863.12 1296.54L1864.69 1297.63L1864.76 1296.32L1865.77 1296.52L1865.32 1294.39L1867.24 1296.04L1866.72 1293.79L1865.1 1289.77L1867.4 1292.04L1869.42 1293.85L1869.87 1293.15L1870.54 1292.79L1869.74 1290.09L1871.62 1291.67L1871.14 1289.49L1870.82 1287.54L1872.66 1289.06L1874.2 1290.09L1873.85 1288.09L1872.32 1284.22L1875.1 1287.22L1876.51 1288.06L1874.36 1283.21L1878.21 1287.93L1877.05 1284.65L1878.53 1285.59L1876.65 1281.16L1880.27 1285.52L1880.85 1285.03L1878.79 1280.3L1879.76 1280.44L1880.16 1279.63L1879.63 1277.37L1883.62 1282.3L1882.92 1279.76L1881.66 1276.3L1884.84 1279.97L1885.05 1278.87L1885.46 1278.08L1886.85 1278.87L1888.21 1279.63L1887.41 1276.92L1885.93 1273.13L1886.24 1272.17L1886.71 1271.47L1891.05 1276.99L1890.13 1274.08L1892.04 1275.7L1890.21 1271.36L1893.2 1274.68L1891.43 1270.43L1891.3 1268.77L1894.95 1273.18L1895.22 1272.19L1894.44 1269.51L1893.47 1266.54L1895.91 1269.01L1895.47 1266.89L1896.48 1267.05L1896.71 1265.98L1897.15 1265.24L1897.41 1264.23L1897.89 1263.56L1898.61 1263.28L1900.24 1264.44L1899.84 1262.35L1900.31 1261.67L1901.4 1261.98L1902.39 1262.11L1903.33 1262.17L1903.2 1260.51L1903.62 1259.74L1904.83 1260.22L1904.68 1256.32L1906.26 1260.32L1907.2 1257.08L1907.84 1258.22L1908.68 1256.44L1909.2 1259.35L1909.71 1262.35L1910.38 1263.04L1911.19 1261.67L1911.89 1261.96L1912.57 1262.47L1913.35 1261.58L1914 1262.37L1914.93 1259.41L1915.34 1263.8L1916.5 1257.47L1916.85 1262.7L1917.6 1262.22L1918.37 1261.42L1919.14 1260.58L1919.85 1260.84L1920.51 1261.44L1921.07 1263.76L1921.76 1264.18L1922.47 1264.28L1923.47 1260.15L1923.91 1264.23L1924.71 1262.92L1925.44 1262.77L1926.39 1259.41L1926.78 1264.23L1927.4 1265.52L1928.39 1261.67L1929.07 1262.04L1929.63 1264.51L1930.67 1259.72L1931.47 1258.5L1931.66 1266.24L1932.43 1265.56L1933.58 1259.33L1933.87 1265.42L1934.65 1264.62L1935.28 1265.86L1936.18 1263.34L1937.11 1260.39L1937.81 1260.53L1938.11 1266.66L1939 1264.36L1939.63 1265.6L1940.65 1261.27L1941.19 1263.9L1941.87 1264.55L1942.87 1260.4L1943.61 1260.22L1944.31 1260.47L1945.02 1260.77L1945.6 1262.74L1946.29 1263.23L1947.02 1262.95L1947.92 1260.34L1948.48 1262.67L1948.87 1267.41L1949.82 1264.18L1950.44 1265.63L1951.41 1262L1952 1263.84L1952.71 1263.95L1953.36 1264.92L1954.2 1263.18L1954.58 1268L1955.53 1264.73L1956.34 1263.35L1957.14 1262.25L1957.62 1265.75L1958.51 1263.33L1959.19 1263.76L1959.88 1264.25L1960.73 1262.47L1961.4 1262.98L1962.11 1263.17L1962.76 1264.19L1963.28 1267.18L1964.3 1262.79L1965.04 1262.49L1965.37 1268.19L1966.41 1263.52L1967.02 1265.18L1967.58 1267.56L1968.45 1265.42L1969.33 1263.03L1969.84 1266.2L1970.79 1262.87L1971.31 1265.9L1971.83 1268.84L1972.52 1269.26L1973.61 1263.86L1974.15 1266.53L1974.69 1269.2L1975.81 1263.37L1976.09 1269.78L1976.91 1268.43L1977.87 1264.86L1978.22 1270.18L1978.92 1270.5L1980.08 1264.18L1980.69 1265.81L1981.46 1265.02L1982.17 1265.21L1982.59 1269.6L1983.32 1269.4L1984.12 1268.29L1984.68 1270.72L1985.36 1271.21L1986.35 1267.33L1987 1268.44L1987.67 1269.19L1988.51 1267.59L1989.1 1269.42L1990.15 1264.65L1990.87 1264.86L1991.38 1267.8L1991.83 1271.87L1992.92 1266.55L1993.27 1271.76L1994.43 1265.5L1994.85 1269.75L1995.74 1267.39L1996.57 1265.91L1997.19 1267.42L1998.04 1265.42L1998.62 1267.54L1999.31 1267.97L2000.1 1267L2000.71 1268.8L2001.41 1269.03L2002.07 1269.95L2003.07 1266.04L2003.31 1272.97L2004.24 1269.85L2005.11 1267.82L2005.9 1266.89L2006.18 1273.24L2007.34 1266.88L2008.15 1265.64L2008.83 1266.2L2009.1 1272.85L2009.88 1271.98L2010.52 1273.21L2011.55 1268.7L2012.06 1271.8L2012.89 1270.32L2013.86 1266.69L2014.21 1272.05L2015.08 1269.85L2015.84 1269.3L2016.51 1270.03L2017.01 1273.25L2017.82 1271.94L2018.59 1271.18L2019.3 1271.26L2020.01 1271.53L2020.73 1271.48L2021.56 1269.91L2021.94 1274.91L2022.98 1270.35L2023.62 1271.53L2024.24 1273.07L2025.28 1268.59L2025.94 1269.4L2026.54 1271.22L2027.1 1273.52L2028.11 1269.43L2028.57 1273.25L2029.54 1269.66L2029.84 1275.73L2031.08 1268.26L2031.32 1275.35L2032.37 1270.66L2033.19 1269.27L2033.94 1268.9L2034.7 1268.34L2035.43 1268.28L2036.01 1270.39L2036.57 1272.8L2037.41 1271.11L2038.29 1268.78L2038.49 1276.5L2039.64 1270.42L2040.27 1271.7L2040.91 1272.94L2041.83 1270.05L2042.35 1273.15L2042.84 1276.5L2043.72 1274.17L2044.27 1276.75L2045.34 1271.83L2045.73 1276.7L2046.47 1276.55L2047.59 1270.92L2048.03 1275.07L2048.78 1274.59L2049.4 1276.23L2050.11 1276.48L2051.04 1273.7L2051.57 1276.6L2052.51 1274.07L2052.94 1272.43L2054.42 1276.06L2054.93 1274.9L2054.74 1270.38L2056.53 1275.53L2056.28 1270.74L2057.34 1272.3L2058.43 1274.02L2059.45 1275.37L2059.91 1274.05L2059.78 1269.83L2060.37 1269.13L2060.81 1267.64L2062.37 1271.69L2063.6 1274.07L2063.47 1269.85L2064.97 1273.58L2064.93 1269.78L2066.45 1273.6L2066.6 1270.69L2067.1 1269.5L2068.29 1271.74L2069.26 1272.86L2069.16 1268.77L2070 1269.27L2070.67 1268.93L2070.73 1265.6L2072.77 1271.96L2072.73 1268.19L2073.04 1266.1L2074.06 1267.42L2074.36 1265.24L2075.55 1267.43L2075.93 1265.7L2076.69 1265.83L2077.84 1267.8L2078.32 1266.49L2078.38 1263.17L2080.52 1270.01L2080.45 1266.03L2080.68 1263.55L2081.26 1262.76L2082.22 1263.87L2082.98 1263.93L2084.6 1268.26L2084.69 1265.07L2086.04 1268.02L2086.68 1267.53L2086.97 1265.37L2088.01 1266.77L2088.94 1267.68L2089.21 1265.38L2090.16 1266.42L2090.14 1262.68L2091.65 1266.4L2091.76 1263.31L2092.43 1262.95L2092.51 1259.64L2093.7 1261.81L2095.35 1263.96L2097.07 1264.17L2095.19 1260.41L2096.96 1261.5L2095 1257.62L2099.01 1261.67L2098.59 1259.85L2099.06 1259.22L2096.68 1254.8L2098.72 1256.23L2097.85 1253.82L2099.05 1254.14L2100.76 1255.14L2103.49 1257.49L2100.92 1252.83L2100.79 1251.39L2104.63 1255.19L2104.49 1253.73L2105.74 1254.12L2103.88 1250.37L2103.67 1248.83L2105.2 1249.58L2106.8 1250.45L2106.06 1248.19L2106.39 1247.35L2109.09 1249.66L2106.55 1245.02L2109.85 1248.11L2107.61 1243.88L2108.03 1243.16L2109.71 1244.11L2109.71 1242.84L2110 1241.95L2110.09 1240.8L2113.11 1243.52L2111.41 1240L2114.61 1242.97L2112.27 1238.62L2114.44 1240.23L2114.77 1239.39L2116.49 1240.39L2115.8 1238.2L2116.3 1237.58L2115.81 1235.65L2116.67 1235.53L2116.54 1234.09L2116.99 1233.4L2118.37 1233.94L2118.37 1232.67L2123.1 1237.64L2123.64 1237.1L2120.79 1232.04L2123.5 1234.35L2121.31 1230.17L2124.61 1233.25L2121.94 1228.42L2124.59 1230.65L2123.81 1228.79L2124.3 1228.17L2125.37 1228.13L2125.51 1227.17L2124.41 1224.98L2129.83 1229.26L2129.17 1227.5L2130.29 1227.52L2127.08 1223.23L2127.02 1222.07L2129.7 1223.64L2130.72 1223.55L2130.67 1222.4L2128.82 1219.47L2133.48 1222.99L2132.35 1220.77L2134.36 1221.66L2134.46 1220.66L2136.1 1221.17L2134.87 1218.86L2134.09 1216.98L2134.5 1216.27L2137.22 1217.88L2134.96 1214.52L2133.84 1212.32L2134.9 1212.26L2135.89 1212.14L2138.39 1213.53L2135.67 1209.72L2138.35 1211.27L2141.64 1213.42L2139.63 1210.33L2137.89 1207.5L2138.84 1207.34L2140.76 1208.13L2138.93 1205.2L2141.66 1206.81L2141.17 1205.22L2142.16 1205.11L2144.8 1206.63L2143.09 1203.83L2146.39 1206L2142.65 1201.19L2143.49 1200.9L2148.06 1204.34L2146.16 1201.34L2146.76 1200.85L2144.55 1197.53L2149.74 1201.57L2145.34 1196.1L2148.78 1198.39L2148.8 1197.31L2148.16 1195.57L2151.43 1197.69L2149.26 1194.42L2153 1197.02L2151.95 1194.85L2149.83 1192.9L2149.58 1193.11L2150.78 1191.95L2150.16 1191.25L2149.4 1190.57L2147.69 1190.11L2151.14 1188.42L2151.7 1187.42L2152.88 1186.28L2152.6 1185.49L2150.16 1185.21L2150.38 1184.3L2151.06 1183.27L2147.82 1183.19L2150.93 1181.57L2148.13 1181.39L2152.22 1179.55L2149.38 1179.37L2146.99 1179.08L2147.31 1178.15L2151.3 1176.32L2149.41 1175.91L2146.51 1175.75L2146.72 1174.83L2147.1 1173.87L2150.3 1172.24L2148.55 1171.8L2149.29 1170.77L2148.77 1170.03L2147.86 1169.38L2144.82 1169.26L2145.35 1168.26L2149.31 1166.46L2145.88 1166.41L2143.45 1166.14L2145.79 1164.72L2148.44 1163.22L2147.62 1162.55L2147.52 1161.71L2148.41 1160.64L2148.71 1159.7L2146.69 1159.33L2144.99 1158.88L2145.38 1157.93L2146.88 1156.71L2142.89 1156.8L2143.65 1155.77L2142.3 1155.23L2145.1 1153.7L2145.28 1152.79L2146.5 1151.64L2142.45 1151.75L2143.53 1150.62L2141.23 1150.31L2141.66 1149.35L2140.59 1148.74L2145.63 1146.67L2141.01 1146.91L2142.89 1145.6L2140.19 1145.39L2144.46 1143.49L2142.7 1143.05L2140.24 1142.78L2144.54 1140.88L2141.35 1140.78L2140.5 1140.12L2144.65 1138.26L2142.48 1137.92L2138.48 1138.02L2141.6 1136.41L2138.63 1136.26L2139.57 1135.16L2143.23 1133.41L2140.6 1133.18L2144.14 1131.46L2141.59 1131.21L2139.4 1130.88L2137.41 1130.49L2139.18 1129.2L2141.21 1127.85L2136.82 1128.04L2140.56 1126.27L2141.27 1125.24L2141.95 1124.21L2140.36 1123.73L2141.63 1122.55L2135.96 1123.04L2136.36 1122.07L2136.75 1121.12L2136.66 1120.27L2141.64 1118.21L2139.47 1117.85L2140.47 1119.24L2140.4 1115.24Z" fill="#F5F5F5" fill-opacity="0.2"/>
<g filter="url(#filter0_f_149_72)">
<path d="M-225.915 144.44L-224.708 144.338L-222.868 145.222L-224.358 143.403L-221.908 144.774L-221.619 144.396L-222.892 142.756L-222.783 142.224L-223.646 140.917L-222.288 141.404L-221.993 141.033L-220.961 141.25L-219.47 141.852L-221.214 139.828L-219.724 140.43L-221.335 138.509L-220.146 138.867L-220.327 138.111L-217.98 139.399L-220.84 136.472L-218.33 137.894L-218.692 136.99L-217.28 137.522L-217.268 136.914L-219.163 134.768L-218.155 134.973L-217.298 135.049L-215.76 135.684L-215.205 135.523L-218.113 132.558L-216.514 133.237L-214.8 134.012L-214.583 133.576L-216.357 131.526L-214.167 132.686L-215.669 130.854L-213.304 132.154L-213.738 131.187L-212.797 131.34L-213.847 129.873L-213.581 129.476L-211.548 130.501L-214.221 127.721L-212.779 128.285L-214.004 126.677L-213.4 126.555L-210.613 128.202L-211.476 126.888L-210.643 126.952L-209.979 126.875L-208.887 127.138L-209.913 125.697L-211.596 123.717L-210.836 123.724L-209.907 123.852L-208.157 124.653L-209.991 122.552L-207.427 124.012L-208.561 122.475L-208.181 122.167L-208.537 121.264L-208.181 120.931L-205.961 122.109L-208.356 119.547L-206.196 121.366L-206.268 121.52L-205.768 120.886L-205.231 119.47L-204.796 119.976L-204.386 120.873L-203.801 118.689L-203.42 120.104L-203.04 121.552L-202.491 119.983L-202.075 120.796L-201.689 122.167L-201.115 120.22L-200.747 121.879L-200.283 121.937L-199.673 119.233L-199.203 119.041L-198.847 120.969L-198.503 123.077L-197.93 121.123L-197.477 121.245L-197 120.95L-196.566 121.475L-196.186 122.885L-195.679 122.122L-195.094 119.925L-194.665 120.489L-194.309 122.481L-193.808 121.719L-193.338 121.559L-192.783 119.81L-192.415 121.565L-191.866 119.938L-191.516 121.86L-191.142 123.41L-190.52 120.553L-190.218 123.436L-189.633 121.193L-189.174 121.225L-188.734 121.552L-188.257 121.283L-187.738 120.309L-187.467 123.692L-186.924 122.34L-186.544 123.813L-185.989 122.103L-185.494 121.507L-184.933 119.688L-184.456 119.457L-184.088 121.181L-183.533 119.483L-183.31 123.788L-182.797 122.872L-182.26 121.597L-181.789 121.45L-181.409 122.961L-180.938 122.801L-180.48 122.872L-179.973 122.122L-179.478 121.495L-179.013 121.501L-178.682 123.961L-178.133 122.398L-177.529 119.81L-177.113 120.694L-176.757 122.648L-176.244 121.68L-175.84 122.718L-175.242 120.329L-174.904 122.628L-174.422 122.314L-174.06 124.089L-173.619 124.582L-172.974 121.232L-172.599 122.904L-172.026 120.995L-171.719 123.801L-171.181 122.545L-170.675 121.776L-170.349 124.32L-169.709 121.161L-169.233 121.008L-169.601 121.463L-169.957 121.725L-169.546 121.36L-167.718 121.527L-169.619 120.284L-166.855 120.796L-167 120.22L-168.134 119.272L-169.076 118.394L-168.81 117.971L-168.346 117.625L-165.28 118.26L-166.602 117.241L-168.858 115.87L-167.066 116.024L-166.131 115.851L-166.24 115.294L-165.117 115.191L-165.25 114.615L-164.249 114.467L-166.216 113.205L-165.799 112.84L-166.137 112.187L-166.469 111.54L-164.285 111.834L-167.006 110.291L-166.33 110.022L-162.74 110.848L-165.486 109.291L-165.727 108.676L-165.099 108.388L-162.662 108.779L-163.241 108.036L-164.918 106.883L-164.876 106.37L-163.621 106.319L-162.01 106.402L-162.903 105.537L-163.742 104.698L-161.473 105.025L-162.644 104.058L-162.523 103.577L-163.621 102.642L-163.989 101.982L-162.101 102.168L-163.295 101.201L-162.028 101.149L-160.731 101.111L-163.241 99.6376L-159.603 100.483L-159.186 100.112L-162.662 98.2796L-159.409 98.9778L-162.016 97.4724L-160.87 97.3699L-161.763 96.5116L-159.844 96.7037L-161.256 95.6468L-159.15 95.9094L-161.057 94.6603L-158.595 95.0574L-159.5 94.1478L-158.299 94.6731L-158.396 93.8851L-158.106 93.5008L-158.824 92.0723L-156.712 93.5841L-156.543 93.078L-156.193 92.7577L-157.231 90.9833L-155.807 91.7904L-156.127 90.7719L-154.552 91.7264L-156.761 88.7412L-155.27 89.6124L-155.638 88.5426L-153.128 90.4772L-152.977 89.9455L-153.695 88.517L-154.649 86.8387L-152.784 88.1006L-153.008 87.1846L-153.146 86.3582L-152.567 86.2814L-153.357 84.7696L-150.63 86.9283L-150.286 86.6016L-151.909 84.2251L-150.552 84.9553L-151.288 83.5012L-150.739 83.3859L-148.319 85.2308L-148.748 84.0905L-150.075 82.0214L-147.873 83.6357L-147.529 83.309L-148.989 81.1054L-149.254 80.1445L-146.527 82.3033L-147.806 80.2854L-147.969 79.4399L-146.545 80.2406L-144.729 81.4577L-146.775 78.6391L-144.88 79.9331L-146.292 77.7807L-144.47 79.0043L-145.592 77.153L-145.025 77.0633L-143.631 77.8384L-142.255 78.5943L-143.721 76.3842L-144.403 74.9878L-143.015 75.7629L-142.213 75.9166L-140.958 76.538L-140.68 76.1472L-142.484 73.5785L-142.478 72.9058L-140.083 74.7187L-138.967 75.1927L-138.87 74.6098L-140.898 71.8104L-138.556 73.5657L-138.436 73.0019L-138.406 72.3421L-138.816 71.2339L-137.06 72.3742L-137.012 71.74L-137.205 70.856L-135.781 71.6503L-137.718 68.9534L-137.03 68.9854L-137.482 67.826L-134.707 70.036L-134.61 69.4531L-135.944 67.384L-135.793 66.8523L-134.604 67.4032L-135.377 65.9042L-134.972 65.6416L-133.542 66.4423L-133.554 65.7377L-131.805 66.8779L-131.129 66.8971L-131.032 66.3142L-131.684 64.9433L-130.236 65.7633L-131.599 63.6557L-130.266 64.3604L-131.509 62.3746L-131.624 61.561L-130.954 61.5738L-129.693 62.1952L-128.745 62.4963L-128.088 62.4963L-127.798 62.1055L-129.946 59.178L-128.582 59.9083L-128.045 59.7802L-127.502 59.6649L-127.303 59.1844L-127.026 58.7873L-126.386 58.768L-126.259 58.2171L-126.603 57.1666L-126.935 56.1288L-125.68 56.7438L-126.398 55.3089L-125.282 55.7765L-125.288 55.0847L-125.029 54.6555L-125.071 53.9252L-122.114 56.3146L-122.343 55.3793L-122.923 54.0853L-122.989 53.323L-121.125 54.5722L-120.618 54.4056L-122.711 51.523L-120.702 53.4319L-120.244 51.1579L-119.972 52.4582L-119.242 50.7158L-119.266 54.0213L-118.832 54.2135L-118.361 54.2391L-117.987 54.8476L-117.323 53.5601L-116.822 53.3487L-116.171 52.138L-115.767 52.5415L-115.604 54.5658L-114.994 53.6433L-114.686 54.6811L-114.3 55.2256L-113.365 52.1508L-113.492 56.1032L-112.967 55.7188L-111.941 51.9842L-111.706 53.5408L-111.458 55.0334L-110.547 52.0867L-110.62 55.7124L-110.071 55.1872L-109.642 55.4434L-108.84 53.1949L-108.803 56.0968L-108.291 55.7829L-107.355 52.7081L-107.41 56.1737L-107.12 57.3716L-106.619 57.1409L-106.082 56.6669L-105.304 54.5914L-104.785 54.2583L-104.809 57.5381L-104.169 56.4107L-103.409 54.4825L-103.023 55.0206L-102.377 53.8611L-101.931 54.0021L-101.641 55.1679L-101.237 55.5651L-101.026 57.2883L-100.072 54.0277L-99.9156 56.0968L-99.3303 55.3025L-98.9562 55.9302L-98.2864 54.5978L-98.0934 56.4171L-97.4659 55.3665L-97.3814 57.9353L-96.5306 55.3793L-96.4159 57.7559L-95.716 56.2249L-95.3118 56.6413L-95.2454 59.3254L-94.2015 55.4882L-93.7128 55.3601L-93.2964 55.7124L-92.8801 56.0712L-92.4758 56.5068L-92.1017 57.1345L-91.4199 55.7252L-90.9372 55.674L-90.8346 58.1082L-90.4907 58.9346L-89.7847 57.3459L-89.6278 59.4407L-88.9943 58.3389L-88.4452 57.8264L-87.7091 56.084L-87.7634 59.5496L-87.347 59.9083L-86.9186 60.1966L-85.8687 56.3146L-85.9532 59.9916L-85.4524 59.825L-85.0844 60.4912L-84.6921 61.0293L-83.8776 58.7232L-83.6845 60.5425L-82.9544 58.8513L-82.713 60.3695L-81.7718 57.237L-81.3977 57.8904L-81.3554 60.7731L-80.5288 58.3965L-80.3478 60.3375L-79.8228 59.9852L-79.2919 59.6072L-78.8393 59.7546L-78.8574 58.8321L-77.9463 59.5752L-77.9342 59.0243L-77.5239 58.7104L-78.9117 57.3716L-77.5722 57.5766L-76.8964 57.41L-76.8662 56.8783L-78.5618 55.3601L-77.4877 55.4178L-74.9113 56.3274L-75.75 55.3025L-76.3715 54.3928L-75.2069 54.5017L-73.6321 54.8412L-73.7648 54.2199L-73.451 53.8547L-73.5657 53.2398L-75.9431 51.3436L-76.1905 50.6518L-73.1675 51.8177L-73.252 51.2219L-74.1812 50.1457L-72.0573 50.7991L-71.8521 50.3635L-72.2202 49.6012L-71.9305 49.2169L-72.1417 48.5378L-72.2383 47.9293L-72.9744 46.962L-72.7753 46.52L-71.1884 46.8723L-71.653 46.0588L-69.4144 46.7762L-72.3469 44.5598L-71.6831 44.3804L-71.7314 43.8039L-72.2021 42.9903L-68.4309 44.579L-68.4792 44.0025L-69.4627 42.8942L-70.9169 41.5106L-71.1823 40.8059L-69.4929 41.2159L-68.4973 41.2223L-69.3601 40.1782L-70.2531 39.1212L-67.3931 40.191L-66.7656 39.9924L-68.98 38.1795L-68.4973 37.9041L-68.4309 37.3916L-66.9767 37.6606L-67.1276 37.02L-65.5829 37.3403L-66.0837 36.5012L-66.0415 35.9695L-65.1304 35.931L-66.3734 34.6755L-65.9208 34.3808L-66.3009 33.6057L-63.9236 34.4064L-63.103 34.3104L-64.702 32.8498L-64.3399 32.4975L-65.2873 31.4085L-62.4333 32.4783L-62.9702 31.6199L-64.3399 30.2939L-64.3218 29.7494L-63.8331 29.4675L-64.5873 28.4874L-63.8995 28.3208L-62.8073 28.3849L-64.1348 27.0717L-61.1299 28.2248L-63.1815 26.5016L-61.8359 26.7066L-60.6834 26.8027L-63.0005 24.9321L-60.8825 25.5791L-59.7542 25.656L-61.9686 23.8367L-58.9819 24.977L-60.4723 23.3691L-59.7422 23.5549L-58.9698 24.3876L-58.6983 23.7342L-58.282 23.51L-58.6017 21.1334L-57.3588 23.3499L-57.5579 21.3192L-56.683 22.4595L-56.158 22.562L-56.2123 20.9541L-55.9649 20.2302L-54.7039 22.4979L-54.728 20.9861L-54.8245 19.2437L-52.9963 23.1769L-53.2799 20.8836L-52.2843 22.3634L-52.6523 19.8394L-51.5482 21.6395L-52.1516 18.4173L-50.9448 20.5121L-50.3776 20.7363L-50.275 19.5832L-49.5087 20.4032L-49.6173 18.6223L-48.5674 20.2622L-48.6278 18.6287L-48.1451 18.5903L-47.2822 19.6793L-47.3848 17.9241L-46.3651 19.4743L-45.9246 19.3206L-45.2549 19.8394L-45.6531 17.2066L-44.929 17.8985L-44.0662 18.9811L-43.5413 19.0707L-44.1868 15.7205L-43.9033 15.1055L-42.3345 18.2764L-42.081 17.5782L-41.3268 18.3341L-41.5139 16.329L-41.2001 15.7973L-40.4338 16.6109L-40.5062 14.9389L-39.7821 15.6052L-39.2813 15.6116L-39.3055 14.0806L-38.3461 15.4514L-37.978 15.0799L-37.3746 15.4002L-37.4772 13.6193L-36.9945 13.5745L-35.8843 15.3809L-35.7274 14.3688L-34.8404 15.5091L-34.2672 15.7012L-34.8947 12.3702L-34.5387 11.9474L-33.8026 12.6328L-32.3967 15.2849L-33.2656 11.2363L-31.6907 14.3816L-31.8476 12.4278L-30.7615 14.0741L-30.1521 14.3176L-30.5564 11.5823L-30.0917 11.3837L-28.3058 10L-28.885 12.415L-29.3194 12.8891L-31.021 14.8236L-29.1988 14.8621L-28.5049 13.7346L-28.0825 13.9717L-27.5334 13.5937L-26.8033 12.2869L-26.4714 12.9916L-25.9042 12.4919L-25.7655 14.1895L-25.6508 16.0023L-25.2466 16.361L-24.613 15.5539L-23.8407 14.0293L-23.8166 16.2906L-22.9356 14.2407L-22.2236 13.0236L-22.4167 16.4059L-21.4935 14.1382L-20.7815 12.8955L-21.0651 16.7582L-20.16 14.5674L-20.1962 17.1362L-19.6411 16.7198L-19.3515 17.6486L-18.73 16.8863L-18.2654 16.9376L-17.656 16.2201L-17.493 17.7896L-16.4251 14.7724L-15.9906 14.9774L-15.7312 16.06L-15.7734 18.6672L-14.6873 15.5667L-14.1503 15.24L-13.9451 16.6173L-13.6495 17.5269L-13.3599 18.4494L-12.9858 18.9362L-11.8092 15.3809L-11.4351 15.8614L-11.604 19.122L-10.7411 17.149L-10.6748 19.2117L-10.2223 19.3078L-9.31717 17.1041L-8.73792 16.5596L-8.87671 19.6793L-8.29745 19.1412L-8.02591 20.1533L-6.86139 16.6493L-6.7045 18.2572L-5.93823 16.771L-6.03476 19.6345L-5.45547 19.0836L-4.61682 17.2451L-4.21252 17.5782L-3.83237 18.0458L-3.69965 19.7562L-2.7825 17.4885L-2.61356 19.0131L-2.0705 18.6736L-1.53348 18.3469L-1.55161 20.8324L-0.845642 19.6729L0.0534058 17.5205L0.264587 18.8529L0.674896 19.1796L1.10931 19.3718L1.17572 21.4409L2.0325 19.4871L2.75659 18.2124L3.0824 18.9618L3.60132 18.7248L3.83664 19.9548L3.73407 22.8887L4.45209 21.6523L4.89859 21.7804L5.36322 21.8317L6.37085 19.122L6.32861 21.7548L6.85358 21.473L7.0889 22.7093L8.06033 20.179L7.82501 23.7727L8.45255 23.004L9.36365 20.7939L9.87653 20.5889L9.87653 22.9911L10.7394 21.0374L11.1195 21.5178L11.5238 21.8829L11.8979 22.3634L11.8979 24.7976L12.9538 21.8381L13.1771 23.1257L13.9856 21.4409L14.2209 22.6644L14.6131 23.1065L15.295 22.0495L15.2225 24.836L15.7897 24.3748L16.0914 25.2716L16.7129 24.5606L17.1956 24.0353L16.9904 24.7592L16.5258 25.8802L19.9048 23.241L19.229 24.567L19.9651 24.5157L20.122 25.0282L20.122 25.6944L18.9092 27.5457L19.4704 27.6674L19.929 27.8852L19.8626 28.6219L20.5203 28.6411L19.9651 29.8519L21.1659 29.3458L22.8252 28.3913L22.9338 28.955L22.4692 30.0697L22.3787 30.8256L24.5931 29.3266L22.6502 31.8889L23.6941 31.5302L25.0879 30.832L24.5267 32.0427L26.2343 31.0369L24.9189 32.9843L25.6611 32.9139L26.1559 33.0996L25.5103 34.3872L27.073 33.5224L26.0111 35.2264L27.5316 34.4L26.2886 36.277L28.9134 34.3744L27.0911 36.8215L27.3627 37.2186L29.1426 36.1424L27.3325 38.5767L28.9556 37.6542L28.9978 38.2756L30.4158 37.5581L30.2408 38.3973L30.3736 38.9418L29.2935 40.665L32.4251 38.2692L32.6604 38.7112L32.3104 39.7233L32.5397 40.1653L30.8563 42.4779L34.2352 39.845L31.9544 42.7405L34.6093 40.8123L32.9983 43.0544L32.6785 44.0281L34.1025 43.3042L33.5413 44.5213L35.9911 42.7918L35.8161 43.6245L34.3438 45.7385L34.3438 46.4047L34.905 46.5328L36.4557 45.6872L36.3169 46.488L36.4738 47.0068L38.2417 45.9499L37.9038 46.9492L38.1452 47.3784L39.4967 46.725L38.0185 48.8389L38.9477 48.6019L40.6794 47.5834L39.3942 49.5115L41.1923 48.4225L40.2087 50.056L41.6267 49.3386L41.1199 50.5044L41.6267 50.6838L41.9767 51.0105L42.4292 51.2411L40.6975 53.6049L42.8154 52.202L43.9196 51.7856L41.5965 54.7259L44.3118 52.7337L42.7128 54.9758L42.5076 55.8406L44.6859 54.3864L45.4703 54.2903L45.6815 54.758L46.2426 54.8797L45.1444 56.6285L46.9787 55.5074L45.247 57.8776L46.4055 57.4164L48.2338 56.3018L45.6332 59.5239L49.0604 56.8463L47.4373 59.1076L47.0873 60.1325L47.1055 60.7987L48.3424 60.9461L49.1509 59.351L49.7181 60.4848L49.9232 57.5125L50.7559 61.7212L50.955 58.6784L51.5102 59.7417L52.1136 61.324L52.2463 57.4805L52.6868 57.1986L53.3022 58.941L53.622 57.3139L54.153 58.0698L54.6116 58.0057L55.1667 59.0691L55.5589 58.2684L55.9692 57.6726L56.3976 57.2755L57.0493 59.383L57.3027 56.9744L57.8156 57.5573L58.4551 59.5688L58.9861 60.3631L59.2214 57.7559L59.6619 57.5253L60.4041 60.7475L60.5368 56.9424L61.3514 60.9653L61.5143 57.5317L62.0031 57.8008L62.6547 59.9659L63.1857 60.7603L63.3546 57.3459L63.9641 59.0243L64.5674 60.6322L64.8631 58.7488L65.3096 58.5374L65.5932 56.4619L66.3173 59.4471L66.5224 56.4363L67.0112 56.7054L67.699 59.3061L67.8619 55.8534L68.417 56.8271L68.8092 56.0071L69.3945 57.3652L70.0643 59.7097L70.2755 56.7822L70.7461 56.8527L71.4581 59.6841L71.7719 57.9865L72.0374 55.7124L72.7071 58.0506L73.2441 58.9218L73.6363 58.057L74.0647 57.679L74.4509 56.7502L74.9577 57.2306L75.4465 57.5509L75.718 55.3153L76.1585 55.0654L76.6472 55.2961L77.2929 57.4228L77.6488 56.1544L78.1557 56.6221L78.6324 56.7694L79.0608 56.3915L79.5133 56.2633L80.0684 57.2883L80.3098 54.7067L80.8287 55.2768L81.6131 58.9282L81.7519 55.1743L82.3673 56.9296L82.7294 55.7124L83.3207 57.1538L83.7068 56.2569L84.1956 56.5132L84.8472 58.6591L84.9498 54.5017L85.3963 54.2967L85.9575 55.4178L86.5005 56.353L87.0315 57.0577L87.2487 54.2327L87.9305 56.7566L88.3107 55.7252L88.7391 55.3089L89.3907 57.4292L89.6261 54.8028L90.3079 57.2499L90.4829 53.9316L91.0139 54.7067L91.4422 54.2583L91.9793 55.0911L92.6128 57.0321L93.0654 56.9039L93.3731 55.0334L93.9946 56.8335L94.5195 57.5317L94.8333 55.8213L95.4306 57.3267L95.5996 53.9316L96.0823 54.1238L96.7702 56.6221L97.1563 55.7381L97.7597 57.3523L98.1519 56.5324L98.5682 55.9687L98.8518 53.8868L99.4311 55.264L99.956 55.911L100.421 55.9431L100.759 54.5274L101.133 53.4896L101.802 55.8021L102.02 53.022L102.786 56.4683L103.196 55.7765L103.353 52.2661L104.059 54.9694L104.536 55.1295L105.109 56.3722L105.368 53.9508L105.984 55.706L106.382 54.9117L106.853 55.0014L107.239 54.0469L107.655 53.4768L108.072 52.9003L108.765 55.5267L109.097 53.9316L109.761 56.1929L109.972 53.2718L110.461 53.5601L111.082 55.3153L111.324 52.7593L111.849 53.3935L112.313 53.3551L112.977 55.6484L113.116 51.8753L113.556 51.5358L114.256 54.2327L114.504 51.7344L114.914 51.081L115.674 54.4377L115.879 51.4397L116.555 53.8355L116.827 51.6063L117.255 51.145L117.804 52.0867L118.522 54.9565L118.673 51.286L119.198 51.9009L119.819 53.6626L120.405 54.9886L120.634 52.2597L121.068 51.8369L121.437 50.6198L122.245 51.9073L122.402 53.0668L123.754 51.5999L122.716 54.4313L123.319 54.3095L124.9 52.439L123.85 55.2896L124.544 55.0014L125.063 55.0398L126.233 53.906L125.431 56.3082L125.944 56.3594L126.427 56.4619L126.252 57.7367L128.406 54.8348L128.188 56.1865L128.738 56.1737L127.814 58.7873L128.279 58.9218L130.216 56.4107L130.481 56.9039L130.608 57.6342L130.958 57.9673L130.499 59.7546L131.742 58.4862L132.678 57.7623L133.444 57.3523L133.088 58.9602L133.975 58.3196L133.299 60.504L133.438 61.2215L134.995 59.3766L135.025 60.2862L136.123 59.2805L135.99 60.4848L136.032 61.3688L136.063 62.2785L137.318 60.9781L137.571 61.4906L137.094 63.3162L138.072 62.5219L137.951 63.7006L138.283 64.0657L139.001 63.739L140.063 62.8038L140.546 62.8998L140.292 64.3156L141.403 63.2906L141.185 64.6423L142.44 63.3611L143.014 63.3034L142.567 65.0714L143.352 64.623L143.925 64.5654L144.45 64.591L144.196 66.0131L145.288 65.0138L145.711 65.2252L145.88 65.885L146.368 65.9747L147.044 65.7184L147.111 66.5704L146.918 67.8836L147.907 67.0701L146.924 69.799L148.523 67.8964L148.197 69.4467L148.468 69.9143L149.784 68.5178L149.397 70.1769L151.057 68.1591L149.772 71.4389L150.93 70.3243L152.083 69.2161L151.292 71.6055L152.251 70.8496L152.42 71.5158L153.754 70.0937L152.058 74.1102L153.555 72.387L153.724 73.0468L154.641 72.3678L155.099 72.5087L156.216 71.4773L155.679 73.4119L155.974 73.8411L155.419 75.8077L157.537 72.9635L157.591 73.8283L157.815 74.3984L158.684 73.8091L158.026 75.9486L159.788 73.7578L159.329 75.5451L159.559 76.1024L159.064 77.9601L160.162 76.9544L160.47 77.3515L160.53 78.2035L161.731 77.0056L161.646 78.1202L163.203 76.2882L162.624 78.2868L162.057 80.2726L163.637 78.3957L164.5 77.8064L165.26 77.4092L165.604 77.7615L165.086 79.6641L166.015 78.9594L166.847 78.4341L165.399 82.0086L166.027 81.8421L168.139 79.0171L167.698 80.7787L168.73 79.8883L168.446 81.3616L168.893 81.5218L169.104 82.1175L169.81 81.8036L169.72 82.9375L171.113 81.4001L170.106 84.1738L171.711 82.2585L172.073 82.5788L171.325 84.8913L171.433 85.6664L172.423 84.8657L172.163 86.307L174.16 83.687L174.752 83.5909L173.823 86.2237L174.341 86.2621L174.335 87.2358L175.584 85.9739L175.355 87.3511L176.182 86.8451L176.936 86.4543L175.977 89.1512L177.57 87.2615L178.529 86.5056L177.775 88.8309L179.482 86.7426L179.675 87.3575L180.043 87.6778L179.156 90.2466L181.196 87.5497L180.804 89.2217L181.582 88.7797L180.689 91.3612L182.409 89.2345L182.294 90.4132L182.777 90.522L182.445 92.0915L184.599 89.196L183.012 93.0139L184.943 90.5285L184.798 91.7584L185.444 91.5854L184.991 93.3663L184.865 94.577L186.476 92.6616L187.592 91.6303L188.044 91.7968L187.188 94.3143L187.598 94.5578L189.655 92.7897L188.213 94.8781L187.712 95.7685L190.162 94.7499L188.974 96.0888L188.388 97.0368L188.189 97.7351L191.26 96.3194L190.886 97.1329L190.675 97.8376L192.045 97.5237L189.511 99.7401L191.073 99.2981L191.912 99.3301L191.387 100.246L191.278 100.887L192.413 100.727L193.565 100.547L192.54 101.784L193.964 101.431L194.096 101.918L193.964 102.572L195.243 102.315L193.016 104.327L194.392 104.006L193.348 105.256L192.89 106.127L196.166 104.577L194.923 105.96L194.332 106.915L195.611 106.658L196.383 106.735L196.1 107.491L197.174 107.37L197.349 107.831L195.834 109.381L197.692 108.753L198.628 108.721L197.409 110.086L198.742 109.797L197.765 111.002L197.59 111.694L197.65 112.225L197.747 112.738L200.221 111.706L197.487 114.057L199.503 113.327L199.273 114.051L198.055 115.409L201.192 113.955L200.794 114.781L199.979 115.877L202.417 114.877L199.647 117.241L201.578 116.568L201.035 117.497L202.212 117.311L202.423 117.747L203.847 117.408L202.296 118.983L202.984 119.118L202.725 119.861L203.141 120.169L203.159 120.739L203.569 121.046L203.769 121.501L205.748 120.796L204.637 122.097L203.817 124.313L205.054 120.566L205.561 122.013L206.031 122.263L206.496 122.443L206.9 120.751L207.371 120.969L207.854 121.7L208.354 123.038L208.849 124.006L209.271 122.891L209.682 121.322L210.201 123.186L210.635 122.295L211.118 123.032L211.601 123.73L212.005 121.86L212.475 122.257L212.934 122.142L213.356 120.886L213.839 121.52L214.316 122.142L214.805 122.84L215.221 121.437L215.655 120.63L216.102 120.13L216.663 123.186L217.17 124.473L217.616 124.083L218.021 122.129L218.461 121.616L218.895 120.732L219.39 121.738L219.927 124.07L220.319 121.802L220.748 120.88L221.261 122.462L221.671 120.835L222.214 123.436L222.703 124.236L223.155 123.942L223.536 121.411L223.958 120.277L224.429 120.623L224.863 119.675L225.334 119.906L225.925 124.031L226.341 122.667L226.758 121.206L227.283 123.16L227.759 123.506L228.133 120.841L228.574 120.015L229.165 124.025L229.612 123.512L230.016 121.706L230.45 120.796L230.921 121.104L231.404 121.655L231.796 119.63L232.254 119.438L232.749 120.457L233.226 120.937L233.672 120.546L234.119 119.989L234.662 122.423L235.048 120.053L235.483 119.336L235.965 119.893L236.502 122.09L237.009 123.557L237.401 121.302L237.842 120.643L238.349 121.969L238.843 123.026L239.32 123.461L239.7 120.848L240.141 120.207L240.575 119.291L241.148 122.692L241.559 121.085L241.963 119.393L242.542 123.013L242.989 122.468L243.399 120.783L243.815 119.393L244.292 119.701L244.805 121.296L245.306 122.513L245.704 120.553L246.241 122.853L246.603 119.803L247.043 119.272L247.508 119.406L247.979 119.675L248.461 120.367L248.98 122.052L249.475 123.173L249.879 121.405L250.259 118.855L250.748 119.56L251.334 123.282L251.786 122.923L252.251 122.961L252.625 120.309L253.059 119.425L253.638 122.987L254.079 122.212L254.55 122.532L254.942 120.393L255.443 121.495L255.811 118.625L256.33 120.245L256.788 120.034L257.235 119.541L257.705 119.791L258.218 121.168L258.61 119.009L259.184 122.391L259.558 119.566L260.101 121.956L260.523 120.751L260.964 119.88L261.488 121.815L261.857 118.894L262.394 121.181L262.786 118.945L263.305 120.598L263.836 122.692L264.155 118.298L264.644 118.983L265.151 120.226L265.628 120.604L266.05 119.24L266.497 118.625L267.088 122.519L267.54 122.103L267.933 119.912L268.379 119.163L268.814 118.138L269.326 119.547L270.358 118.471L270.238 120.521L270.063 121.565L271.764 120.002L272.217 120.169L272.271 120.892L271.921 122.186L271.269 123.897L272.609 122.827L273.508 122.366L272.156 125.05L273.158 124.454L272.886 125.633L273.297 125.857L273.773 125.991L274.19 126.203L275.982 124.505L275.988 125.293L276.989 124.691L277.858 124.281L276.235 127.35L278.715 124.685L278.263 126.126L277.466 128.035L278.769 127.023L277.78 129.207L279.288 127.913L278.498 129.822L280.682 127.58L281.593 127.119L279.825 130.386L281.165 129.323L282.764 127.9L282.227 129.451L282.36 130.072L283.524 129.252L282.227 131.859L282.595 132.154L282.342 133.307L284.429 131.199L283.15 133.781L286.004 130.61L285.455 132.18L285.66 132.705L285.702 133.454L286.668 132.916L285.672 135.113L285.708 135.869L288.291 133.076L287.579 134.87L288.074 134.985L288.508 135.184L287.651 137.189L288.611 136.657L289.063 136.83L290.481 135.664L289.697 137.573L289.866 138.143L289.842 138.983L290.204 139.29L292.14 137.388L292.925 137.106L292.961 137.868L292.201 139.732L294.397 137.477L294.675 137.894L294.168 139.405L293.39 141.295L295.688 138.899L296.099 139.13L296.4 139.527L295.326 141.827L297.01 140.296L296.829 141.353L296.877 142.102L296.274 143.755L297.1 143.415L297.861 143.166L298.205 143.492L298.265 144.229L298.078 145.305L299.17 144.594L299.785 144.549L299.206 146.176L300.232 145.369L301.378 145.331L301.481 145.805L302.187 146.061L301.221 146.939L302.712 146.9L303.376 147.169L301.457 148.406L299.84 149.533L303.798 148.572L302.422 149.604L302.929 149.937L303.629 150.193L302.531 151.122L304.407 150.936L304.395 151.461L301.952 152.896L304.679 152.384L304.389 153.018L303.87 153.729L305.337 153.697L302.326 155.343L302.561 155.772L304.806 155.452L304.293 156.163L305.512 156.221L302.579 157.848L306.302 156.964L304.088 158.316L306.857 157.797L307.135 158.213L306.248 159.065L304.57 160.212L305.3 160.455L307.159 160.269L305.789 161.301L307.062 161.339L305.988 162.262L308.384 161.884L305.705 163.402L308.456 162.889L306.64 164.094L308.788 163.805L308.004 164.619L306.61 165.663L307.394 165.887L308.01 166.169L309.168 166.253L306.115 167.918L308.878 167.393L307.756 168.334L306.682 169.257L307.201 169.577L306.688 170.288L309.741 169.66L309.313 170.339L308.191 171.281L308.957 171.512L307.46 172.601L310.773 171.877L308.414 173.28L310.785 172.908L311.485 173.164L308.269 174.894L308.89 175.176L310.091 175.246L309.361 176.041L308.987 176.701L310.133 176.79L311.135 176.938L311.485 177.328L310.876 178.071L312.638 177.93L313.331 178.193L313.742 178.558L312.463 179.558L311.081 180.602L314.351 179.897L311.811 181.37L313.295 181.332L312.698 182.069L312.77 182.562L313.615 182.767L314.146 183.087L312.957 184.054L314.381 184.042L315.232 184.247L315.914 184.509L312.662 186.258L315.051 185.88L315.123 186.38L313.85 187.379L313.82 187.917L313.844 188.423L315.28 188.41L315.063 189.019L316.409 189.038L317 190.435L314.062 188.59L313.555 188.68L313.959 190.172L313.814 190.813L313.923 191.85L312.282 190.159L312.179 190.87L311.847 191.216L313.048 193.939L312.318 193.663L312.487 194.791L309.747 191.402L310.224 193.01L310.381 194.118L310.785 195.611L309.741 194.861L308.709 194.125L308.746 195.053L307.285 193.663L308.064 195.739L308.42 197.161L307.696 196.911L305.723 194.72L306.024 196.066L305.572 196.232L304.534 195.489L304.172 195.796L303.894 196.238L303.726 196.841L303.376 197.167L303.134 197.661L303.514 199.115L301.734 197.225L301.602 197.885L303.201 201.241L302.241 200.62L302.295 201.581L301.813 201.703L300.624 200.729L299.242 199.461L299.085 200.095L300.298 202.849L300.202 203.567L299.098 202.721L298.567 202.772L298.386 203.362L296.775 201.735L296.581 202.305L297.299 204.303L297.474 205.45L296.781 205.245L294.608 202.747L295.67 205.264L294.663 204.579L294.102 204.585L294.536 206.136L293.583 205.527L294.005 207.052L293.806 207.615L293.402 207.859L292.068 206.648L290.958 205.802L290.608 206.136L291.76 208.8L290.885 208.32L289.685 207.327L290.825 209.979L289.787 209.242L288.894 208.743L288.424 208.884L289.486 211.414L287.609 209.377L287.078 209.435L287.675 211.241L286.396 210.139L287.332 212.477L285.95 211.215L285.986 212.24L285.123 211.632L285.371 213.214L284.882 213.278L283.826 212.17L284.097 213.797L283.313 213.259L283.198 214.085L281.961 212.612L281.967 213.701L281.141 213.067L281.141 214.143L280.465 213.823L280.658 215.277L280.598 216.225L279.542 215.104L279.783 216.673L278.154 214.374L277.581 214.252L277.762 215.693L277.629 216.487L277.858 218.044L276.736 216.789L275.3 214.905L275.638 216.673L275.167 216.776L274.908 217.32L275.149 218.89L273.985 217.557L273.086 216.769L273.574 218.851L271.987 216.641L273.448 220.735L271.475 217.717L270.907 217.628L271.662 220.248L271.378 220.747L269.616 218.172L269.773 219.575L268.832 218.698L269.055 220.235L268.922 221.036L268.277 220.786L267.311 219.87L266.78 219.844L267.275 221.939L267.022 222.49L265.954 221.356L266.207 222.957L265.857 223.316L265.851 224.373L264.469 222.592L264.27 223.271L264.035 223.861L264.131 225.142L262.357 222.541L262.309 223.521L263.069 226.167L261.488 223.989L261.078 224.213L260.589 224.283L260.27 224.7L260.849 226.98L260.638 227.615L259.92 227.205L258.393 225.116L258.834 227.108L258.852 228.23L258.544 228.671L257.772 228.159L257.385 228.441L256.42 227.518L255.974 227.679L256.13 229.088L255.618 229.12L254.013 226.878L254.061 228.069L253.506 227.999L253.723 229.53L252.57 228.236L252.782 229.767L252.625 231.894L251.774 229.985L251.466 228.556L250.851 229.927L250.543 228.569L249.843 230.664L249.403 230.446L249.204 228.095L248.848 227.16L248.214 228.633L247.574 230.228L247.025 230.952L246.718 229.581L246.337 228.838L245.885 228.774L245.65 226.75L244.805 230.158L244.594 227.909L243.918 229.786L243.761 227.076L243.073 229.075L242.898 226.506L242.385 226.936L241.522 230.465L241.148 229.671L240.973 227.134L240.545 226.82L239.791 229.402L239.465 228.191L239.205 226.365L238.638 227.281L238.192 227.14L237.407 229.972L237.293 226.923L236.985 225.533L236.219 228.204L235.953 226.487L235.344 227.762L235.024 226.5L234.258 229.165L233.986 227.493L233.612 226.698L232.942 228.543L232.417 229.069L232.17 227.166L231.814 226.256L231.319 226.538L230.921 225.987L230.438 226.173L229.962 226.276L229.322 227.852L228.809 228.3L228.652 225.603L228.091 226.449L227.373 228.723L226.914 228.639L226.655 226.839L226.19 226.852L225.901 225.27L225.497 224.745L224.748 227.294L224.374 226.526L224.079 224.995L223.529 225.75L222.866 227.544L222.486 226.788L222.015 226.833L221.593 226.449L221.182 225.962L220.796 225.283L220.036 227.89L219.68 226.903L219.36 225.629L218.841 226.084L218.491 225.091L218.111 224.309L217.574 224.982L217.218 224.034L216.802 223.598L215.981 226.782L215.577 226.199L215.173 225.648L214.817 224.732L214.286 225.296L214.008 223.592L213.586 223.214L213.037 223.931L212.542 224.2L212.041 224.495L211.413 225.936L211.196 223.713L210.587 224.995L210.309 223.259L209.857 223.143L208.952 222.893L207.787 222.765L207.594 223.355L208.578 225.923L207.576 225.167L208.197 227.128L205.917 224.207L206.623 226.308L206.309 226.705L205.054 225.513L205.422 227.051L206.019 228.966L205.114 228.358L203.443 226.474L204.161 228.595L202.302 226.397L203.666 229.6L203.328 229.953L201.56 227.903L201.554 228.806L201.687 229.953L200.516 228.909L201.476 231.445L199.901 229.716L199.43 229.844L200.359 232.323L198.248 229.69L198.411 230.888L198.266 231.561L197.729 231.58L197.029 231.317L196.993 232.176L197.892 234.603L195.4 231.336L196.534 234.161L196.582 235.161L195.249 233.847L195.617 235.378L194.76 234.847L193.155 233.06L193.469 234.494L192.383 233.585L192.672 234.981L192.702 235.949L192.884 237.166L190.663 234.354L190.856 235.596L190.923 236.615L191.472 238.46L191.097 238.748L189.342 236.724L189.028 237.114L190.096 239.831L189.71 240.106L187.773 237.768L187 237.396L187.55 239.228L187.507 240.074L186.844 239.882L185.806 239.049L186.789 241.631L184.448 238.607L185.872 241.912L184.478 240.49L183.217 239.292L183.151 240.106L184.4 243.117L182.608 241.028L182.107 241.118L181.612 241.201L182.753 244.046L181.009 242.041L181.039 243.014L180.074 242.31L180.013 243.123L179.422 243.059L180.677 246.083L179.163 244.468L178.354 244.026L178.101 244.52L178.523 246.153L177.956 246.128L178.306 247.639L177.479 247.178L176.339 246.172L174.897 244.68L176.085 247.607L175.79 248.037L174.432 246.672L175.53 249.433L173.376 246.736L172.7 246.518L174.203 249.958L172.447 247.934L173.231 250.182L171.928 248.921L171.451 249.042L171.753 250.477L170.076 248.581L169.943 249.286L169.05 248.716L170.552 252.162L168.537 249.708L168 249.734L167.867 250.439L169.014 253.296L168.627 253.584L166.57 251.06L166.95 252.457L166.805 251.726L166.147 252.22L165.87 251.592L165.918 250.003L165.212 250.644L164.573 251.086L164.211 250.708L164.235 249.177L162.527 252.777L162.171 252.373L162.762 249.183L161.918 250.234L161.55 249.862L160.669 251.028L160.355 250.503L159.607 251.278L160.252 247.908L158.599 251.361L158.527 250.125L158.153 249.798L157.664 249.792L157.591 248.568L156.686 249.785L156.692 248.325L155.546 250.272L155.202 249.856L155.075 248.78L154.412 249.292L154.864 246.512L153.482 249.151L152.921 249.363L152.813 248.254L152.529 247.633L152.372 246.659L152.312 245.384L151.733 245.66L150.846 246.832L151.087 244.673L150.646 244.526L149.367 246.864L149.554 244.872L148.909 245.327L148.517 245.032L148.317 244.18L147.648 244.705L146.302 247.223L147.068 243.52L146.803 242.841L145.759 244.481L145.126 244.91L145.264 243.046L143.864 245.737L143.502 245.34L142.935 245.57L143.78 241.624L141.958 245.577L141.964 244.11L142.483 241.112L140.751 244.789L140.335 244.584L141.216 240.522L140.154 242.214L139.411 242.957L139.635 240.849L138.669 242.271L138.193 242.214L138.072 241.137L137.686 240.817L137.348 240.369L137.167 239.446L135.755 242.175L135.52 241.432L135.797 239.152L135.55 238.434L134.397 240.381L133.553 241.438L133.963 238.767L132.973 240.234L132.291 240.804L132.575 238.505L131.145 241.285L131.525 238.722L131.205 238.203L131.242 236.647L129.709 239.728L129.944 237.589L129.763 236.679L128.816 238.018L127.899 239.292L127.507 238.998L126.764 239.734L126.433 239.267L125.956 239.216L126.469 236.25L125.015 239.094L125.135 237.287L124.478 237.774L124.616 235.917L123.699 237.185L122.921 238.043L122.71 237.217L122.432 236.589L122.396 235.25L122.33 233.995L121.038 236.365L121.509 233.508L120.459 235.167L119.711 235.917L119.168 236.083L119.626 233.271L118.54 235.039L118.951 232.381L118.534 232.169L117.466 233.879L117.72 231.676L116.784 232.983L115.982 233.924L115.759 233.136L115.662 231.958L114.636 233.553L113.707 234.847L113.502 234.001L113.176 233.502L112.875 232.944L113.164 230.632L112.603 230.837L111.155 233.662L111.27 231.868L110.437 232.874L109.942 232.887L109.846 231.714L110.159 229.351L109.797 228.953L108.94 230.023L108.265 230.574L107.806 230.459L107.667 229.427L106.424 231.637L106.756 229.203L106.497 228.505L105.284 230.638L104.656 231.042L104.62 229.69L104.795 227.711L103.709 229.472L104.276 226.353L103.178 228.146L101.977 230.241L102.364 227.64L101.386 229.069L101.754 226.513L100.994 227.313L100.819 226.353L99.419 229.049L100.022 225.795L98.8579 227.775L98.3269 227.884L98.1157 227.038L98.4536 224.572L96.7883 228.044L96.565 227.217L97.0356 224.354L96.1185 227.243L96.1849 227.192L94.5256 224.168L94.3506 225.001L93.9463 225.238L93.6386 225.725L93.8075 227.448L93.0955 226.891L93.5119 229.274L91.7017 225.84L91.8284 227.454L90.8087 226.09L90.1872 225.757L90.6759 228.326L90.6156 229.459L90.2596 229.837L89.445 228.998L88.6003 228.089L88.8477 230.023L88.4857 230.388L87.2668 228.479L87.7194 230.946L87.3211 231.195L86.3979 230.068L85.4989 229.017L84.8291 228.563L84.9016 230.03L85.348 232.483L84.0508 230.408L83.8155 231.08L83.6465 231.939L82.1622 229.357L82.9164 232.611L81.6614 230.638L81.1123 230.491L81.1606 231.913L81.5105 234.123L81.0399 234.181L79.8452 232.342L80.0141 234.078L78.6806 231.887L79.1754 234.469L79.0487 235.43L77.9928 233.963L77.3411 233.553L77.7937 236.038L76.786 234.706L76.5326 235.346L75.6456 234.321L75.5249 235.308L75.6758 236.986L74.4026 234.968L73.4794 233.847L74.1914 237.006L72.5623 234.052L71.977 233.809L72.7011 236.999L71.9529 236.346L71.4581 236.365L70.4203 234.956L70.3479 236.058L69.9134 236.224L70.4323 238.863L68.8334 235.993L69.5273 239.113L68.3446 237.326L68.2903 238.473L68.0309 239.1L67.3551 238.626L67.5663 240.465L66.7095 239.529L66.0819 239.19L66.2871 241.022L64.5011 237.672L63.8675 237.319L64.0727 239.145L63.2641 238.338L63.415 240.036L63.2762 240.971L62.2685 239.651L61.3091 238.453L61.8884 241.265L60.8023 239.741L60.2593 239.632L59.6317 239.312L60.3196 242.412L60.0903 242.861L59.3964 242.335L58.7387 242.098L57.8819 241.483L57.3087 241.4L57.544 242.809L57.9 244.449L56.657 243.123L55.3779 241.746L55.2934 242.566L55.9933 244.834L56.0295 245.871L54.6599 244.308L53.4591 243.072L54.3461 245.686L53.0729 244.308L53.8272 246.678L52.8678 245.891L51.4015 244.161L52.723 247.569L50.8947 245.173L50.2189 244.904L51.6248 248.466L50.0379 246.518L50.4361 248.235L48.8432 246.275L48.7225 247.018L49.2475 248.959L48.0648 247.748L48.1372 248.863L47.8899 249.375L47.7088 250.016L47.3287 250.304L46.128 249.061L45.8142 249.459L45.1022 249.126L45.072 250.048L45.2289 251.316L44.0764 250.17L43.0748 249.311L44.5954 253.097L43.099 251.31L43.1834 252.45L43.1653 253.405L41.5422 251.393L42.3206 253.821L40.426 250.951L40.9147 253.417L39.8407 251.598L39.3338 251.541L39.1347 252.444L38.3202 251.451L38.8149 254.474L37.8918 253.136L37.9762 254.904L37.4332 254.737L36.8841 254.551L36.3229 254.314L35.4118 253.001L35.9006 256.018L35.5265 256.364L34.8265 255.711L33.5051 253.136L33.3422 254.135L32.6423 253.494L32.4009 254.257L32.051 254.667L32.6061 257.902L31.9122 257.274L31.345 257.037L30.9769 257.415L30.1503 256.364L29.9512 257.255L28.8832 255.474L28.4729 255.711L29.203 259.477L28.0988 257.588L27.8152 258.228L26.6989 256.294L27.3204 259.727L26.3248 258.164L26.0413 258.805L25.3232 258.1L24.9431 258.446L24.4604 258.459L23.9234 258.324L23.2958 257.908L23.5131 260.092L22.5899 258.76L22.2158 259.087L21.8296 259.42L21.3167 259.349L21.6245 261.803L20.9487 261.226L20.6047 261.694L19.8867 260.989L19.9471 262.693L19.1687 261.796L18.6618 261.764L17.6783 260.24L17.4189 260.957L17.3465 262.258L16.2724 260.477L16.725 263.385L15.3492 260.663L15.1441 261.553L14.9631 262.527L14.5226 263.122L14.058 261.277L13.515 262.411L12.984 263.417L12.7185 260.528L12.0608 263.321L11.7772 260.778L11.3126 260.746L10.7515 262.168L10.4196 260.278L9.7981 262.629L9.35764 262.245L8.77838 263.981L8.4646 261.777L7.84915 264L7.67416 259.804L7.02252 262.527L6.58807 262.097L6.13553 261.995L5.82779 259.702L5.23047 261.636L4.90463 259.65L4.26504 262.194L3.84268 261.579L3.52286 259.471L2.91348 261.521L2.479 261.156L1.90579 262.719L1.4231 262.949L1.14557 260.246L0.759369 259.151L0.252533 259.791L-0.39914 262.482L-0.718933 260.419L-1.34042 262.725L-1.57571 259.381L-2.11877 260.547L-2.77045 263.276L-3.19278 262.623L-3.48245 260.086L-3.88065 259.138L-4.33923 259.029L-5.06934 262.898L-5.2926 259.413L-5.96234 262.36L-6.30023 260.496L-6.92777 262.885L-7.33807 262.149L-7.63977 259.753L-8.15869 260.579L-8.50262 258.805L-9.0336 259.766L-9.54044 260.445L-9.87833 258.613L-10.4033 259.497L-10.892 259.843L-11.3807 260.118L-11.9298 261.393L-12.4488 262.187L-12.8047 260.688L-13.3599 261.989L-13.6736 259.83L-14.283 261.937L-14.5667 259.343L-15.1942 261.726L-15.4657 259.003L-15.9363 259.087L-16.3285 258.03L-17.0345 261.623L-17.4146 260.342L-17.8189 259.471L-18.2835 259.497L-18.8688 261.239L-19.2308 259.689L-19.6894 259.567L-20.0574 258.177L-20.7755 261.937L-20.9444 257.626L-21.4211 257.786L-22.0064 259.516L-22.5193 260.278L-22.7968 257.543L-23.4967 260.887L-23.895 259.894L-24.2691 258.593L-24.9509 261.707L-25.4095 261.617L-25.862 261.438L-26.1154 258.324L-26.6585 259.426L-27.0809 258.869L-27.5455 258.773L-28.0704 259.702L-28.5229 259.439L-28.9634 259.138L-29.3496 258.023L-29.7297 256.742L-30.3029 258.26L-30.9546 261.04L-31.383 260.477L-31.8476 260.426L-32.089 257.178L-32.6924 259.157L-33.0363 257.312L-33.6759 259.83L-33.9353 256.761L-34.5991 259.663L-35.1421 260.778L-35.3231 256.588L-35.8782 257.818L-36.5299 260.419L-37.3867 259.99L-37.5738 258.67L-37.5013 257.729L-37.5798 257.024L-37.972 256.761L-39.6434 258.356L-40.3312 258.529L-40.3372 257.703L-40.838 257.6L-39.0762 254.225L-39.6614 254.244L-41.4776 256.05L-41.3027 254.961L-42.5094 255.884L-42.9861 255.736L-42.1896 253.751L-42.3043 253.084L-44.4584 255.384L-43.7283 253.488L-43.1973 251.899L-43.3723 251.323L-45.2368 253.187L-44.9411 251.931L-46.4677 253.315L-45.1161 250.528L-46.5883 251.835L-46.4737 250.836L-47.1193 250.945L-47.415 250.554L-48.6519 251.521L-48.0606 249.843L-49.0682 250.477L-49.1105 249.715L-49.7561 249.83L-49.4725 248.594L-50.7034 249.555L-50.3655 248.242L-49.3277 245.91L-50.806 247.229L-52.0973 248.28L-52.3869 247.87L-52.8153 247.665L-52.3024 246.096L-53.5092 247.012L-53.2014 245.743L-52.9963 244.609L-54.1789 245.493L-55.1685 246.096L-54.9392 244.93L-53.9617 242.681L-55.7417 244.424L-56.6468 244.91L-55.271 242.092L-57.7389 244.84L-56.9967 242.931L-57.9441 243.476L-56.7373 240.9L-59.0603 243.437L-59.4284 243.149L-58.107 240.401L-58.7345 240.484L-58.9879 240.01L-58.65 238.697L-61.2084 241.567L-60.7619 240.087L-59.9533 238.075L-61.9928 240.209L-62.1255 239.568L-62.391 239.113L-63.278 239.568L-64.1529 240.01L-63.64 238.434L-62.6927 236.23L-62.8858 235.673L-63.1875 235.27L-65.9751 238.479L-65.3838 236.788L-66.6087 237.729L-65.4381 235.206L-67.3508 237.134L-66.2165 234.661L-66.132 233.7L-68.4731 236.262L-68.6481 235.686L-68.1473 234.129L-67.5258 232.4L-69.0886 233.835L-68.811 232.605L-69.4566 232.701L-69.6014 232.073L-69.8851 231.644L-70.054 231.061L-70.3617 230.67L-70.8264 230.504L-71.8702 231.183L-71.6107 229.965L-71.9124 229.568L-72.6124 229.748L-73.2459 229.825L-73.8493 229.863L-73.7648 228.896L-74.0363 228.447L-74.8147 228.729L-74.7182 226.461L-75.7319 228.787L-76.3353 226.903L-76.7455 227.563L-77.2826 226.532L-77.6144 228.223L-77.9463 229.965L-78.3747 230.369L-78.8936 229.568L-79.3401 229.741L-79.7746 230.036L-80.2754 229.517L-80.6977 229.978L-81.2891 228.255L-81.5546 230.811L-82.2967 227.128L-82.52 230.17L-83.0027 229.889L-83.4974 229.427L-83.9922 228.934L-84.4448 229.088L-84.8732 229.434L-85.2292 230.785L-85.6757 231.029L-86.1282 231.087L-86.7678 228.684L-87.0514 231.061L-87.5643 230.299L-88.0349 230.209L-88.6443 228.255L-88.8917 231.061L-89.2899 231.81L-89.9235 229.568L-90.364 229.786L-90.72 231.221L-91.3897 228.434L-91.9026 227.73L-92.0233 232.227L-92.5181 231.83L-93.2542 228.21L-93.4412 231.753L-93.942 231.285L-94.3463 232.009L-94.9195 230.542L-95.5169 228.825L-95.9694 228.909L-96.1625 232.47L-96.7297 231.131L-97.1339 231.855L-97.7917 229.338L-98.1356 230.869L-98.57 231.247L-99.2156 228.832L-99.6863 228.729L-100.139 228.87L-100.591 229.049L-100.965 230.19L-101.406 230.478L-101.877 230.311L-102.456 228.8L-102.812 230.151L-103.065 232.906L-103.669 231.029L-104.067 231.874L-104.688 229.76L-105.068 230.83L-105.527 230.894L-105.943 231.458L-106.48 230.446L-106.728 233.252L-107.337 231.349L-107.856 230.548L-108.369 229.908L-108.677 231.945L-109.244 230.536L-109.684 230.785L-110.125 231.067L-110.668 230.036L-111.102 230.331L-111.555 230.44L-111.971 231.035L-112.303 232.771L-112.961 230.222L-113.437 230.049L-113.649 233.361L-114.312 230.645L-114.705 231.612L-115.061 232.995L-115.622 231.753L-116.189 230.363L-116.515 232.201L-117.124 230.267L-117.456 232.028L-117.788 233.739L-118.234 233.982L-118.934 230.843L-119.278 232.393L-119.622 233.95L-120.34 230.561L-120.521 234.283L-121.046 233.502L-121.662 231.426L-121.891 234.52L-122.337 234.706L-123.08 231.029L-123.472 231.977L-123.967 231.516L-124.425 231.631L-124.691 234.181L-125.161 234.065L-125.674 233.418L-126.03 234.834L-126.471 235.116L-127.104 232.861L-127.521 233.508L-127.949 233.944L-128.486 233.015L-128.866 234.078L-129.542 231.304L-130 231.426L-130.332 233.136L-130.616 235.5L-131.316 232.406L-131.545 235.436L-132.287 231.798L-132.559 234.27L-133.126 232.893L-133.657 232.035L-134.055 232.912L-134.604 231.753L-134.972 232.983L-135.419 233.232L-135.926 232.669L-136.312 233.713L-136.764 233.847L-137.187 234.386L-137.826 232.111L-137.983 236.141L-138.581 234.328L-139.136 233.143L-139.643 232.605L-139.824 236.295L-140.566 232.598L-141.085 231.881L-141.525 232.201L-141.694 236.07L-142.195 235.564L-142.605 236.282L-143.269 233.655L-143.595 235.462L-144.126 234.597L-144.747 232.489L-144.976 235.603L-145.532 234.328L-146.02 234.008L-146.449 234.43L-146.768 236.301L-147.287 235.539L-147.782 235.097L-148.241 235.148L-148.693 235.302L-149.158 235.276L-149.689 234.36L-149.93 237.268L-150.6 234.616L-151.01 235.302L-151.409 236.198L-152.072 233.591L-152.501 234.065L-152.881 235.122L-153.243 236.461L-153.888 234.084L-154.184 236.301L-154.806 234.213L-154.999 237.742L-155.795 233.399L-155.952 237.524L-156.622 234.796L-157.147 233.988L-157.629 233.771L-158.118 233.45L-158.583 233.412L-158.957 234.642L-159.319 236.038L-159.856 235.058L-160.423 233.707L-160.55 238.191L-161.286 234.655L-161.69 235.404L-162.101 236.122L-162.692 234.443L-163.024 236.243L-163.337 238.191L-163.905 236.839L-164.255 238.338L-164.942 235.475L-165.19 238.306L-165.667 238.223L-166.385 234.949L-166.668 237.358L-167.151 237.082L-167.549 238.037L-168.002 238.178L-168.599 236.564L-168.937 238.248L-169.54 236.781L-169.818 235.827L-170.765 237.934L-171.091 237.262L-170.97 234.635L-172.117 237.627L-171.96 234.84L-172.642 235.75L-173.342 236.749L-173.993 237.537L-174.289 236.769L-174.204 234.315L-174.585 233.905L-174.862 233.04L-175.864 235.398L-176.654 236.781L-176.57 234.328L-177.535 236.493L-177.505 234.283L-178.482 236.506L-178.579 234.815L-178.899 234.123L-179.665 235.423L-180.287 236.077L-180.22 233.7L-180.763 233.988L-181.192 233.79L-181.228 231.855L-182.537 235.551L-182.513 233.361L-182.712 232.143L-183.364 232.912L-183.557 231.644L-184.317 232.919L-184.565 231.913L-185.053 231.99L-185.789 233.136L-186.097 232.374L-186.133 230.44L-187.509 234.418L-187.461 232.105L-187.612 230.664L-187.98 230.203L-188.601 230.85L-189.084 230.882L-190.128 233.399L-190.182 231.548L-191.051 233.265L-191.461 232.976L-191.648 231.721L-192.312 232.534L-192.909 233.066L-193.084 231.727L-193.694 232.329L-193.682 230.158L-194.647 232.323L-194.72 230.523L-195.148 230.311L-195.196 228.39L-195.963 229.652L-197.018 230.901L-198.123 231.022L-196.916 228.838L-198.056 229.472L-196.795 227.217L-199.366 229.568L-199.1 228.511L-199.402 228.146L-197.875 225.577L-199.185 226.41L-198.623 225.007L-199.396 225.193L-200.488 225.776L-202.244 227.14L-200.597 224.431L-200.512 223.592L-202.974 225.802L-202.883 224.956L-203.686 225.18L-202.491 223.002L-202.358 222.105L-203.336 222.541L-204.368 223.047L-203.891 221.734L-204.102 221.247L-205.834 222.586L-204.205 219.889L-206.323 221.689L-204.887 219.229L-205.152 218.806L-206.232 219.364L-206.232 218.621L-206.419 218.108L-206.474 217.436L-208.41 219.018L-207.324 216.974L-209.376 218.698L-207.873 216.167L-209.267 217.102L-209.478 216.616L-210.583 217.199L-210.136 215.924L-210.456 215.565L-210.142 214.444L-210.697 214.374L-210.613 213.534L-210.902 213.137L-211.789 213.451L-211.789 212.708L-214.818 215.597L-215.168 215.283L-213.34 212.343L-215.078 213.688L-213.672 211.254L-215.79 213.048L-214.076 210.242L-215.778 211.536L-215.277 210.453L-215.591 210.094L-216.279 210.069L-216.369 209.511L-215.663 208.237L-219.139 210.729L-218.716 209.704L-219.434 209.716L-217.377 207.225L-217.334 206.546L-219.054 207.462L-219.712 207.41L-219.676 206.738L-218.493 205.034L-221.48 207.084L-220.756 205.79L-222.041 206.309L-222.107 205.726L-223.157 206.027L-222.373 204.681L-221.872 203.586L-222.131 203.176L-223.875 204.111L-222.427 202.158L-221.709 200.876L-222.391 200.844L-223.024 200.774L-224.629 201.581L-222.886 199.365L-224.605 200.268L-226.711 201.517L-225.426 199.723L-224.31 198.077L-224.919 197.981L-226.15 198.442L-224.973 196.738L-226.723 197.673L-226.409 196.751L-227.049 196.687L-228.739 197.571L-227.646 195.944L-229.758 197.206L-227.363 194.406L-227.9 194.24L-230.832 196.238L-229.613 194.496L-230 194.208L-228.582 192.28L-231.906 194.631L-229.088 191.447L-231.291 192.779L-231.309 192.152L-230.899 191.139L-232.992 192.376L-231.599 190.473L-234 191.985L-233.324 190.723L-231.967 189.589L-231.804 189.711L-232.576 189.038L-232.178 188.628L-231.689 188.231L-230.597 187.968L-232.805 186.982L-233.167 186.405L-233.922 185.739L-233.741 185.278L-232.178 185.118L-232.323 184.586L-232.757 183.99L-230.675 183.946L-232.673 183.004L-230.874 182.895L-233.499 181.825L-231.677 181.723L-230.144 181.556L-230.35 181.012L-232.908 179.948L-231.695 179.711L-229.837 179.615L-229.969 179.084L-230.217 178.526L-232.268 177.578L-231.146 177.322L-231.623 176.72L-231.285 176.291L-230.706 175.913L-228.751 175.842L-229.094 175.266L-231.635 174.215L-229.432 174.189L-227.876 174.029L-229.378 173.203L-231.074 172.332L-230.549 171.941L-230.482 171.454L-231.055 170.833L-231.249 170.288L-229.951 170.07L-228.865 169.808L-229.113 169.257L-230.072 168.546L-227.514 168.603L-228.002 168.001L-227.133 167.687L-228.932 166.797L-229.046 166.272L-229.831 165.599L-227.23 165.663L-227.924 165.01L-226.452 164.83L-226.723 164.267L-226.041 163.914L-229.269 162.71L-226.307 162.851L-227.514 162.089L-225.782 161.967L-228.521 160.865L-227.393 160.609L-225.818 160.449L-228.576 159.347L-226.53 159.289L-225.981 158.905L-228.642 157.822L-227.254 157.624L-224.684 157.681L-226.687 156.746L-224.78 156.656L-225.384 156.022L-227.731 155.004L-226.047 154.869L-228.316 153.87L-226.681 153.723L-225.275 153.53L-224.002 153.306L-225.136 152.557L-226.44 151.769L-223.622 151.878L-226.023 150.853L-226.476 150.251L-226.91 149.655L-225.891 149.373L-226.705 148.688L-223.067 148.976L-223.326 148.412L-223.574 147.855L-223.519 147.362L-226.711 146.164L-225.323 145.959L-225.963 146.766L-225.915 144.44Z" fill="#F5F5F5" fill-opacity="0.4"/>
</g>
<defs>
<filter id="filter0_f_149_72" x="-244" y="0" width="571" height="274" filterUnits="userSpaceOnUse" color-interpolation-filters="sRGB">
<feFlood flood-opacity="0" result="BackgroundImageFix"/>
<feBlend mode="normal" in="SourceGraphic" in2="BackgroundImageFix" result="shape"/>
<feGaussianBlur stdDeviation="5" result="effect1_foregroundBlur_149_72"/>
</filter>
</defs>
</svg>
